G04 EAGLE Gerber RS-274X export*
G75*
%MOMM*%
%FSLAX34Y34*%
%LPD*%
%INSilkscreen Top*%
%IPPOS*%
%AMOC8*
5,1,8,0,0,1.08239X$1,22.5*%
G01*
%ADD10C,0.152400*%
%ADD11C,0.101600*%
%ADD12C,0.203200*%
%ADD13C,0.127000*%
%ADD14C,0.076200*%


D10*
X53340Y63500D02*
X53340Y72390D01*
X62230Y72390D01*
X53340Y52070D02*
X53340Y44450D01*
X62230Y44450D01*
X92710Y44450D02*
X101600Y44450D01*
X101600Y53340D01*
X101600Y72390D02*
X92710Y72390D01*
X101600Y72390D02*
X101600Y63500D01*
D11*
X45786Y24638D02*
X43189Y24638D01*
X43090Y24640D01*
X42990Y24646D01*
X42891Y24655D01*
X42793Y24668D01*
X42695Y24685D01*
X42597Y24706D01*
X42501Y24731D01*
X42406Y24759D01*
X42312Y24791D01*
X42219Y24826D01*
X42127Y24865D01*
X42037Y24908D01*
X41949Y24953D01*
X41862Y25003D01*
X41778Y25055D01*
X41695Y25111D01*
X41615Y25169D01*
X41537Y25231D01*
X41462Y25296D01*
X41389Y25364D01*
X41319Y25434D01*
X41251Y25507D01*
X41186Y25582D01*
X41124Y25660D01*
X41066Y25740D01*
X41010Y25823D01*
X40958Y25907D01*
X40908Y25994D01*
X40863Y26082D01*
X40820Y26172D01*
X40781Y26264D01*
X40746Y26357D01*
X40714Y26451D01*
X40686Y26546D01*
X40661Y26642D01*
X40640Y26740D01*
X40623Y26838D01*
X40610Y26936D01*
X40601Y27035D01*
X40595Y27135D01*
X40593Y27234D01*
X40593Y33726D01*
X40595Y33825D01*
X40601Y33925D01*
X40610Y34024D01*
X40623Y34122D01*
X40640Y34220D01*
X40661Y34318D01*
X40686Y34414D01*
X40714Y34509D01*
X40746Y34603D01*
X40781Y34696D01*
X40820Y34788D01*
X40863Y34878D01*
X40908Y34966D01*
X40958Y35053D01*
X41010Y35137D01*
X41066Y35220D01*
X41124Y35300D01*
X41186Y35378D01*
X41251Y35453D01*
X41319Y35526D01*
X41389Y35596D01*
X41462Y35664D01*
X41537Y35729D01*
X41615Y35791D01*
X41695Y35849D01*
X41778Y35905D01*
X41862Y35957D01*
X41949Y36007D01*
X42037Y36052D01*
X42127Y36095D01*
X42219Y36134D01*
X42311Y36169D01*
X42406Y36201D01*
X42501Y36229D01*
X42597Y36254D01*
X42695Y36275D01*
X42793Y36292D01*
X42891Y36305D01*
X42990Y36314D01*
X43090Y36320D01*
X43189Y36322D01*
X45786Y36322D01*
X50151Y33726D02*
X53396Y36322D01*
X53396Y24638D01*
X50151Y24638D02*
X56642Y24638D01*
X45786Y83058D02*
X43189Y83058D01*
X43090Y83060D01*
X42990Y83066D01*
X42891Y83075D01*
X42793Y83088D01*
X42695Y83105D01*
X42597Y83126D01*
X42501Y83151D01*
X42406Y83179D01*
X42312Y83211D01*
X42219Y83246D01*
X42127Y83285D01*
X42037Y83328D01*
X41949Y83373D01*
X41862Y83423D01*
X41778Y83475D01*
X41695Y83531D01*
X41615Y83589D01*
X41537Y83651D01*
X41462Y83716D01*
X41389Y83784D01*
X41319Y83854D01*
X41251Y83927D01*
X41186Y84002D01*
X41124Y84080D01*
X41066Y84160D01*
X41010Y84243D01*
X40958Y84327D01*
X40908Y84414D01*
X40863Y84502D01*
X40820Y84592D01*
X40781Y84684D01*
X40746Y84777D01*
X40714Y84871D01*
X40686Y84966D01*
X40661Y85062D01*
X40640Y85160D01*
X40623Y85258D01*
X40610Y85356D01*
X40601Y85455D01*
X40595Y85555D01*
X40593Y85654D01*
X40593Y92146D01*
X40595Y92245D01*
X40601Y92345D01*
X40610Y92444D01*
X40623Y92542D01*
X40640Y92640D01*
X40661Y92738D01*
X40686Y92834D01*
X40714Y92929D01*
X40746Y93023D01*
X40781Y93116D01*
X40820Y93208D01*
X40863Y93298D01*
X40908Y93386D01*
X40958Y93473D01*
X41010Y93557D01*
X41066Y93640D01*
X41124Y93720D01*
X41186Y93798D01*
X41251Y93873D01*
X41319Y93946D01*
X41389Y94016D01*
X41462Y94084D01*
X41537Y94149D01*
X41615Y94211D01*
X41695Y94269D01*
X41778Y94325D01*
X41862Y94377D01*
X41949Y94427D01*
X42037Y94472D01*
X42127Y94515D01*
X42219Y94554D01*
X42311Y94589D01*
X42406Y94621D01*
X42501Y94649D01*
X42597Y94674D01*
X42695Y94695D01*
X42793Y94712D01*
X42891Y94725D01*
X42990Y94734D01*
X43090Y94740D01*
X43189Y94742D01*
X45786Y94742D01*
X53721Y94742D02*
X53828Y94740D01*
X53934Y94734D01*
X54040Y94724D01*
X54146Y94711D01*
X54252Y94693D01*
X54356Y94672D01*
X54460Y94647D01*
X54563Y94618D01*
X54664Y94586D01*
X54764Y94549D01*
X54863Y94509D01*
X54961Y94466D01*
X55057Y94419D01*
X55151Y94368D01*
X55243Y94314D01*
X55333Y94257D01*
X55421Y94197D01*
X55506Y94133D01*
X55589Y94066D01*
X55670Y93996D01*
X55748Y93924D01*
X55824Y93848D01*
X55896Y93770D01*
X55966Y93689D01*
X56033Y93606D01*
X56097Y93521D01*
X56157Y93433D01*
X56214Y93343D01*
X56268Y93251D01*
X56319Y93157D01*
X56366Y93061D01*
X56409Y92963D01*
X56449Y92864D01*
X56486Y92764D01*
X56518Y92663D01*
X56547Y92560D01*
X56572Y92456D01*
X56593Y92352D01*
X56611Y92246D01*
X56624Y92140D01*
X56634Y92034D01*
X56640Y91928D01*
X56642Y91821D01*
X53721Y94742D02*
X53600Y94740D01*
X53479Y94734D01*
X53359Y94724D01*
X53238Y94711D01*
X53119Y94693D01*
X52999Y94672D01*
X52881Y94647D01*
X52764Y94618D01*
X52647Y94585D01*
X52532Y94549D01*
X52418Y94508D01*
X52305Y94465D01*
X52193Y94417D01*
X52084Y94366D01*
X51976Y94311D01*
X51869Y94253D01*
X51765Y94192D01*
X51663Y94127D01*
X51563Y94059D01*
X51465Y93988D01*
X51369Y93914D01*
X51276Y93837D01*
X51186Y93756D01*
X51098Y93673D01*
X51013Y93587D01*
X50930Y93498D01*
X50851Y93407D01*
X50774Y93313D01*
X50701Y93217D01*
X50631Y93119D01*
X50564Y93018D01*
X50500Y92915D01*
X50440Y92810D01*
X50383Y92703D01*
X50329Y92595D01*
X50279Y92485D01*
X50233Y92373D01*
X50190Y92260D01*
X50151Y92145D01*
X55669Y89549D02*
X55748Y89626D01*
X55824Y89707D01*
X55897Y89790D01*
X55967Y89875D01*
X56034Y89963D01*
X56098Y90053D01*
X56158Y90145D01*
X56215Y90240D01*
X56269Y90336D01*
X56320Y90434D01*
X56367Y90534D01*
X56411Y90636D01*
X56451Y90739D01*
X56487Y90843D01*
X56519Y90949D01*
X56548Y91055D01*
X56573Y91163D01*
X56595Y91271D01*
X56612Y91381D01*
X56626Y91490D01*
X56635Y91600D01*
X56641Y91711D01*
X56643Y91821D01*
X55668Y89549D02*
X50151Y83058D01*
X56642Y83058D01*
D12*
X7620Y90170D02*
X7620Y102870D01*
X13970Y109220D01*
X26670Y109220D02*
X33020Y102870D01*
X13970Y109220D02*
X7620Y115570D01*
X7620Y128270D01*
X13970Y134620D01*
X26670Y134620D02*
X33020Y128270D01*
X33020Y115570D01*
X26670Y109220D01*
X7620Y64770D02*
X13970Y58420D01*
X7620Y64770D02*
X7620Y77470D01*
X13970Y83820D01*
X26670Y83820D02*
X33020Y77470D01*
X33020Y64770D01*
X26670Y58420D01*
X13970Y83820D02*
X7620Y90170D01*
X26670Y83820D02*
X33020Y90170D01*
X33020Y102870D01*
X7620Y26670D02*
X7620Y13970D01*
X7620Y26670D02*
X13970Y33020D01*
X26670Y33020D02*
X33020Y26670D01*
X13970Y33020D02*
X7620Y39370D01*
X7620Y52070D01*
X13970Y58420D01*
X26670Y58420D02*
X33020Y52070D01*
X33020Y39370D01*
X26670Y33020D01*
X26670Y7620D02*
X13970Y7620D01*
X7620Y13970D01*
X26670Y7620D02*
X33020Y13970D01*
X33020Y26670D01*
X26670Y134620D02*
X13970Y134620D01*
D13*
X17866Y137851D02*
X17866Y141605D01*
X17866Y137851D02*
X17864Y137786D01*
X17858Y137722D01*
X17848Y137658D01*
X17835Y137594D01*
X17817Y137532D01*
X17796Y137471D01*
X17772Y137411D01*
X17743Y137353D01*
X17711Y137296D01*
X17676Y137242D01*
X17638Y137190D01*
X17596Y137140D01*
X17552Y137093D01*
X17505Y137049D01*
X17455Y137007D01*
X17403Y136969D01*
X17349Y136934D01*
X17292Y136902D01*
X17234Y136873D01*
X17174Y136849D01*
X17113Y136828D01*
X17051Y136810D01*
X16987Y136797D01*
X16923Y136787D01*
X16859Y136781D01*
X16794Y136779D01*
X16257Y136779D01*
X20814Y140533D02*
X22154Y141605D01*
X22154Y136779D01*
X20814Y136779D02*
X23495Y136779D01*
D14*
X40888Y62289D02*
X40888Y56700D01*
X40889Y56700D02*
X40891Y56609D01*
X40897Y56518D01*
X40906Y56427D01*
X40920Y56337D01*
X40937Y56247D01*
X40958Y56158D01*
X40983Y56071D01*
X41012Y55984D01*
X41044Y55899D01*
X41080Y55815D01*
X41119Y55733D01*
X41162Y55652D01*
X41208Y55573D01*
X41258Y55497D01*
X41310Y55422D01*
X41366Y55350D01*
X41425Y55280D01*
X41487Y55213D01*
X41551Y55149D01*
X41618Y55087D01*
X41688Y55028D01*
X41760Y54972D01*
X41835Y54920D01*
X41911Y54870D01*
X41990Y54824D01*
X42071Y54781D01*
X42153Y54742D01*
X42237Y54706D01*
X42322Y54674D01*
X42409Y54645D01*
X42496Y54620D01*
X42585Y54599D01*
X42675Y54582D01*
X42765Y54568D01*
X42856Y54559D01*
X42947Y54553D01*
X43038Y54551D01*
X43129Y54553D01*
X43220Y54559D01*
X43311Y54568D01*
X43401Y54582D01*
X43491Y54599D01*
X43580Y54620D01*
X43667Y54645D01*
X43754Y54674D01*
X43839Y54706D01*
X43923Y54742D01*
X44005Y54781D01*
X44086Y54824D01*
X44165Y54870D01*
X44241Y54920D01*
X44316Y54972D01*
X44388Y55028D01*
X44458Y55087D01*
X44525Y55149D01*
X44589Y55213D01*
X44651Y55280D01*
X44710Y55350D01*
X44766Y55422D01*
X44818Y55497D01*
X44868Y55573D01*
X44914Y55652D01*
X44957Y55733D01*
X44996Y55815D01*
X45032Y55899D01*
X45064Y55984D01*
X45093Y56071D01*
X45118Y56158D01*
X45139Y56247D01*
X45156Y56337D01*
X45170Y56427D01*
X45179Y56518D01*
X45185Y56609D01*
X45187Y56700D01*
X45187Y62289D01*
X48793Y60569D02*
X50943Y62289D01*
X50943Y54551D01*
X53092Y54551D02*
X48793Y54551D01*
D12*
X121920Y90170D02*
X121920Y102870D01*
X128270Y109220D01*
X140970Y109220D02*
X147320Y102870D01*
X128270Y109220D02*
X121920Y115570D01*
X121920Y128270D01*
X128270Y134620D01*
X140970Y134620D02*
X147320Y128270D01*
X147320Y115570D01*
X140970Y109220D01*
X121920Y64770D02*
X128270Y58420D01*
X121920Y64770D02*
X121920Y77470D01*
X128270Y83820D01*
X140970Y83820D02*
X147320Y77470D01*
X147320Y64770D01*
X140970Y58420D01*
X128270Y83820D02*
X121920Y90170D01*
X140970Y83820D02*
X147320Y90170D01*
X147320Y102870D01*
X121920Y26670D02*
X121920Y13970D01*
X121920Y26670D02*
X128270Y33020D01*
X140970Y33020D02*
X147320Y26670D01*
X128270Y33020D02*
X121920Y39370D01*
X121920Y52070D01*
X128270Y58420D01*
X140970Y58420D02*
X147320Y52070D01*
X147320Y39370D01*
X140970Y33020D01*
X140970Y7620D02*
X128270Y7620D01*
X121920Y13970D01*
X140970Y7620D02*
X147320Y13970D01*
X147320Y26670D01*
X140970Y134620D02*
X128270Y134620D01*
D13*
X133436Y139121D02*
X133436Y142875D01*
X133436Y139121D02*
X133434Y139056D01*
X133428Y138992D01*
X133418Y138928D01*
X133405Y138864D01*
X133387Y138802D01*
X133366Y138741D01*
X133342Y138681D01*
X133313Y138623D01*
X133281Y138566D01*
X133246Y138512D01*
X133208Y138460D01*
X133166Y138410D01*
X133122Y138363D01*
X133075Y138319D01*
X133025Y138277D01*
X132973Y138239D01*
X132919Y138204D01*
X132862Y138172D01*
X132804Y138143D01*
X132744Y138119D01*
X132683Y138098D01*
X132621Y138080D01*
X132557Y138067D01*
X132493Y138057D01*
X132429Y138051D01*
X132364Y138049D01*
X131827Y138049D01*
X137859Y142875D02*
X137927Y142873D01*
X137994Y142867D01*
X138061Y142858D01*
X138128Y142845D01*
X138193Y142828D01*
X138258Y142807D01*
X138321Y142783D01*
X138383Y142755D01*
X138443Y142724D01*
X138501Y142690D01*
X138557Y142652D01*
X138612Y142612D01*
X138663Y142568D01*
X138712Y142521D01*
X138759Y142472D01*
X138803Y142421D01*
X138843Y142366D01*
X138881Y142310D01*
X138915Y142252D01*
X138946Y142192D01*
X138974Y142130D01*
X138998Y142067D01*
X139019Y142002D01*
X139036Y141937D01*
X139049Y141870D01*
X139058Y141803D01*
X139064Y141736D01*
X139066Y141668D01*
X137859Y142875D02*
X137781Y142873D01*
X137703Y142867D01*
X137626Y142857D01*
X137549Y142844D01*
X137473Y142826D01*
X137398Y142805D01*
X137324Y142780D01*
X137252Y142751D01*
X137181Y142719D01*
X137112Y142683D01*
X137044Y142644D01*
X136979Y142601D01*
X136916Y142555D01*
X136855Y142506D01*
X136797Y142454D01*
X136742Y142399D01*
X136689Y142342D01*
X136640Y142282D01*
X136593Y142219D01*
X136550Y142155D01*
X136510Y142088D01*
X136473Y142019D01*
X136440Y141948D01*
X136410Y141876D01*
X136384Y141803D01*
X138663Y140730D02*
X138712Y140779D01*
X138759Y140831D01*
X138802Y140886D01*
X138843Y140943D01*
X138881Y141002D01*
X138915Y141063D01*
X138946Y141126D01*
X138974Y141190D01*
X138998Y141256D01*
X139018Y141322D01*
X139035Y141390D01*
X139048Y141459D01*
X139057Y141528D01*
X139063Y141598D01*
X139065Y141668D01*
X138663Y140730D02*
X136384Y138049D01*
X139065Y138049D01*
D10*
X113030Y175260D02*
X41910Y175260D01*
X113030Y175260D02*
X113030Y104140D01*
X41910Y104140D01*
X41910Y175260D01*
D12*
X61470Y139700D02*
X61475Y140093D01*
X61489Y140485D01*
X61513Y140877D01*
X61547Y141268D01*
X61590Y141659D01*
X61643Y142048D01*
X61706Y142435D01*
X61777Y142821D01*
X61859Y143206D01*
X61949Y143588D01*
X62050Y143967D01*
X62159Y144345D01*
X62278Y144719D01*
X62405Y145090D01*
X62542Y145458D01*
X62688Y145823D01*
X62843Y146184D01*
X63006Y146541D01*
X63178Y146894D01*
X63359Y147242D01*
X63549Y147586D01*
X63746Y147926D01*
X63952Y148260D01*
X64166Y148589D01*
X64389Y148913D01*
X64619Y149231D01*
X64856Y149544D01*
X65102Y149850D01*
X65355Y150151D01*
X65615Y150445D01*
X65882Y150733D01*
X66156Y151014D01*
X66437Y151288D01*
X66725Y151555D01*
X67019Y151815D01*
X67320Y152068D01*
X67626Y152314D01*
X67939Y152551D01*
X68257Y152781D01*
X68581Y153004D01*
X68910Y153218D01*
X69244Y153424D01*
X69584Y153621D01*
X69928Y153811D01*
X70276Y153992D01*
X70629Y154164D01*
X70986Y154327D01*
X71347Y154482D01*
X71712Y154628D01*
X72080Y154765D01*
X72451Y154892D01*
X72825Y155011D01*
X73203Y155120D01*
X73582Y155221D01*
X73964Y155311D01*
X74349Y155393D01*
X74735Y155464D01*
X75122Y155527D01*
X75511Y155580D01*
X75902Y155623D01*
X76293Y155657D01*
X76685Y155681D01*
X77077Y155695D01*
X77470Y155700D01*
X77863Y155695D01*
X78255Y155681D01*
X78647Y155657D01*
X79038Y155623D01*
X79429Y155580D01*
X79818Y155527D01*
X80205Y155464D01*
X80591Y155393D01*
X80976Y155311D01*
X81358Y155221D01*
X81737Y155120D01*
X82115Y155011D01*
X82489Y154892D01*
X82860Y154765D01*
X83228Y154628D01*
X83593Y154482D01*
X83954Y154327D01*
X84311Y154164D01*
X84664Y153992D01*
X85012Y153811D01*
X85356Y153621D01*
X85696Y153424D01*
X86030Y153218D01*
X86359Y153004D01*
X86683Y152781D01*
X87001Y152551D01*
X87314Y152314D01*
X87620Y152068D01*
X87921Y151815D01*
X88215Y151555D01*
X88503Y151288D01*
X88784Y151014D01*
X89058Y150733D01*
X89325Y150445D01*
X89585Y150151D01*
X89838Y149850D01*
X90084Y149544D01*
X90321Y149231D01*
X90551Y148913D01*
X90774Y148589D01*
X90988Y148260D01*
X91194Y147926D01*
X91391Y147586D01*
X91581Y147242D01*
X91762Y146894D01*
X91934Y146541D01*
X92097Y146184D01*
X92252Y145823D01*
X92398Y145458D01*
X92535Y145090D01*
X92662Y144719D01*
X92781Y144345D01*
X92890Y143967D01*
X92991Y143588D01*
X93081Y143206D01*
X93163Y142821D01*
X93234Y142435D01*
X93297Y142048D01*
X93350Y141659D01*
X93393Y141268D01*
X93427Y140877D01*
X93451Y140485D01*
X93465Y140093D01*
X93470Y139700D01*
X93465Y139307D01*
X93451Y138915D01*
X93427Y138523D01*
X93393Y138132D01*
X93350Y137741D01*
X93297Y137352D01*
X93234Y136965D01*
X93163Y136579D01*
X93081Y136194D01*
X92991Y135812D01*
X92890Y135433D01*
X92781Y135055D01*
X92662Y134681D01*
X92535Y134310D01*
X92398Y133942D01*
X92252Y133577D01*
X92097Y133216D01*
X91934Y132859D01*
X91762Y132506D01*
X91581Y132158D01*
X91391Y131814D01*
X91194Y131474D01*
X90988Y131140D01*
X90774Y130811D01*
X90551Y130487D01*
X90321Y130169D01*
X90084Y129856D01*
X89838Y129550D01*
X89585Y129249D01*
X89325Y128955D01*
X89058Y128667D01*
X88784Y128386D01*
X88503Y128112D01*
X88215Y127845D01*
X87921Y127585D01*
X87620Y127332D01*
X87314Y127086D01*
X87001Y126849D01*
X86683Y126619D01*
X86359Y126396D01*
X86030Y126182D01*
X85696Y125976D01*
X85356Y125779D01*
X85012Y125589D01*
X84664Y125408D01*
X84311Y125236D01*
X83954Y125073D01*
X83593Y124918D01*
X83228Y124772D01*
X82860Y124635D01*
X82489Y124508D01*
X82115Y124389D01*
X81737Y124280D01*
X81358Y124179D01*
X80976Y124089D01*
X80591Y124007D01*
X80205Y123936D01*
X79818Y123873D01*
X79429Y123820D01*
X79038Y123777D01*
X78647Y123743D01*
X78255Y123719D01*
X77863Y123705D01*
X77470Y123700D01*
X77077Y123705D01*
X76685Y123719D01*
X76293Y123743D01*
X75902Y123777D01*
X75511Y123820D01*
X75122Y123873D01*
X74735Y123936D01*
X74349Y124007D01*
X73964Y124089D01*
X73582Y124179D01*
X73203Y124280D01*
X72825Y124389D01*
X72451Y124508D01*
X72080Y124635D01*
X71712Y124772D01*
X71347Y124918D01*
X70986Y125073D01*
X70629Y125236D01*
X70276Y125408D01*
X69928Y125589D01*
X69584Y125779D01*
X69244Y125976D01*
X68910Y126182D01*
X68581Y126396D01*
X68257Y126619D01*
X67939Y126849D01*
X67626Y127086D01*
X67320Y127332D01*
X67019Y127585D01*
X66725Y127845D01*
X66437Y128112D01*
X66156Y128386D01*
X65882Y128667D01*
X65615Y128955D01*
X65355Y129249D01*
X65102Y129550D01*
X64856Y129856D01*
X64619Y130169D01*
X64389Y130487D01*
X64166Y130811D01*
X63952Y131140D01*
X63746Y131474D01*
X63549Y131814D01*
X63359Y132158D01*
X63178Y132506D01*
X63006Y132859D01*
X62843Y133216D01*
X62688Y133577D01*
X62542Y133942D01*
X62405Y134310D01*
X62278Y134681D01*
X62159Y135055D01*
X62050Y135433D01*
X61949Y135812D01*
X61859Y136194D01*
X61777Y136579D01*
X61706Y136965D01*
X61643Y137352D01*
X61590Y137741D01*
X61547Y138132D01*
X61513Y138523D01*
X61489Y138915D01*
X61475Y139307D01*
X61470Y139700D01*
M02*
