G04 EAGLE Gerber RS-274X export*
G75*
%MOMM*%
%FSLAX34Y34*%
%LPD*%
%INSoldermask Bottom*%
%IPPOS*%
%AMOC8*
5,1,8,0,0,1.08239X$1,22.5*%
G01*
%ADD10R,1.427000X1.627000*%
%ADD11C,2.006600*%
%ADD12R,1.600200X0.482600*%
%ADD13R,0.482600X1.803400*%
%ADD14R,1.627000X1.427000*%
%ADD15R,2.502000X2.027000*%
%ADD16R,1.302000X2.027000*%
%ADD17R,1.602000X2.227000*%
%ADD18R,0.577000X1.507000*%
%ADD19R,5.969000X5.969000*%
%ADD20C,0.584200*%
%ADD21C,0.652000*%


D10*
X313080Y528320D03*
X332080Y528320D03*
D11*
X556260Y463550D03*
X530860Y463550D03*
X505460Y463550D03*
X480060Y463550D03*
X454660Y463550D03*
X25400Y342900D03*
X25400Y368300D03*
X25400Y393700D03*
X25400Y419100D03*
X25400Y444500D03*
D10*
X263550Y509270D03*
X282550Y509270D03*
X330810Y490220D03*
X311810Y490220D03*
D12*
X172720Y303490D03*
X172720Y309990D03*
X172720Y316490D03*
X172720Y322990D03*
X172720Y329490D03*
X172720Y335990D03*
X172720Y342490D03*
X172720Y348990D03*
X172720Y355490D03*
X172720Y361990D03*
X231140Y361990D03*
X231140Y355490D03*
X231140Y348990D03*
X231140Y342490D03*
X231140Y335990D03*
X231140Y329490D03*
X231140Y322990D03*
X231140Y316490D03*
X231140Y309990D03*
X231140Y303490D03*
X491490Y294600D03*
X491490Y301100D03*
X491490Y307600D03*
X491490Y314100D03*
X491490Y320600D03*
X491490Y327100D03*
X491490Y333600D03*
X491490Y340100D03*
X491490Y346600D03*
X491490Y353100D03*
X549910Y353100D03*
X549910Y346600D03*
X549910Y340100D03*
X549910Y333600D03*
X549910Y327100D03*
X549910Y320600D03*
X549910Y314100D03*
X549910Y307600D03*
X549910Y301100D03*
X549910Y294600D03*
D11*
X556260Y501650D03*
X530860Y501650D03*
X505460Y501650D03*
X480060Y501650D03*
X454660Y501650D03*
X429260Y501650D03*
X101600Y342900D03*
X101600Y368300D03*
X101600Y393700D03*
X101600Y419100D03*
X101600Y444500D03*
X25400Y203200D03*
X25400Y228600D03*
X25400Y254000D03*
X25400Y279400D03*
X25400Y304800D03*
X101600Y203200D03*
X101600Y228600D03*
X101600Y254000D03*
X101600Y279400D03*
X101600Y304800D03*
X711200Y342900D03*
X711200Y368300D03*
X711200Y393700D03*
X711200Y419100D03*
X711200Y444500D03*
X635000Y342900D03*
X635000Y368300D03*
X635000Y393700D03*
X635000Y419100D03*
X635000Y444500D03*
X711200Y203200D03*
X711200Y228600D03*
X711200Y254000D03*
X711200Y279400D03*
X711200Y304800D03*
X635000Y203200D03*
X635000Y228600D03*
X635000Y254000D03*
X635000Y279400D03*
X635000Y304800D03*
X215900Y533400D03*
X190500Y533400D03*
X165100Y533400D03*
X139700Y533400D03*
X114300Y533400D03*
D10*
G36*
X373576Y338821D02*
X363486Y348911D01*
X374990Y360415D01*
X385080Y350325D01*
X373576Y338821D01*
G37*
G36*
X387011Y325385D02*
X376921Y335475D01*
X388425Y346979D01*
X398515Y336889D01*
X387011Y325385D01*
G37*
G36*
X351521Y375725D02*
X361611Y385815D01*
X373115Y374311D01*
X363025Y364221D01*
X351521Y375725D01*
G37*
G36*
X338086Y362289D02*
X348176Y372379D01*
X359680Y360875D01*
X349590Y350785D01*
X338086Y362289D01*
G37*
G36*
X313421Y337625D02*
X323511Y347715D01*
X335015Y336211D01*
X324925Y326121D01*
X313421Y337625D01*
G37*
G36*
X299986Y324189D02*
X310076Y334279D01*
X321580Y322775D01*
X311490Y312685D01*
X299986Y324189D01*
G37*
G36*
X335476Y300721D02*
X325386Y310811D01*
X336890Y322315D01*
X346980Y312225D01*
X335476Y300721D01*
G37*
G36*
X348911Y287285D02*
X338821Y297375D01*
X350325Y308879D01*
X360415Y298789D01*
X348911Y287285D01*
G37*
G36*
X360876Y313421D02*
X350786Y323511D01*
X362290Y335015D01*
X372380Y324925D01*
X360876Y313421D01*
G37*
G36*
X374311Y299985D02*
X364221Y310075D01*
X375725Y321579D01*
X385815Y311489D01*
X374311Y299985D01*
G37*
X546760Y209550D03*
X565760Y209550D03*
X502310Y190500D03*
X521310Y190500D03*
X548030Y171450D03*
X567030Y171450D03*
X502310Y152400D03*
X521310Y152400D03*
X548030Y133350D03*
X567030Y133350D03*
X502310Y114300D03*
X521310Y114300D03*
X548030Y95250D03*
X567030Y95250D03*
X502310Y76200D03*
X521310Y76200D03*
D13*
X470350Y70866D03*
X463850Y70866D03*
X457350Y70866D03*
X450850Y70866D03*
X444350Y70866D03*
X437850Y70866D03*
X431350Y70866D03*
X431350Y127254D03*
X437850Y127254D03*
X444350Y127254D03*
X450850Y127254D03*
X457350Y127254D03*
X463850Y127254D03*
X470350Y127254D03*
D10*
X501040Y22860D03*
X520040Y22860D03*
X456540Y22860D03*
X437540Y22860D03*
D11*
X24130Y114300D03*
X26670Y139700D03*
X24130Y165100D03*
D14*
X295910Y73050D03*
X295910Y92050D03*
X323850Y207620D03*
X323850Y188620D03*
X323850Y147980D03*
X323850Y166980D03*
D11*
X429260Y539750D03*
X454660Y539750D03*
X480060Y539750D03*
X505460Y539750D03*
X530860Y539750D03*
X556260Y539750D03*
X387350Y15240D03*
X387350Y40640D03*
X254000Y63500D03*
X254000Y88900D03*
D15*
X346625Y25400D03*
D16*
X325875Y25400D03*
D15*
X288375Y25400D03*
D16*
X309125Y25400D03*
D17*
X342125Y48400D03*
D18*
X317500Y52000D03*
X324000Y52000D03*
X311000Y52000D03*
X330500Y52000D03*
X304500Y52000D03*
D17*
X292875Y48400D03*
D14*
X379730Y73050D03*
X379730Y92050D03*
X331470Y73050D03*
X331470Y92050D03*
D19*
X50800Y508000D03*
X685800Y508000D03*
X50800Y50800D03*
X684530Y53340D03*
D11*
X254000Y152400D03*
X228600Y152400D03*
X203200Y152400D03*
X177800Y152400D03*
X152400Y152400D03*
X127000Y152400D03*
D10*
G36*
X265700Y218635D02*
X255610Y208545D01*
X244106Y220049D01*
X254196Y230139D01*
X265700Y218635D01*
G37*
G36*
X279135Y232071D02*
X269045Y221981D01*
X257541Y233485D01*
X267631Y243575D01*
X279135Y232071D01*
G37*
G36*
X239030Y183075D02*
X228940Y172985D01*
X217436Y184489D01*
X227526Y194579D01*
X239030Y183075D01*
G37*
G36*
X252465Y196511D02*
X242375Y186421D01*
X230871Y197925D01*
X240961Y208015D01*
X252465Y196511D01*
G37*
G36*
X214900Y219905D02*
X204810Y209815D01*
X193306Y221319D01*
X203396Y231409D01*
X214900Y219905D01*
G37*
G36*
X228335Y233341D02*
X218245Y223251D01*
X206741Y234755D01*
X216831Y244845D01*
X228335Y233341D01*
G37*
G36*
X188230Y183075D02*
X178140Y172985D01*
X166636Y184489D01*
X176726Y194579D01*
X188230Y183075D01*
G37*
G36*
X201665Y196511D02*
X191575Y186421D01*
X180071Y197925D01*
X190161Y208015D01*
X201665Y196511D01*
G37*
G36*
X162830Y219905D02*
X152740Y209815D01*
X141236Y221319D01*
X151326Y231409D01*
X162830Y219905D01*
G37*
G36*
X176265Y233341D02*
X166175Y223251D01*
X154671Y234755D01*
X164761Y244845D01*
X176265Y233341D01*
G37*
G36*
X137430Y184345D02*
X127340Y174255D01*
X115836Y185759D01*
X125926Y195849D01*
X137430Y184345D01*
G37*
G36*
X150865Y197781D02*
X140775Y187691D01*
X129271Y199195D01*
X139361Y209285D01*
X150865Y197781D01*
G37*
D14*
X179070Y24790D03*
X179070Y43790D03*
X179070Y84430D03*
X179070Y65430D03*
X201930Y24790D03*
X201930Y43790D03*
X201930Y84430D03*
X201930Y65430D03*
X63500Y415900D03*
X63500Y396900D03*
X139700Y415900D03*
X139700Y396900D03*
X63500Y276200D03*
X63500Y257200D03*
X139700Y276200D03*
X139700Y257200D03*
X673100Y415900D03*
X673100Y396900D03*
X596900Y415900D03*
X596900Y396900D03*
X673100Y276200D03*
X673100Y257200D03*
X596900Y276200D03*
X596900Y257200D03*
D11*
X127000Y15240D03*
X127000Y40640D03*
D20*
X340000Y380000D03*
X335000Y362500D03*
X407500Y72500D03*
X305000Y282500D03*
X362500Y295000D03*
D21*
X673100Y101600D03*
X660400Y114300D03*
X647700Y127000D03*
X660400Y139700D03*
X673100Y152400D03*
X660400Y165100D03*
X647700Y177800D03*
X673100Y177800D03*
X647700Y152400D03*
X673100Y127000D03*
X647700Y101600D03*
X635000Y165100D03*
X622300Y177800D03*
X609600Y165100D03*
X596900Y177800D03*
X419100Y63500D03*
X419100Y88900D03*
X292100Y254000D03*
X304800Y266700D03*
X292100Y279400D03*
X63500Y101600D03*
X76200Y114300D03*
X88900Y127000D03*
X63500Y127000D03*
X88900Y101600D03*
X292100Y215900D03*
X279400Y203200D03*
X289560Y161290D03*
X632460Y504190D03*
X619760Y491490D03*
X607060Y478790D03*
X632460Y478790D03*
X619760Y466090D03*
X594360Y491490D03*
X581660Y478790D03*
D20*
X212500Y285000D03*
X330000Y300000D03*
X485000Y22500D03*
X212500Y10000D03*
X380000Y367500D03*
X250000Y305000D03*
X562500Y312500D03*
X455000Y367500D03*
X442500Y327500D03*
X245000Y310000D03*
X572500Y422500D03*
X407500Y332500D03*
X392500Y357500D03*
X392500Y490000D03*
X460000Y332500D03*
X297500Y330000D03*
X305000Y417500D03*
X392500Y350000D03*
X495000Y475000D03*
X270000Y495000D03*
X302500Y500000D03*
X215000Y312500D03*
X192500Y310000D03*
X160000Y317500D03*
X535000Y302500D03*
X507500Y302500D03*
X480000Y307500D03*
X167500Y407500D03*
X155000Y335000D03*
X42500Y337500D03*
X232500Y262500D03*
X175000Y272500D03*
X182500Y385000D03*
X210000Y190000D03*
X240000Y262500D03*
X215000Y365000D03*
X242500Y320000D03*
X237500Y297500D03*
X192500Y252500D03*
X220000Y330000D03*
X475000Y365000D03*
X175000Y242500D03*
X470000Y242500D03*
X562500Y395000D03*
X480000Y377500D03*
X515000Y437500D03*
X567500Y317500D03*
X567500Y327500D03*
X602500Y327500D03*
X620000Y262500D03*
X567500Y335000D03*
X585000Y332500D03*
X562500Y340000D03*
X562500Y185000D03*
X360000Y197500D03*
X372500Y212500D03*
X580000Y252500D03*
X647500Y215000D03*
X520000Y377500D03*
X147500Y207500D03*
X607500Y292500D03*
X140000Y507500D03*
X562500Y192500D03*
X507500Y167500D03*
X557500Y160000D03*
X492500Y142500D03*
X537500Y247500D03*
X505000Y252500D03*
X502500Y265000D03*
X417500Y265000D03*
X425000Y177500D03*
X517500Y177500D03*
X370000Y280000D03*
X377500Y177500D03*
X527500Y172500D03*
X480000Y270000D03*
X377500Y287500D03*
X475000Y277500D03*
X560000Y117500D03*
X512500Y102500D03*
X580000Y60000D03*
X540000Y37500D03*
X310000Y385000D03*
X325000Y417500D03*
X372500Y367500D03*
X300000Y392500D03*
X345000Y375000D03*
X382500Y507500D03*
X465000Y85000D03*
X450000Y85000D03*
X457500Y85000D03*
X447500Y35000D03*
X440000Y35000D03*
X520000Y35000D03*
X292500Y412500D03*
X260000Y197500D03*
X347500Y72500D03*
X355000Y55000D03*
X350000Y197500D03*
X320000Y62500D03*
X162500Y75000D03*
X167500Y92500D03*
X210000Y95000D03*
X432500Y307500D03*
X430000Y155000D03*
X397500Y320000D03*
X387500Y147500D03*
X325000Y315000D03*
X420000Y297500D03*
X407500Y147500D03*
X397500Y307500D03*
X397500Y132500D03*
X417500Y287500D03*
X412500Y140000D03*
X167500Y85000D03*
X155000Y75000D03*
M02*
