G04 EAGLE Gerber RS-274X export*
G75*
%MOMM*%
%FSLAX34Y34*%
%LPD*%
%INSolderpaste Bottom*%
%IPPOS*%
%AMOC8*
5,1,8,0,0,1.08239X$1,22.5*%
G01*
%ADD10R,1.300000X1.500000*%
%ADD11R,1.473200X0.355600*%
%ADD12R,0.355600X1.676400*%
%ADD13R,1.500000X1.300000*%
%ADD14R,2.375000X1.900000*%
%ADD15R,1.175000X1.900000*%
%ADD16R,1.475000X2.100000*%
%ADD17R,0.450000X1.380000*%


D10*
X313080Y528320D03*
X332080Y528320D03*
X263550Y509270D03*
X282550Y509270D03*
X330810Y490220D03*
X311810Y490220D03*
D11*
X172720Y303490D03*
X172720Y309990D03*
X172720Y316490D03*
X172720Y322990D03*
X172720Y329490D03*
X172720Y335990D03*
X172720Y342490D03*
X172720Y348990D03*
X172720Y355490D03*
X172720Y361990D03*
X231140Y361990D03*
X231140Y355490D03*
X231140Y348990D03*
X231140Y342490D03*
X231140Y335990D03*
X231140Y329490D03*
X231140Y322990D03*
X231140Y316490D03*
X231140Y309990D03*
X231140Y303490D03*
X491490Y294600D03*
X491490Y301100D03*
X491490Y307600D03*
X491490Y314100D03*
X491490Y320600D03*
X491490Y327100D03*
X491490Y333600D03*
X491490Y340100D03*
X491490Y346600D03*
X491490Y353100D03*
X549910Y353100D03*
X549910Y346600D03*
X549910Y340100D03*
X549910Y333600D03*
X549910Y327100D03*
X549910Y320600D03*
X549910Y314100D03*
X549910Y307600D03*
X549910Y301100D03*
X549910Y294600D03*
D10*
G36*
X373576Y339719D02*
X364384Y348911D01*
X374990Y359517D01*
X384182Y350325D01*
X373576Y339719D01*
G37*
G36*
X387011Y326283D02*
X377819Y335475D01*
X388425Y346081D01*
X397617Y336889D01*
X387011Y326283D01*
G37*
G36*
X352419Y375725D02*
X361611Y384917D01*
X372217Y374311D01*
X363025Y365119D01*
X352419Y375725D01*
G37*
G36*
X338984Y362289D02*
X348176Y371481D01*
X358782Y360875D01*
X349590Y351683D01*
X338984Y362289D01*
G37*
G36*
X314319Y337625D02*
X323511Y346817D01*
X334117Y336211D01*
X324925Y327019D01*
X314319Y337625D01*
G37*
G36*
X300884Y324189D02*
X310076Y333381D01*
X320682Y322775D01*
X311490Y313583D01*
X300884Y324189D01*
G37*
G36*
X335476Y301619D02*
X326284Y310811D01*
X336890Y321417D01*
X346082Y312225D01*
X335476Y301619D01*
G37*
G36*
X348911Y288183D02*
X339719Y297375D01*
X350325Y307981D01*
X359517Y298789D01*
X348911Y288183D01*
G37*
G36*
X360876Y314319D02*
X351684Y323511D01*
X362290Y334117D01*
X371482Y324925D01*
X360876Y314319D01*
G37*
G36*
X374311Y300883D02*
X365119Y310075D01*
X375725Y320681D01*
X384917Y311489D01*
X374311Y300883D01*
G37*
X546760Y209550D03*
X565760Y209550D03*
X502310Y190500D03*
X521310Y190500D03*
X548030Y171450D03*
X567030Y171450D03*
X502310Y152400D03*
X521310Y152400D03*
X548030Y133350D03*
X567030Y133350D03*
X502310Y114300D03*
X521310Y114300D03*
X548030Y95250D03*
X567030Y95250D03*
X502310Y76200D03*
X521310Y76200D03*
D12*
X470350Y70866D03*
X463850Y70866D03*
X457350Y70866D03*
X450850Y70866D03*
X444350Y70866D03*
X437850Y70866D03*
X431350Y70866D03*
X431350Y127254D03*
X437850Y127254D03*
X444350Y127254D03*
X450850Y127254D03*
X457350Y127254D03*
X463850Y127254D03*
X470350Y127254D03*
D10*
X501040Y22860D03*
X520040Y22860D03*
X456540Y22860D03*
X437540Y22860D03*
D13*
X295910Y73050D03*
X295910Y92050D03*
X323850Y207620D03*
X323850Y188620D03*
X323850Y147980D03*
X323850Y166980D03*
D14*
X346625Y25400D03*
D15*
X325875Y25400D03*
D14*
X288375Y25400D03*
D15*
X309125Y25400D03*
D16*
X342125Y48400D03*
D17*
X317500Y52000D03*
X324000Y52000D03*
X311000Y52000D03*
X330500Y52000D03*
X304500Y52000D03*
D16*
X292875Y48400D03*
D13*
X379730Y73050D03*
X379730Y92050D03*
X331470Y73050D03*
X331470Y92050D03*
D10*
G36*
X264802Y218635D02*
X255610Y209443D01*
X245004Y220049D01*
X254196Y229241D01*
X264802Y218635D01*
G37*
G36*
X278237Y232071D02*
X269045Y222879D01*
X258439Y233485D01*
X267631Y242677D01*
X278237Y232071D01*
G37*
G36*
X238132Y183075D02*
X228940Y173883D01*
X218334Y184489D01*
X227526Y193681D01*
X238132Y183075D01*
G37*
G36*
X251567Y196511D02*
X242375Y187319D01*
X231769Y197925D01*
X240961Y207117D01*
X251567Y196511D01*
G37*
G36*
X214002Y219905D02*
X204810Y210713D01*
X194204Y221319D01*
X203396Y230511D01*
X214002Y219905D01*
G37*
G36*
X227437Y233341D02*
X218245Y224149D01*
X207639Y234755D01*
X216831Y243947D01*
X227437Y233341D01*
G37*
G36*
X187332Y183075D02*
X178140Y173883D01*
X167534Y184489D01*
X176726Y193681D01*
X187332Y183075D01*
G37*
G36*
X200767Y196511D02*
X191575Y187319D01*
X180969Y197925D01*
X190161Y207117D01*
X200767Y196511D01*
G37*
G36*
X161932Y219905D02*
X152740Y210713D01*
X142134Y221319D01*
X151326Y230511D01*
X161932Y219905D01*
G37*
G36*
X175367Y233341D02*
X166175Y224149D01*
X155569Y234755D01*
X164761Y243947D01*
X175367Y233341D01*
G37*
G36*
X136532Y184345D02*
X127340Y175153D01*
X116734Y185759D01*
X125926Y194951D01*
X136532Y184345D01*
G37*
G36*
X149967Y197781D02*
X140775Y188589D01*
X130169Y199195D01*
X139361Y208387D01*
X149967Y197781D01*
G37*
D13*
X179070Y24790D03*
X179070Y43790D03*
X179070Y84430D03*
X179070Y65430D03*
X201930Y24790D03*
X201930Y43790D03*
X201930Y84430D03*
X201930Y65430D03*
X63500Y415900D03*
X63500Y396900D03*
X139700Y415900D03*
X139700Y396900D03*
X63500Y276200D03*
X63500Y257200D03*
X139700Y276200D03*
X139700Y257200D03*
X673100Y415900D03*
X673100Y396900D03*
X596900Y415900D03*
X596900Y396900D03*
X673100Y276200D03*
X673100Y257200D03*
X596900Y276200D03*
X596900Y257200D03*
M02*
