G04 EAGLE Gerber RS-274X export*
G75*
%MOMM*%
%FSLAX34Y34*%
%LPD*%
%INSoldermask Top*%
%IPPOS*%
%AMOC8*
5,1,8,0,0,1.08239X$1,22.5*%
G01*
%ADD10R,1.602000X0.427000*%
%ADD11C,2.006600*%
%ADD12R,0.827000X1.877000*%
%ADD13R,1.427000X1.627000*%
%ADD14R,1.627000X1.627000*%
%ADD15R,0.927000X1.627000*%
%ADD16R,1.577000X1.127000*%
%ADD17R,0.927000X1.527000*%
%ADD18R,1.127000X1.677000*%
%ADD19R,1.627000X1.427000*%
%ADD20R,1.677000X1.427000*%
%ADD21R,1.327000X1.327000*%
%ADD22R,0.635000X1.447800*%
%ADD23C,0.157409*%
%ADD24R,0.939800X0.381000*%
%ADD25R,1.879600X2.616200*%
%ADD26R,4.027000X1.727000*%
%ADD27R,1.219200X1.294350*%
%ADD28R,5.969000X5.969000*%
%ADD29C,0.584200*%
%ADD30C,0.652000*%


D10*
G36*
X415517Y340103D02*
X426844Y351430D01*
X429863Y348411D01*
X418536Y337084D01*
X415517Y340103D01*
G37*
G36*
X411982Y343639D02*
X423309Y354966D01*
X426328Y351947D01*
X415001Y340620D01*
X411982Y343639D01*
G37*
G36*
X408446Y347174D02*
X419773Y358501D01*
X422792Y355482D01*
X411465Y344155D01*
X408446Y347174D01*
G37*
G36*
X404911Y350710D02*
X416238Y362037D01*
X419257Y359018D01*
X407930Y347691D01*
X404911Y350710D01*
G37*
G36*
X401375Y354245D02*
X412702Y365572D01*
X415721Y362553D01*
X404394Y351226D01*
X401375Y354245D01*
G37*
G36*
X397840Y357781D02*
X409167Y369108D01*
X412186Y366089D01*
X400859Y354762D01*
X397840Y357781D01*
G37*
G36*
X394304Y361316D02*
X405631Y372643D01*
X408650Y369624D01*
X397323Y358297D01*
X394304Y361316D01*
G37*
G36*
X390769Y364852D02*
X402096Y376179D01*
X405115Y373160D01*
X393788Y361833D01*
X390769Y364852D01*
G37*
G36*
X387233Y368388D02*
X398560Y379715D01*
X401579Y376696D01*
X390252Y365369D01*
X387233Y368388D01*
G37*
G36*
X383697Y371923D02*
X395024Y383250D01*
X398043Y380231D01*
X386716Y368904D01*
X383697Y371923D01*
G37*
G36*
X380162Y375459D02*
X391489Y386786D01*
X394508Y383767D01*
X383181Y372440D01*
X380162Y375459D01*
G37*
G36*
X376626Y378994D02*
X387953Y390321D01*
X390972Y387302D01*
X379645Y375975D01*
X376626Y378994D01*
G37*
G36*
X373091Y382530D02*
X384418Y393857D01*
X387437Y390838D01*
X376110Y379511D01*
X373091Y382530D01*
G37*
G36*
X369555Y386065D02*
X380882Y397392D01*
X383901Y394373D01*
X372574Y383046D01*
X369555Y386065D01*
G37*
G36*
X366020Y389601D02*
X377347Y400928D01*
X380366Y397909D01*
X369039Y386582D01*
X366020Y389601D01*
G37*
G36*
X362484Y393136D02*
X373811Y404463D01*
X376830Y401444D01*
X365503Y390117D01*
X362484Y393136D01*
G37*
G36*
X345697Y390117D02*
X334370Y401444D01*
X337389Y404463D01*
X348716Y393136D01*
X345697Y390117D01*
G37*
G36*
X342161Y386582D02*
X330834Y397909D01*
X333853Y400928D01*
X345180Y389601D01*
X342161Y386582D01*
G37*
G36*
X338626Y383046D02*
X327299Y394373D01*
X330318Y397392D01*
X341645Y386065D01*
X338626Y383046D01*
G37*
G36*
X335090Y379511D02*
X323763Y390838D01*
X326782Y393857D01*
X338109Y382530D01*
X335090Y379511D01*
G37*
G36*
X331555Y375975D02*
X320228Y387302D01*
X323247Y390321D01*
X334574Y378994D01*
X331555Y375975D01*
G37*
G36*
X328019Y372440D02*
X316692Y383767D01*
X319711Y386786D01*
X331038Y375459D01*
X328019Y372440D01*
G37*
G36*
X324484Y368904D02*
X313157Y380231D01*
X316176Y383250D01*
X327503Y371923D01*
X324484Y368904D01*
G37*
G36*
X320948Y365369D02*
X309621Y376696D01*
X312640Y379715D01*
X323967Y368388D01*
X320948Y365369D01*
G37*
G36*
X317412Y361833D02*
X306085Y373160D01*
X309104Y376179D01*
X320431Y364852D01*
X317412Y361833D01*
G37*
G36*
X313877Y358297D02*
X302550Y369624D01*
X305569Y372643D01*
X316896Y361316D01*
X313877Y358297D01*
G37*
G36*
X310341Y354762D02*
X299014Y366089D01*
X302033Y369108D01*
X313360Y357781D01*
X310341Y354762D01*
G37*
G36*
X306806Y351226D02*
X295479Y362553D01*
X298498Y365572D01*
X309825Y354245D01*
X306806Y351226D01*
G37*
G36*
X303270Y347691D02*
X291943Y359018D01*
X294962Y362037D01*
X306289Y350710D01*
X303270Y347691D01*
G37*
G36*
X299735Y344155D02*
X288408Y355482D01*
X291427Y358501D01*
X302754Y347174D01*
X299735Y344155D01*
G37*
G36*
X296199Y340620D02*
X284872Y351947D01*
X287891Y354966D01*
X299218Y343639D01*
X296199Y340620D01*
G37*
G36*
X292664Y337084D02*
X281337Y348411D01*
X284356Y351430D01*
X295683Y340103D01*
X292664Y337084D01*
G37*
G36*
X281337Y311989D02*
X292664Y323316D01*
X295683Y320297D01*
X284356Y308970D01*
X281337Y311989D01*
G37*
G36*
X284872Y308453D02*
X296199Y319780D01*
X299218Y316761D01*
X287891Y305434D01*
X284872Y308453D01*
G37*
G36*
X288408Y304918D02*
X299735Y316245D01*
X302754Y313226D01*
X291427Y301899D01*
X288408Y304918D01*
G37*
G36*
X291943Y301382D02*
X303270Y312709D01*
X306289Y309690D01*
X294962Y298363D01*
X291943Y301382D01*
G37*
G36*
X295479Y297847D02*
X306806Y309174D01*
X309825Y306155D01*
X298498Y294828D01*
X295479Y297847D01*
G37*
G36*
X299014Y294311D02*
X310341Y305638D01*
X313360Y302619D01*
X302033Y291292D01*
X299014Y294311D01*
G37*
G36*
X302550Y290776D02*
X313877Y302103D01*
X316896Y299084D01*
X305569Y287757D01*
X302550Y290776D01*
G37*
G36*
X306085Y287240D02*
X317412Y298567D01*
X320431Y295548D01*
X309104Y284221D01*
X306085Y287240D01*
G37*
G36*
X309621Y283704D02*
X320948Y295031D01*
X323967Y292012D01*
X312640Y280685D01*
X309621Y283704D01*
G37*
G36*
X313157Y280169D02*
X324484Y291496D01*
X327503Y288477D01*
X316176Y277150D01*
X313157Y280169D01*
G37*
G36*
X316692Y276633D02*
X328019Y287960D01*
X331038Y284941D01*
X319711Y273614D01*
X316692Y276633D01*
G37*
G36*
X320228Y273098D02*
X331555Y284425D01*
X334574Y281406D01*
X323247Y270079D01*
X320228Y273098D01*
G37*
G36*
X323763Y269562D02*
X335090Y280889D01*
X338109Y277870D01*
X326782Y266543D01*
X323763Y269562D01*
G37*
G36*
X327299Y266027D02*
X338626Y277354D01*
X341645Y274335D01*
X330318Y263008D01*
X327299Y266027D01*
G37*
G36*
X330834Y262491D02*
X342161Y273818D01*
X345180Y270799D01*
X333853Y259472D01*
X330834Y262491D01*
G37*
G36*
X334370Y258956D02*
X345697Y270283D01*
X348716Y267264D01*
X337389Y255937D01*
X334370Y258956D01*
G37*
G36*
X373811Y255937D02*
X362484Y267264D01*
X365503Y270283D01*
X376830Y258956D01*
X373811Y255937D01*
G37*
G36*
X377347Y259472D02*
X366020Y270799D01*
X369039Y273818D01*
X380366Y262491D01*
X377347Y259472D01*
G37*
G36*
X380882Y263008D02*
X369555Y274335D01*
X372574Y277354D01*
X383901Y266027D01*
X380882Y263008D01*
G37*
G36*
X384418Y266543D02*
X373091Y277870D01*
X376110Y280889D01*
X387437Y269562D01*
X384418Y266543D01*
G37*
G36*
X387953Y270079D02*
X376626Y281406D01*
X379645Y284425D01*
X390972Y273098D01*
X387953Y270079D01*
G37*
G36*
X391489Y273614D02*
X380162Y284941D01*
X383181Y287960D01*
X394508Y276633D01*
X391489Y273614D01*
G37*
G36*
X395024Y277150D02*
X383697Y288477D01*
X386716Y291496D01*
X398043Y280169D01*
X395024Y277150D01*
G37*
G36*
X398560Y280685D02*
X387233Y292012D01*
X390252Y295031D01*
X401579Y283704D01*
X398560Y280685D01*
G37*
G36*
X402096Y284221D02*
X390769Y295548D01*
X393788Y298567D01*
X405115Y287240D01*
X402096Y284221D01*
G37*
G36*
X405631Y287757D02*
X394304Y299084D01*
X397323Y302103D01*
X408650Y290776D01*
X405631Y287757D01*
G37*
G36*
X409167Y291292D02*
X397840Y302619D01*
X400859Y305638D01*
X412186Y294311D01*
X409167Y291292D01*
G37*
G36*
X412702Y294828D02*
X401375Y306155D01*
X404394Y309174D01*
X415721Y297847D01*
X412702Y294828D01*
G37*
G36*
X416238Y298363D02*
X404911Y309690D01*
X407930Y312709D01*
X419257Y301382D01*
X416238Y298363D01*
G37*
G36*
X419773Y301899D02*
X408446Y313226D01*
X411465Y316245D01*
X422792Y304918D01*
X419773Y301899D01*
G37*
G36*
X423309Y305434D02*
X411982Y316761D01*
X415001Y319780D01*
X426328Y308453D01*
X423309Y305434D01*
G37*
G36*
X426844Y308970D02*
X415517Y320297D01*
X418536Y323316D01*
X429863Y311989D01*
X426844Y308970D01*
G37*
D11*
X556260Y463550D03*
X530860Y463550D03*
X505460Y463550D03*
X480060Y463550D03*
X454660Y463550D03*
X25400Y342900D03*
X25400Y368300D03*
X25400Y393700D03*
X25400Y419100D03*
X25400Y444500D03*
D12*
X485140Y48260D03*
X474140Y48260D03*
X463140Y48260D03*
X452140Y48260D03*
X441140Y48260D03*
X496140Y48260D03*
X507140Y48260D03*
X518140Y48260D03*
D13*
X429140Y49510D03*
D14*
X542640Y49510D03*
D15*
X426640Y125510D03*
D16*
X429890Y140510D03*
D17*
X546140Y132010D03*
D18*
X543640Y156260D03*
D19*
X546100Y295300D03*
X546100Y314300D03*
X520700Y356210D03*
X520700Y337210D03*
X520700Y295300D03*
X520700Y314300D03*
X495300Y356210D03*
X495300Y337210D03*
X495300Y295300D03*
X495300Y314300D03*
X226060Y360020D03*
X226060Y341020D03*
X226060Y300380D03*
X226060Y319380D03*
X203200Y360020D03*
X203200Y341020D03*
X203200Y300380D03*
X203200Y319380D03*
X180340Y360020D03*
X180340Y341020D03*
X180340Y300380D03*
X180340Y319380D03*
X546100Y356210D03*
X546100Y337210D03*
D20*
X338200Y531770D03*
X258700Y531770D03*
X338200Y486770D03*
X258700Y486770D03*
D11*
X556260Y501650D03*
X530860Y501650D03*
X505460Y501650D03*
X480060Y501650D03*
X454660Y501650D03*
X429260Y501650D03*
X101600Y342900D03*
X101600Y368300D03*
X101600Y393700D03*
X101600Y419100D03*
X101600Y444500D03*
X25400Y203200D03*
X25400Y228600D03*
X25400Y254000D03*
X25400Y279400D03*
X25400Y304800D03*
X101600Y203200D03*
X101600Y228600D03*
X101600Y254000D03*
X101600Y279400D03*
X101600Y304800D03*
X711200Y342900D03*
X711200Y368300D03*
X711200Y393700D03*
X711200Y419100D03*
X711200Y444500D03*
X635000Y342900D03*
X635000Y368300D03*
X635000Y393700D03*
X635000Y419100D03*
X635000Y444500D03*
X711200Y203200D03*
X711200Y228600D03*
X711200Y254000D03*
X711200Y279400D03*
X711200Y304800D03*
X635000Y203200D03*
X635000Y228600D03*
X635000Y254000D03*
X635000Y279400D03*
X635000Y304800D03*
X215900Y533400D03*
X190500Y533400D03*
X165100Y533400D03*
X139700Y533400D03*
X114300Y533400D03*
D21*
X630260Y146050D03*
X609260Y146050D03*
X630260Y127000D03*
X609260Y127000D03*
X630260Y107950D03*
X609260Y107950D03*
X630260Y88900D03*
X609260Y88900D03*
X630260Y69850D03*
X609260Y69850D03*
X630260Y50800D03*
X609260Y50800D03*
X630260Y31750D03*
X609260Y31750D03*
X630260Y12700D03*
X609260Y12700D03*
D19*
X63500Y371500D03*
X63500Y390500D03*
X63500Y422300D03*
X63500Y441300D03*
X139700Y371500D03*
X139700Y390500D03*
X139700Y422300D03*
X139700Y441300D03*
X63500Y231800D03*
X63500Y250800D03*
X63500Y282600D03*
X63500Y301600D03*
X139700Y231800D03*
X139700Y250800D03*
X139700Y282600D03*
X139700Y301600D03*
X673100Y371500D03*
X673100Y390500D03*
X673100Y422300D03*
X673100Y441300D03*
X596900Y371500D03*
X596900Y390500D03*
X596900Y422300D03*
X596900Y441300D03*
X673100Y231800D03*
X673100Y250800D03*
X673100Y282600D03*
X673100Y301600D03*
X596900Y231800D03*
X596900Y250800D03*
X596900Y282600D03*
X596900Y301600D03*
X480060Y415950D03*
X480060Y434950D03*
X454660Y415950D03*
X454660Y434950D03*
D11*
X24130Y114300D03*
X26670Y139700D03*
X24130Y165100D03*
D19*
X350520Y24790D03*
X350520Y43790D03*
D13*
X308000Y44450D03*
X327000Y44450D03*
D22*
X327000Y89154D03*
X317500Y89154D03*
X308000Y89154D03*
X308000Y63246D03*
X327000Y63246D03*
D21*
X328000Y22860D03*
X307000Y22860D03*
D19*
X359410Y88240D03*
X359410Y69240D03*
D23*
X365302Y169398D02*
X370298Y169398D01*
X370298Y166202D01*
X365302Y166202D01*
X365302Y169398D01*
X365302Y167697D02*
X370298Y167697D01*
X370298Y169192D02*
X365302Y169192D01*
X365302Y174398D02*
X370298Y174398D01*
X370298Y171202D01*
X365302Y171202D01*
X365302Y174398D01*
X365302Y172697D02*
X370298Y172697D01*
X370298Y174192D02*
X365302Y174192D01*
X365302Y179398D02*
X370298Y179398D01*
X370298Y176202D01*
X365302Y176202D01*
X365302Y179398D01*
X365302Y177697D02*
X370298Y177697D01*
X370298Y179192D02*
X365302Y179192D01*
X365302Y184398D02*
X370298Y184398D01*
X370298Y181202D01*
X365302Y181202D01*
X365302Y184398D01*
X365302Y182697D02*
X370298Y182697D01*
X370298Y184192D02*
X365302Y184192D01*
X365302Y189398D02*
X370298Y189398D01*
X370298Y186202D01*
X365302Y186202D01*
X365302Y189398D01*
X365302Y187697D02*
X370298Y187697D01*
X370298Y189192D02*
X365302Y189192D01*
X359002Y187502D02*
X359002Y192498D01*
X362198Y192498D01*
X362198Y187502D01*
X359002Y187502D01*
X359002Y188997D02*
X362198Y188997D01*
X362198Y190492D02*
X359002Y190492D01*
X359002Y191987D02*
X362198Y191987D01*
X354002Y192498D02*
X354002Y187502D01*
X354002Y192498D02*
X357198Y192498D01*
X357198Y187502D01*
X354002Y187502D01*
X354002Y188997D02*
X357198Y188997D01*
X357198Y190492D02*
X354002Y190492D01*
X354002Y191987D02*
X357198Y191987D01*
X349002Y192498D02*
X349002Y187502D01*
X349002Y192498D02*
X352198Y192498D01*
X352198Y187502D01*
X349002Y187502D01*
X349002Y188997D02*
X352198Y188997D01*
X352198Y190492D02*
X349002Y190492D01*
X349002Y191987D02*
X352198Y191987D01*
X345898Y186202D02*
X340902Y186202D01*
X340902Y189398D01*
X345898Y189398D01*
X345898Y186202D01*
X345898Y187697D02*
X340902Y187697D01*
X340902Y189192D02*
X345898Y189192D01*
X345898Y181202D02*
X340902Y181202D01*
X340902Y184398D01*
X345898Y184398D01*
X345898Y181202D01*
X345898Y182697D02*
X340902Y182697D01*
X340902Y184192D02*
X345898Y184192D01*
X345898Y176202D02*
X340902Y176202D01*
X340902Y179398D01*
X345898Y179398D01*
X345898Y176202D01*
X345898Y177697D02*
X340902Y177697D01*
X340902Y179192D02*
X345898Y179192D01*
X345898Y171202D02*
X340902Y171202D01*
X340902Y174398D01*
X345898Y174398D01*
X345898Y171202D01*
X345898Y172697D02*
X340902Y172697D01*
X340902Y174192D02*
X345898Y174192D01*
X345898Y166202D02*
X340902Y166202D01*
X340902Y169398D01*
X345898Y169398D01*
X345898Y166202D01*
X345898Y167697D02*
X340902Y167697D01*
X340902Y169192D02*
X345898Y169192D01*
X352198Y168098D02*
X352198Y163102D01*
X349002Y163102D01*
X349002Y168098D01*
X352198Y168098D01*
X352198Y164597D02*
X349002Y164597D01*
X349002Y166092D02*
X352198Y166092D01*
X352198Y167587D02*
X349002Y167587D01*
X357198Y168098D02*
X357198Y163102D01*
X354002Y163102D01*
X354002Y168098D01*
X357198Y168098D01*
X357198Y164597D02*
X354002Y164597D01*
X354002Y166092D02*
X357198Y166092D01*
X357198Y167587D02*
X354002Y167587D01*
X362198Y168098D02*
X362198Y163102D01*
X359002Y163102D01*
X359002Y168098D01*
X362198Y168098D01*
X362198Y164597D02*
X359002Y164597D01*
X359002Y166092D02*
X362198Y166092D01*
X362198Y167587D02*
X359002Y167587D01*
D11*
X429260Y539750D03*
X454660Y539750D03*
X480060Y539750D03*
X505460Y539750D03*
X530860Y539750D03*
X556260Y539750D03*
X387350Y15240D03*
X387350Y40640D03*
X254000Y63500D03*
X254000Y88900D03*
D24*
X205232Y66197D03*
X205232Y71199D03*
X205232Y76200D03*
X205232Y81201D03*
X205232Y86203D03*
X175768Y86203D03*
X175768Y81201D03*
X175768Y76200D03*
X175768Y71199D03*
X175768Y66197D03*
D25*
X190500Y76200D03*
D19*
X224790Y86970D03*
X224790Y67970D03*
D13*
X181000Y16510D03*
X200000Y16510D03*
D19*
X223520Y18440D03*
X223520Y37440D03*
D13*
X200000Y38100D03*
X181000Y38100D03*
D26*
X135890Y62970D03*
X135890Y91970D03*
D27*
G36*
X448892Y314003D02*
X457513Y305382D01*
X448362Y296231D01*
X439741Y304852D01*
X448892Y314003D01*
G37*
G36*
X458418Y323529D02*
X467039Y314908D01*
X457888Y305757D01*
X449267Y314378D01*
X458418Y323529D01*
G37*
D28*
X50800Y508000D03*
X685800Y508000D03*
X50800Y50800D03*
X684530Y53340D03*
D11*
X254000Y152400D03*
X228600Y152400D03*
X203200Y152400D03*
X177800Y152400D03*
X152400Y152400D03*
X127000Y152400D03*
X127000Y15240D03*
X127000Y40640D03*
D29*
X340000Y380000D03*
X335000Y362500D03*
X407500Y72500D03*
X305000Y282500D03*
X362500Y295000D03*
D30*
X673100Y101600D03*
X660400Y114300D03*
X647700Y127000D03*
X660400Y139700D03*
X673100Y152400D03*
X660400Y165100D03*
X647700Y177800D03*
X673100Y177800D03*
X647700Y152400D03*
X673100Y127000D03*
X647700Y101600D03*
X635000Y165100D03*
X622300Y177800D03*
X609600Y165100D03*
X596900Y177800D03*
X419100Y63500D03*
X419100Y88900D03*
X292100Y254000D03*
X304800Y266700D03*
X292100Y279400D03*
X63500Y101600D03*
X76200Y114300D03*
X88900Y127000D03*
X63500Y127000D03*
X88900Y101600D03*
X292100Y215900D03*
X279400Y203200D03*
X289560Y161290D03*
X632460Y504190D03*
X619760Y491490D03*
X607060Y478790D03*
X632460Y478790D03*
X619760Y466090D03*
X594360Y491490D03*
X581660Y478790D03*
D29*
X212500Y285000D03*
X330000Y300000D03*
X485000Y22500D03*
X212500Y10000D03*
X380000Y367500D03*
X250000Y305000D03*
X562500Y312500D03*
X455000Y367500D03*
X442500Y327500D03*
X245000Y310000D03*
X572500Y422500D03*
X407500Y332500D03*
X392500Y357500D03*
X392500Y490000D03*
X460000Y332500D03*
X297500Y330000D03*
X305000Y417500D03*
X392500Y350000D03*
X495000Y475000D03*
X270000Y495000D03*
X302500Y500000D03*
X215000Y312500D03*
X192500Y310000D03*
X160000Y317500D03*
X535000Y302500D03*
X507500Y302500D03*
X480000Y307500D03*
X167500Y407500D03*
X155000Y335000D03*
X42500Y337500D03*
X232500Y262500D03*
X175000Y272500D03*
X182500Y385000D03*
X210000Y190000D03*
X240000Y262500D03*
X215000Y365000D03*
X242500Y320000D03*
X237500Y297500D03*
X192500Y252500D03*
X220000Y330000D03*
X475000Y365000D03*
X175000Y242500D03*
X470000Y242500D03*
X562500Y395000D03*
X480000Y377500D03*
X515000Y437500D03*
X567500Y317500D03*
X567500Y327500D03*
X602500Y327500D03*
X620000Y262500D03*
X567500Y335000D03*
X585000Y332500D03*
X562500Y340000D03*
X562500Y185000D03*
X360000Y197500D03*
X372500Y212500D03*
X580000Y252500D03*
X647500Y215000D03*
X520000Y377500D03*
X147500Y207500D03*
X607500Y292500D03*
X140000Y507500D03*
X562500Y192500D03*
X507500Y167500D03*
X557500Y160000D03*
X492500Y142500D03*
X537500Y247500D03*
X505000Y252500D03*
X502500Y265000D03*
X417500Y265000D03*
X425000Y177500D03*
X517500Y177500D03*
X370000Y280000D03*
X377500Y177500D03*
X527500Y172500D03*
X480000Y270000D03*
X377500Y287500D03*
X475000Y277500D03*
X560000Y117500D03*
X512500Y102500D03*
X580000Y60000D03*
X540000Y37500D03*
X310000Y385000D03*
X325000Y417500D03*
X372500Y367500D03*
X300000Y392500D03*
X345000Y375000D03*
X382500Y507500D03*
X465000Y85000D03*
X450000Y85000D03*
X457500Y85000D03*
X447500Y35000D03*
X440000Y35000D03*
X520000Y35000D03*
X292500Y412500D03*
X260000Y197500D03*
X347500Y72500D03*
X355000Y55000D03*
X350000Y197500D03*
X320000Y62500D03*
X162500Y75000D03*
X167500Y92500D03*
X210000Y95000D03*
X432500Y307500D03*
X430000Y155000D03*
X397500Y320000D03*
X387500Y147500D03*
X325000Y315000D03*
X420000Y297500D03*
X407500Y147500D03*
X397500Y307500D03*
X397500Y132500D03*
X417500Y287500D03*
X412500Y140000D03*
X167500Y85000D03*
X155000Y75000D03*
M02*
