M48
;GenerationSoftware,Autodesk,EAGLE,9.6.2*%
;CreationDate,2021-03-02T01:05:58Z*%
FMAT,2
ICI,OFF
METRIC,TZ,000.000
T3C0.305
T2C1.016
T1C3.000
%
G90
M71
T1
X4064Y39878
X87122Y39878
X4064Y4064
X87122Y4064
T2
X67564Y36195
X70104Y36195
X1524Y24130
X1524Y26670
X1524Y29210
X1524Y31750
X1524Y34290
X67818Y41275
X70358Y41275
X72898Y41275
X75438Y41275
X77978Y41275
X80518Y41275
X8890Y24130
X8890Y26670
X8890Y29210
X8890Y31750
X8890Y34290
X1524Y10160
X1524Y12700
X1524Y15240
X1524Y17780
X1524Y20320
X8890Y10160
X8890Y12700
X8890Y15240
X8890Y17780
X8890Y20320
X90043Y24257
X90043Y26797
X90043Y29337
X90043Y31877
X90043Y34417
X82423Y24257
X82423Y26797
X82423Y29337
X82423Y31877
X82423Y34417
X90043Y10287
X90043Y12827
X90043Y15367
X90043Y17907
X90043Y20447
X82423Y10287
X82423Y12827
X82423Y15367
X82423Y17907
X82423Y20447
X47879Y41402
X45339Y41402
X42799Y41402
X40259Y41402
X37719Y41402
X74403Y23853
X71863Y24107
X69323Y23853
X54356Y41275
X56896Y41275
X59436Y41275
X61976Y41275
X64516Y41275
X38735Y1524
X38735Y4064
X25400Y6350
X25400Y8890
X51816Y41275
X59944Y36195
X62484Y36195
X65024Y36195
X12700Y1524
X12700Y4064
X55626Y14859
X55626Y12319
X55626Y9779
X55626Y7239
X58801Y9271
X58801Y6731
X58801Y4191
X58801Y1651
X60361Y27613
X62901Y27359
X65441Y27613
X69361Y27613
X71901Y27359
X74441Y27613
X60361Y31089
X62901Y30835
X65441Y31089
X69361Y31089
X71901Y30835
X74441Y31089
X60361Y24137
X62901Y23883
X65441Y24137
T3
X46750Y29000
X39750Y29000
X38500Y36500
X78250Y36000
X25500Y17000
X39250Y27750
X49250Y32000
X24750Y17000
X77000Y19250
X68750Y20000
X36000Y34500
X48750Y33000
X20500Y36750
X37750Y43250
X30500Y34500
X35000Y43250
X27750Y39250
X46000Y34000
X47500Y39250
X33000Y34500
X16250Y16500
X19250Y26500
X19000Y17000
X21500Y26250
X19000Y17750
X21000Y28500
X16500Y18250
X16500Y19000
X14750Y26000
X14250Y22000
X18750Y20250
X16500Y21000
X16000Y21500
X10250Y23500
X4500Y22750
X19750Y19250
X74500Y21750
X84250Y22500
X75750Y23000
X82000Y35750
X78250Y30500
X49750Y21000
X79750Y19250
X50500Y9000
X76500Y13000
X80750Y17250
X50000Y17000
X80500Y13000
X84250Y11500
X80000Y13500
X80750Y10250
X75500Y14500
X81000Y15000
X64500Y17500
X64500Y15000
X64250Y12750
X24420Y34390
X50750Y22000
X48750Y21750
X43750Y15000
X57000Y17750
X45250Y14250
X46500Y13750
X47000Y16000
X51750Y13750
X46250Y22750
X53000Y22500
X64500Y8500
X64500Y5250
X64500Y3500
X64500Y1500
X39500Y32250
X62500Y34500
X39000Y36000
X51750Y38750
X43500Y39250
X39500Y35500
X58750Y38250
X18000Y36250
X20250Y37500
X15500Y38500
X15500Y39750
X46250Y23750
X46250Y7250
X16750Y2750
X21250Y5250
X16750Y3500
X16750Y8750
X16750Y8000
X47750Y6250
X50500Y29500
X52750Y31000
X51750Y29250
X34250Y15000
X36250Y14500
X58000Y32500
X68250Y33250
X52500Y28250
X53000Y29750
X48000Y26250
X58500Y31500
X48500Y25750
X48500Y20500
X70000Y20500
X47250Y19750
X63000Y20000
X67250Y29750
X46750Y19250
X60250Y19250
X45500Y27000
X27250Y42250
X44000Y42500
X25750Y40000
X13000Y22500
X29500Y25500
X42000Y30750
X40500Y29250
X41500Y23250
X31750Y10000
X50000Y6750
X40500Y25500
X28750Y37000
X55000Y24750
X30770Y26770
X28230Y26770
X29500Y26770
X30770Y25500
X32040Y25500
X33310Y25500
X32040Y26770
X33310Y26770
X26960Y26770
X28230Y25500
X26960Y25500
X25690Y26770
X25690Y25500
X24420Y26770
X24420Y25500
X30770Y29310
X32040Y29310
X30770Y30580
X29500Y30580
X29500Y29310
X28230Y29310
X28230Y30580
X28230Y31850
X28230Y33120
X26960Y29310
X23150Y35660
X23150Y34390
X24420Y33120
X25690Y31850
X25690Y33120
X9180Y39470
X9180Y38200
X10450Y38200
X10450Y36930
X11720Y36930
X11720Y38200
X11720Y39470
X10450Y39470
X12990Y39470
X12990Y38200
X12990Y36930
X14260Y36930
X14260Y38200
X14260Y39470
X5370Y26770
X6640Y26770
X29500Y19150
X29500Y17880
X64500Y10500
X30770Y20420
X30770Y19150
X33310Y16610
X38390Y14070
X25690Y22960
X25690Y21690
X28230Y12800
X29500Y12800
X28230Y14070
X42200Y6450
X40930Y7720
X42200Y8990
X40930Y10260
X42200Y14070
X81570Y5180
X80300Y6450
X81570Y7720
X80300Y7720
X80300Y8990
X86650Y11530
X86650Y12800
X85380Y11530
X85380Y25500
X86650Y26770
X85380Y26770
X84110Y26770
X80300Y38200
X81570Y38200
X81570Y36930
X80300Y36930
X79030Y38200
X47280Y36930
X44740Y36930
X42200Y36930
X78000Y19250
X83750Y22000
X22000Y36000
X47000Y4000
M30