M48
;GenerationSoftware,Autodesk,EAGLE,9.6.2*%
;CreationDate,2021-02-16T06:29:33Z*%
FMAT,2
ICI,OFF
METRIC,TZ,000.000
T4C0.305
T3C0.350
T2C1.016
T1C3.000
%
G90
M71
T1
X68453Y5334
X5080Y5080
X68580Y50800
X5080Y50800
T2
X71120Y30480
X63500Y20320
X63500Y22860
X63500Y25400
X63500Y27940
X63500Y30480
X19050Y53340
X16510Y53340
X13970Y53340
X11430Y53340
X2413Y11430
X2667Y13970
X2413Y16510
X42926Y53975
X2540Y22860
X45466Y53975
X48006Y53975
X50546Y53975
X53086Y53975
X55626Y53975
X38735Y1524
X25400Y6350
X25400Y8890
X25400Y15240
X22860Y15240
X20320Y15240
X17780Y15240
X15240Y15240
X12700Y15240
X21590Y53340
X12700Y1524
X12700Y4064
X55626Y46355
X53086Y46355
X50546Y46355
X48006Y46355
X45466Y46355
X2540Y34290
X2540Y36830
X2540Y39370
X2540Y41910
X2540Y44450
X55626Y50165
X53086Y50165
X50546Y50165
X48006Y50165
X45466Y50165
X42926Y50165
X10160Y34290
X10160Y36830
X10160Y39370
X10160Y41910
X10160Y44450
X2540Y20320
X38735Y4064
X2540Y25400
X2540Y27940
X2540Y30480
X10160Y20320
X10160Y22860
X10160Y25400
X10160Y27940
X10160Y30480
X71120Y34290
X71120Y36830
X71120Y39370
X71120Y41910
X71120Y44450
X63500Y34290
X63500Y36830
X63500Y39370
X63500Y41910
X63500Y44450
X71120Y20320
X71120Y22860
X71120Y25400
X71120Y27940
T3
X8890Y10160
X63246Y47879
X61976Y46609
X59436Y49149
X58166Y47879
X67310Y10160
X66040Y11430
X64770Y12700
X66040Y13970
X67310Y15240
X66040Y16510
X64770Y17780
X67310Y17780
X64770Y15240
X64770Y10160
X63500Y16510
X62230Y17780
X60960Y16510
X59690Y17780
X41910Y6350
X41910Y8890
X29210Y25400
X30480Y26670
X29210Y27940
X6350Y10160
X7620Y11430
X8890Y12700
X6350Y12700
X29210Y21590
X27940Y20320
X63246Y50419
X28956Y16129
X67310Y12700
X60706Y47879
X61976Y49149
T4
X37750Y28750
X47500Y27750
X34000Y38000
X51250Y10250
X58000Y6000
X54000Y3750
X31000Y38500
X32500Y41750
X37250Y36750
X30000Y39250
X34500Y37500
X38250Y50750
X46500Y8500
X45000Y8500
X45750Y8500
X44750Y3500
X44000Y3500
X52000Y3500
X29250Y41250
X26000Y19750
X34750Y7250
X35500Y5500
X35000Y19750
X32000Y6250
X16250Y7500
X16750Y9250
X21000Y9500
X43250Y30750
X43000Y15500
X39750Y32000
X38750Y14750
X32500Y31500
X42000Y29750
X40750Y14750
X39750Y30750
X39750Y13250
X41750Y28750
X41250Y14000
X16750Y8500
X15500Y7500
X33500Y36250
X40750Y7250
X30500Y28250
X36250Y29500
X21250Y28500
X33000Y30000
X48500Y2250
X21250Y1000
X38000Y36750
X25000Y30500
X56250Y31250
X45500Y36750
X44250Y32750
X24500Y31000
X57250Y42250
X40750Y33250
X39250Y35750
X39250Y49000
X46000Y33250
X29750Y33000
X30500Y41750
X39250Y35000
X49500Y47500
X27000Y49500
X30250Y50000
X21500Y31250
X19250Y31000
X16000Y31750
X53500Y30250
X50750Y30250
X48000Y30750
X16750Y40750
X15500Y33500
X4250Y33750
X23250Y26250
X17500Y27250
X18250Y38500
X21000Y19000
X24000Y26250
X21500Y36500
X24250Y32000
X23750Y29750
X19250Y25250
X22000Y33000
X47500Y36500
X17500Y24250
X47000Y24250
X56250Y39500
X48000Y37750
X51500Y43750
X56750Y31750
X56000Y11750
X56750Y32750
X60250Y32750
X62000Y26250
X56750Y33500
X58500Y33250
X56250Y34000
X56250Y18500
X36000Y19750
X37250Y21250
X58000Y25250
X64750Y21500
X52000Y37750
X14750Y20750
X60750Y29250
X14000Y50750
X56250Y19250
X50750Y16750
X55750Y16000
X49250Y14250
X53750Y24750
X50500Y25250
X50250Y26500
X41750Y26500
X42500Y17750
X51750Y17750
X37000Y28000
X37750Y17750
X52750Y17250
X48000Y27000
M30