G04 EAGLE Gerber RS-274X export*
G75*
%MOMM*%
%FSLAX34Y34*%
%LPD*%
%INTop Copper*%
%IPPOS*%
%AMOC8*
5,1,8,0,0,1.08239X$1,22.5*%
G01*
%ADD10R,1.300000X1.500000*%
%ADD11C,1.879600*%
%ADD12R,1.295400X0.889000*%
%ADD13R,5.842000X5.842000*%
%ADD14C,0.152400*%


D10*
X83160Y77470D03*
X64160Y77470D03*
D11*
X128270Y72390D03*
X125730Y46990D03*
X128270Y21590D03*
X24130Y72390D03*
X21590Y46990D03*
X24130Y21590D03*
D12*
X99771Y15750D03*
X99771Y47750D03*
X52629Y47750D03*
X52629Y15750D03*
D13*
X76200Y130810D03*
D14*
X51816Y47244D02*
X22860Y47244D01*
X51816Y47244D02*
X52629Y47750D01*
X22860Y47244D02*
X21590Y46990D01*
X53340Y47244D02*
X82296Y76200D01*
X83160Y77470D01*
X53340Y47244D02*
X52629Y47750D01*
X99060Y33528D02*
X99060Y16764D01*
X99060Y33528D02*
X89916Y42672D01*
X89916Y53340D01*
X108204Y71628D01*
X128016Y71628D01*
X99060Y16764D02*
X99771Y15750D01*
X128016Y71628D02*
X128270Y72390D01*
X64008Y76200D02*
X27432Y76200D01*
X24384Y73152D01*
X64008Y76200D02*
X64160Y77470D01*
X24384Y73152D02*
X24130Y72390D01*
X65532Y88392D02*
X65532Y118872D01*
X65532Y88392D02*
X65532Y77724D01*
X65532Y118872D02*
X76200Y129540D01*
X65532Y77724D02*
X64160Y77470D01*
X76200Y129540D02*
X76200Y130810D01*
X91440Y88392D02*
X108204Y71628D01*
X91440Y88392D02*
X65532Y88392D01*
X51816Y16764D02*
X28956Y16764D01*
X24130Y21590D01*
X51816Y16764D02*
X52629Y15750D01*
X100584Y47244D02*
X103632Y47244D01*
X128016Y22860D01*
X100584Y47244D02*
X99771Y47750D01*
X128016Y22860D02*
X128270Y21590D01*
M02*
