G04 EAGLE Gerber RS-274X export*
G75*
%MOMM*%
%FSLAX34Y34*%
%LPD*%
%INSolderpaste Top*%
%IPPOS*%
%AMOC8*
5,1,8,0,0,1.08239X$1,22.5*%
G01*
%ADD10R,1.300000X1.500000*%
%ADD11R,1.295400X0.889000*%

G36*
X60465Y42166D02*
X60465Y42166D01*
X60467Y42165D01*
X60510Y42185D01*
X60554Y42203D01*
X60554Y42205D01*
X60556Y42206D01*
X60589Y42291D01*
X60589Y52959D01*
X60588Y52961D01*
X60589Y52963D01*
X60569Y53006D01*
X60551Y53050D01*
X60549Y53050D01*
X60548Y53052D01*
X60463Y53085D01*
X45477Y53085D01*
X45475Y53084D01*
X45473Y53085D01*
X45430Y53065D01*
X45386Y53047D01*
X45386Y53045D01*
X45384Y53044D01*
X45351Y52959D01*
X45351Y42291D01*
X45352Y42289D01*
X45351Y42287D01*
X45371Y42244D01*
X45389Y42200D01*
X45391Y42200D01*
X45392Y42198D01*
X45477Y42165D01*
X60463Y42165D01*
X60465Y42166D01*
G37*
G36*
X106925Y42166D02*
X106925Y42166D01*
X106927Y42165D01*
X106970Y42185D01*
X107014Y42203D01*
X107014Y42205D01*
X107016Y42206D01*
X107049Y42291D01*
X107049Y52959D01*
X107048Y52961D01*
X107049Y52963D01*
X107029Y53006D01*
X107011Y53050D01*
X107009Y53050D01*
X107008Y53052D01*
X106923Y53085D01*
X91937Y53085D01*
X91935Y53084D01*
X91933Y53085D01*
X91890Y53065D01*
X91846Y53047D01*
X91846Y53045D01*
X91844Y53044D01*
X91811Y52959D01*
X91811Y42291D01*
X91812Y42289D01*
X91811Y42287D01*
X91831Y42244D01*
X91849Y42200D01*
X91851Y42200D01*
X91852Y42198D01*
X91937Y42165D01*
X106923Y42165D01*
X106925Y42166D01*
G37*
D10*
X83160Y77470D03*
X64160Y77470D03*
D11*
X99771Y15750D03*
X99771Y47750D03*
X52629Y47750D03*
X52629Y15750D03*
M02*
