G04 EAGLE Gerber RS-274X export*
G75*
%MOMM*%
%FSLAX34Y34*%
%LPD*%
%INTop Copper*%
%IPPOS*%
%AMOC8*
5,1,8,0,0,1.08239X$1,22.5*%
G01*
%ADD10C,1.879600*%
%ADD11C,0.031500*%
%ADD12R,1.300000X1.500000*%
%ADD13R,1.500000X2.000000*%
%ADD14C,0.127000*%
%ADD15C,0.152400*%
%ADD16C,1.500000*%
%ADD17C,0.457200*%


D10*
X123190Y16510D03*
X123190Y41910D03*
X123190Y67310D03*
X123190Y92710D03*
X123190Y118110D03*
D11*
X70573Y58903D02*
X65587Y58903D01*
X70573Y58903D02*
X70573Y55717D01*
X65587Y55717D01*
X65587Y58903D01*
X65587Y56016D02*
X70573Y56016D01*
X70573Y56315D02*
X65587Y56315D01*
X65587Y56614D02*
X70573Y56614D01*
X70573Y56913D02*
X65587Y56913D01*
X65587Y57212D02*
X70573Y57212D01*
X70573Y57511D02*
X65587Y57511D01*
X65587Y57810D02*
X70573Y57810D01*
X70573Y58109D02*
X65587Y58109D01*
X65587Y58408D02*
X70573Y58408D01*
X70573Y58707D02*
X65587Y58707D01*
X65587Y63903D02*
X70573Y63903D01*
X70573Y60717D01*
X65587Y60717D01*
X65587Y63903D01*
X65587Y61016D02*
X70573Y61016D01*
X70573Y61315D02*
X65587Y61315D01*
X65587Y61614D02*
X70573Y61614D01*
X70573Y61913D02*
X65587Y61913D01*
X65587Y62212D02*
X70573Y62212D01*
X70573Y62511D02*
X65587Y62511D01*
X65587Y62810D02*
X70573Y62810D01*
X70573Y63109D02*
X65587Y63109D01*
X65587Y63408D02*
X70573Y63408D01*
X70573Y63707D02*
X65587Y63707D01*
X65587Y68903D02*
X70573Y68903D01*
X70573Y65717D01*
X65587Y65717D01*
X65587Y68903D01*
X65587Y66016D02*
X70573Y66016D01*
X70573Y66315D02*
X65587Y66315D01*
X65587Y66614D02*
X70573Y66614D01*
X70573Y66913D02*
X65587Y66913D01*
X65587Y67212D02*
X70573Y67212D01*
X70573Y67511D02*
X65587Y67511D01*
X65587Y67810D02*
X70573Y67810D01*
X70573Y68109D02*
X65587Y68109D01*
X65587Y68408D02*
X70573Y68408D01*
X70573Y68707D02*
X65587Y68707D01*
X65587Y73903D02*
X70573Y73903D01*
X70573Y70717D01*
X65587Y70717D01*
X65587Y73903D01*
X65587Y71016D02*
X70573Y71016D01*
X70573Y71315D02*
X65587Y71315D01*
X65587Y71614D02*
X70573Y71614D01*
X70573Y71913D02*
X65587Y71913D01*
X65587Y72212D02*
X70573Y72212D01*
X70573Y72511D02*
X65587Y72511D01*
X65587Y72810D02*
X70573Y72810D01*
X70573Y73109D02*
X65587Y73109D01*
X65587Y73408D02*
X70573Y73408D01*
X70573Y73707D02*
X65587Y73707D01*
X65587Y78903D02*
X70573Y78903D01*
X70573Y75717D01*
X65587Y75717D01*
X65587Y78903D01*
X65587Y76016D02*
X70573Y76016D01*
X70573Y76315D02*
X65587Y76315D01*
X65587Y76614D02*
X70573Y76614D01*
X70573Y76913D02*
X65587Y76913D01*
X65587Y77212D02*
X70573Y77212D01*
X70573Y77511D02*
X65587Y77511D01*
X65587Y77810D02*
X70573Y77810D01*
X70573Y78109D02*
X65587Y78109D01*
X65587Y78408D02*
X70573Y78408D01*
X70573Y78707D02*
X65587Y78707D01*
X59287Y77017D02*
X59287Y82003D01*
X62473Y82003D01*
X62473Y77017D01*
X59287Y77017D01*
X59287Y77316D02*
X62473Y77316D01*
X62473Y77615D02*
X59287Y77615D01*
X59287Y77914D02*
X62473Y77914D01*
X62473Y78213D02*
X59287Y78213D01*
X59287Y78512D02*
X62473Y78512D01*
X62473Y78811D02*
X59287Y78811D01*
X59287Y79110D02*
X62473Y79110D01*
X62473Y79409D02*
X59287Y79409D01*
X59287Y79708D02*
X62473Y79708D01*
X62473Y80007D02*
X59287Y80007D01*
X59287Y80306D02*
X62473Y80306D01*
X62473Y80605D02*
X59287Y80605D01*
X59287Y80904D02*
X62473Y80904D01*
X62473Y81203D02*
X59287Y81203D01*
X59287Y81502D02*
X62473Y81502D01*
X62473Y81801D02*
X59287Y81801D01*
X54287Y82003D02*
X54287Y77017D01*
X54287Y82003D02*
X57473Y82003D01*
X57473Y77017D01*
X54287Y77017D01*
X54287Y77316D02*
X57473Y77316D01*
X57473Y77615D02*
X54287Y77615D01*
X54287Y77914D02*
X57473Y77914D01*
X57473Y78213D02*
X54287Y78213D01*
X54287Y78512D02*
X57473Y78512D01*
X57473Y78811D02*
X54287Y78811D01*
X54287Y79110D02*
X57473Y79110D01*
X57473Y79409D02*
X54287Y79409D01*
X54287Y79708D02*
X57473Y79708D01*
X57473Y80007D02*
X54287Y80007D01*
X54287Y80306D02*
X57473Y80306D01*
X57473Y80605D02*
X54287Y80605D01*
X54287Y80904D02*
X57473Y80904D01*
X57473Y81203D02*
X54287Y81203D01*
X54287Y81502D02*
X57473Y81502D01*
X57473Y81801D02*
X54287Y81801D01*
X49287Y82003D02*
X49287Y77017D01*
X49287Y82003D02*
X52473Y82003D01*
X52473Y77017D01*
X49287Y77017D01*
X49287Y77316D02*
X52473Y77316D01*
X52473Y77615D02*
X49287Y77615D01*
X49287Y77914D02*
X52473Y77914D01*
X52473Y78213D02*
X49287Y78213D01*
X49287Y78512D02*
X52473Y78512D01*
X52473Y78811D02*
X49287Y78811D01*
X49287Y79110D02*
X52473Y79110D01*
X52473Y79409D02*
X49287Y79409D01*
X49287Y79708D02*
X52473Y79708D01*
X52473Y80007D02*
X49287Y80007D01*
X49287Y80306D02*
X52473Y80306D01*
X52473Y80605D02*
X49287Y80605D01*
X49287Y80904D02*
X52473Y80904D01*
X52473Y81203D02*
X49287Y81203D01*
X49287Y81502D02*
X52473Y81502D01*
X52473Y81801D02*
X49287Y81801D01*
X46173Y75717D02*
X41187Y75717D01*
X41187Y78903D01*
X46173Y78903D01*
X46173Y75717D01*
X46173Y76016D02*
X41187Y76016D01*
X41187Y76315D02*
X46173Y76315D01*
X46173Y76614D02*
X41187Y76614D01*
X41187Y76913D02*
X46173Y76913D01*
X46173Y77212D02*
X41187Y77212D01*
X41187Y77511D02*
X46173Y77511D01*
X46173Y77810D02*
X41187Y77810D01*
X41187Y78109D02*
X46173Y78109D01*
X46173Y78408D02*
X41187Y78408D01*
X41187Y78707D02*
X46173Y78707D01*
X46173Y70717D02*
X41187Y70717D01*
X41187Y73903D01*
X46173Y73903D01*
X46173Y70717D01*
X46173Y71016D02*
X41187Y71016D01*
X41187Y71315D02*
X46173Y71315D01*
X46173Y71614D02*
X41187Y71614D01*
X41187Y71913D02*
X46173Y71913D01*
X46173Y72212D02*
X41187Y72212D01*
X41187Y72511D02*
X46173Y72511D01*
X46173Y72810D02*
X41187Y72810D01*
X41187Y73109D02*
X46173Y73109D01*
X46173Y73408D02*
X41187Y73408D01*
X41187Y73707D02*
X46173Y73707D01*
X46173Y65717D02*
X41187Y65717D01*
X41187Y68903D01*
X46173Y68903D01*
X46173Y65717D01*
X46173Y66016D02*
X41187Y66016D01*
X41187Y66315D02*
X46173Y66315D01*
X46173Y66614D02*
X41187Y66614D01*
X41187Y66913D02*
X46173Y66913D01*
X46173Y67212D02*
X41187Y67212D01*
X41187Y67511D02*
X46173Y67511D01*
X46173Y67810D02*
X41187Y67810D01*
X41187Y68109D02*
X46173Y68109D01*
X46173Y68408D02*
X41187Y68408D01*
X41187Y68707D02*
X46173Y68707D01*
X46173Y60717D02*
X41187Y60717D01*
X41187Y63903D01*
X46173Y63903D01*
X46173Y60717D01*
X46173Y61016D02*
X41187Y61016D01*
X41187Y61315D02*
X46173Y61315D01*
X46173Y61614D02*
X41187Y61614D01*
X41187Y61913D02*
X46173Y61913D01*
X46173Y62212D02*
X41187Y62212D01*
X41187Y62511D02*
X46173Y62511D01*
X46173Y62810D02*
X41187Y62810D01*
X41187Y63109D02*
X46173Y63109D01*
X46173Y63408D02*
X41187Y63408D01*
X41187Y63707D02*
X46173Y63707D01*
X46173Y55717D02*
X41187Y55717D01*
X41187Y58903D01*
X46173Y58903D01*
X46173Y55717D01*
X46173Y56016D02*
X41187Y56016D01*
X41187Y56315D02*
X46173Y56315D01*
X46173Y56614D02*
X41187Y56614D01*
X41187Y56913D02*
X46173Y56913D01*
X46173Y57212D02*
X41187Y57212D01*
X41187Y57511D02*
X46173Y57511D01*
X46173Y57810D02*
X41187Y57810D01*
X41187Y58109D02*
X46173Y58109D01*
X46173Y58408D02*
X41187Y58408D01*
X41187Y58707D02*
X46173Y58707D01*
X52473Y57603D02*
X52473Y52617D01*
X49287Y52617D01*
X49287Y57603D01*
X52473Y57603D01*
X52473Y52916D02*
X49287Y52916D01*
X49287Y53215D02*
X52473Y53215D01*
X52473Y53514D02*
X49287Y53514D01*
X49287Y53813D02*
X52473Y53813D01*
X52473Y54112D02*
X49287Y54112D01*
X49287Y54411D02*
X52473Y54411D01*
X52473Y54710D02*
X49287Y54710D01*
X49287Y55009D02*
X52473Y55009D01*
X52473Y55308D02*
X49287Y55308D01*
X49287Y55607D02*
X52473Y55607D01*
X52473Y55906D02*
X49287Y55906D01*
X49287Y56205D02*
X52473Y56205D01*
X52473Y56504D02*
X49287Y56504D01*
X49287Y56803D02*
X52473Y56803D01*
X52473Y57102D02*
X49287Y57102D01*
X49287Y57401D02*
X52473Y57401D01*
X57473Y57603D02*
X57473Y52617D01*
X54287Y52617D01*
X54287Y57603D01*
X57473Y57603D01*
X57473Y52916D02*
X54287Y52916D01*
X54287Y53215D02*
X57473Y53215D01*
X57473Y53514D02*
X54287Y53514D01*
X54287Y53813D02*
X57473Y53813D01*
X57473Y54112D02*
X54287Y54112D01*
X54287Y54411D02*
X57473Y54411D01*
X57473Y54710D02*
X54287Y54710D01*
X54287Y55009D02*
X57473Y55009D01*
X57473Y55308D02*
X54287Y55308D01*
X54287Y55607D02*
X57473Y55607D01*
X57473Y55906D02*
X54287Y55906D01*
X54287Y56205D02*
X57473Y56205D01*
X57473Y56504D02*
X54287Y56504D01*
X54287Y56803D02*
X57473Y56803D01*
X57473Y57102D02*
X54287Y57102D01*
X54287Y57401D02*
X57473Y57401D01*
X62473Y57603D02*
X62473Y52617D01*
X59287Y52617D01*
X59287Y57603D01*
X62473Y57603D01*
X62473Y52916D02*
X59287Y52916D01*
X59287Y53215D02*
X62473Y53215D01*
X62473Y53514D02*
X59287Y53514D01*
X59287Y53813D02*
X62473Y53813D01*
X62473Y54112D02*
X59287Y54112D01*
X59287Y54411D02*
X62473Y54411D01*
X62473Y54710D02*
X59287Y54710D01*
X59287Y55009D02*
X62473Y55009D01*
X62473Y55308D02*
X59287Y55308D01*
X59287Y55607D02*
X62473Y55607D01*
X62473Y55906D02*
X59287Y55906D01*
X59287Y56205D02*
X62473Y56205D01*
X62473Y56504D02*
X59287Y56504D01*
X59287Y56803D02*
X62473Y56803D01*
X62473Y57102D02*
X59287Y57102D01*
X59287Y57401D02*
X62473Y57401D01*
D12*
X43790Y36830D03*
X24790Y36830D03*
D13*
X96280Y36830D03*
X66280Y36830D03*
D14*
X43750Y57500D02*
X43750Y61250D01*
X43750Y57500D02*
X43680Y57310D01*
X43750Y61250D02*
X43680Y62310D01*
X42500Y72500D02*
X35000Y72500D01*
X25000Y62500D01*
X25000Y57500D02*
X25000Y37500D01*
X25000Y57500D02*
X25000Y62500D01*
X42500Y72500D02*
X43680Y72310D01*
X25000Y37500D02*
X24790Y36830D01*
X25000Y57500D02*
X42500Y57500D01*
X43680Y57310D01*
X61250Y55000D02*
X61250Y42500D01*
X66250Y37500D01*
X61250Y55000D02*
X60880Y55110D01*
X66250Y37500D02*
X66280Y36830D01*
X67500Y76250D02*
X65000Y76250D01*
X61250Y72500D01*
X61250Y62500D02*
X61250Y56250D01*
X61250Y62500D02*
X61250Y72500D01*
X67500Y76250D02*
X68080Y77310D01*
X61250Y56250D02*
X60880Y55110D01*
X61250Y62500D02*
X43750Y62500D01*
X43680Y62310D01*
X27500Y36250D02*
X25000Y36250D01*
X27500Y36250D02*
X56250Y7500D01*
X88750Y7500D01*
X122500Y41250D01*
X25000Y36250D02*
X24790Y36830D01*
X122500Y41250D02*
X123190Y41910D01*
D15*
X80010Y45380D02*
X68080Y57310D01*
X80010Y45380D02*
X80010Y17780D01*
D16*
X80010Y17780D03*
D15*
X96280Y21350D02*
X96280Y36830D01*
X92710Y17780D02*
X80010Y17780D01*
X92710Y17780D02*
X96280Y21350D01*
D14*
X55000Y56250D02*
X51250Y56250D01*
X50880Y55110D01*
X55000Y56250D02*
X55880Y55110D01*
X50000Y55000D02*
X50000Y42500D01*
X45000Y37500D01*
X50000Y55000D02*
X50880Y55110D01*
X45000Y37500D02*
X43790Y36830D01*
X45000Y36250D02*
X57500Y23750D01*
X80000Y23750D01*
X45000Y36250D02*
X43790Y36830D01*
X80000Y23750D02*
X80010Y17780D01*
X68750Y72500D02*
X111250Y72500D01*
X120000Y81250D01*
X128750Y81250D01*
X135000Y87500D01*
X135000Y106250D01*
X123750Y117500D01*
X68750Y72500D02*
X68080Y72310D01*
X123190Y118110D02*
X123750Y117500D01*
X63750Y80000D02*
X61250Y80000D01*
X63750Y80000D02*
X76250Y92500D01*
X122500Y92500D01*
X61250Y80000D02*
X60880Y79510D01*
X122500Y92500D02*
X123190Y92710D01*
X42500Y67500D02*
X36250Y67500D01*
X42500Y67500D02*
X43680Y67310D01*
D17*
X36250Y67500D03*
D14*
X55000Y80000D02*
X55000Y86250D01*
X55000Y80000D02*
X55880Y79510D01*
D17*
X55000Y86250D03*
D15*
X43680Y77310D02*
X43680Y106708D01*
X24130Y126258D01*
D16*
X24130Y126258D03*
D14*
X51250Y78750D02*
X51250Y67500D01*
X51250Y78750D02*
X50880Y79510D01*
D17*
X51250Y67500D03*
M02*
