G04 EAGLE Gerber RS-274X export*
G75*
%MOMM*%
%FSLAX34Y34*%
%LPD*%
%INBottom Copper*%
%IPPOS*%
%AMOC8*
5,1,8,0,0,1.08239X$1,22.5*%
G01*
%ADD10C,1.879600*%
%ADD11R,1.300000X1.500000*%
%ADD12R,1.500000X1.300000*%
%ADD13C,0.127000*%
%ADD14C,1.500000*%
%ADD15C,0.457200*%


D10*
X123190Y16510D03*
X123190Y41910D03*
X123190Y67310D03*
X123190Y92710D03*
X123190Y118110D03*
D11*
X76860Y92710D03*
X95860Y92710D03*
X76860Y118110D03*
X95860Y118110D03*
D12*
X24130Y97130D03*
X24130Y78130D03*
X24130Y37490D03*
X24130Y56490D03*
D11*
X76860Y67310D03*
X95860Y67310D03*
X57810Y41910D03*
X76810Y41910D03*
D13*
X32500Y28750D02*
X25000Y36250D01*
X32500Y28750D02*
X110000Y28750D01*
X122500Y41250D01*
X25000Y36250D02*
X24130Y37490D01*
X122500Y41250D02*
X123190Y41910D01*
D14*
X80010Y17780D03*
D13*
X77500Y42500D02*
X77500Y66250D01*
X77500Y42500D02*
X76810Y41910D01*
X77500Y66250D02*
X76860Y67310D01*
X77500Y93750D02*
X77500Y117500D01*
X77500Y93750D02*
X76860Y92710D01*
X77500Y117500D02*
X76860Y118110D01*
X27500Y93750D02*
X25000Y96250D01*
X27500Y93750D02*
X76250Y93750D01*
X25000Y96250D02*
X24130Y97130D01*
X76250Y93750D02*
X76860Y92710D01*
X77500Y92500D02*
X77500Y67500D01*
X77500Y92500D02*
X76860Y92710D01*
X81250Y17500D02*
X122500Y17500D01*
X81250Y17500D02*
X80010Y17780D01*
X122500Y17500D02*
X123190Y16510D01*
X77500Y67500D02*
X88750Y78750D01*
X128750Y78750D01*
X135000Y72500D01*
X135000Y17500D01*
X123750Y17500D01*
X77500Y67500D02*
X76860Y67310D01*
X123750Y17500D02*
X123190Y16510D01*
X122500Y118750D02*
X96250Y118750D01*
X95860Y118110D01*
X122500Y118750D02*
X123190Y118110D01*
X122500Y93750D02*
X96250Y93750D01*
X95860Y92710D01*
X122500Y93750D02*
X123190Y92710D01*
X36250Y67500D02*
X36250Y32500D01*
X88750Y32500D01*
X110000Y53750D02*
X122500Y66250D01*
X110000Y53750D02*
X88750Y32500D01*
X122500Y66250D02*
X123190Y67310D01*
X108750Y53750D02*
X96250Y66250D01*
X108750Y53750D02*
X110000Y53750D01*
X96250Y66250D02*
X95860Y67310D01*
D15*
X36250Y67500D03*
D13*
X47500Y78750D02*
X55000Y86250D01*
X47500Y78750D02*
X25000Y78750D01*
X24130Y78130D01*
X25000Y77500D02*
X25000Y57500D01*
X24130Y56490D01*
X25000Y77500D02*
X24130Y78130D01*
D15*
X55000Y86250D03*
D14*
X24130Y126258D03*
D13*
X51250Y67500D02*
X51250Y42500D01*
X57500Y42500D01*
X57810Y41910D01*
D15*
X51250Y67500D03*
M02*
