G04 EAGLE Gerber RS-274X export*
G75*
%MOMM*%
%FSLAX34Y34*%
%LPD*%
%INSilkscreen Bottom*%
%IPPOS*%
%AMOC8*
5,1,8,0,0,1.08239X$1,22.5*%
G01*
%ADD10C,0.152400*%
%ADD11C,0.203200*%
%ADD12C,0.101600*%


D10*
X109220Y158750D02*
X38100Y158750D01*
X38100Y87630D01*
X109220Y87630D01*
X109220Y158750D01*
D11*
X57660Y123190D02*
X57665Y123583D01*
X57679Y123975D01*
X57703Y124367D01*
X57737Y124758D01*
X57780Y125149D01*
X57833Y125538D01*
X57896Y125925D01*
X57967Y126311D01*
X58049Y126696D01*
X58139Y127078D01*
X58240Y127457D01*
X58349Y127835D01*
X58468Y128209D01*
X58595Y128580D01*
X58732Y128948D01*
X58878Y129313D01*
X59033Y129674D01*
X59196Y130031D01*
X59368Y130384D01*
X59549Y130732D01*
X59739Y131076D01*
X59936Y131416D01*
X60142Y131750D01*
X60356Y132079D01*
X60579Y132403D01*
X60809Y132721D01*
X61046Y133034D01*
X61292Y133340D01*
X61545Y133641D01*
X61805Y133935D01*
X62072Y134223D01*
X62346Y134504D01*
X62627Y134778D01*
X62915Y135045D01*
X63209Y135305D01*
X63510Y135558D01*
X63816Y135804D01*
X64129Y136041D01*
X64447Y136271D01*
X64771Y136494D01*
X65100Y136708D01*
X65434Y136914D01*
X65774Y137111D01*
X66118Y137301D01*
X66466Y137482D01*
X66819Y137654D01*
X67176Y137817D01*
X67537Y137972D01*
X67902Y138118D01*
X68270Y138255D01*
X68641Y138382D01*
X69015Y138501D01*
X69393Y138610D01*
X69772Y138711D01*
X70154Y138801D01*
X70539Y138883D01*
X70925Y138954D01*
X71312Y139017D01*
X71701Y139070D01*
X72092Y139113D01*
X72483Y139147D01*
X72875Y139171D01*
X73267Y139185D01*
X73660Y139190D01*
X74053Y139185D01*
X74445Y139171D01*
X74837Y139147D01*
X75228Y139113D01*
X75619Y139070D01*
X76008Y139017D01*
X76395Y138954D01*
X76781Y138883D01*
X77166Y138801D01*
X77548Y138711D01*
X77927Y138610D01*
X78305Y138501D01*
X78679Y138382D01*
X79050Y138255D01*
X79418Y138118D01*
X79783Y137972D01*
X80144Y137817D01*
X80501Y137654D01*
X80854Y137482D01*
X81202Y137301D01*
X81546Y137111D01*
X81886Y136914D01*
X82220Y136708D01*
X82549Y136494D01*
X82873Y136271D01*
X83191Y136041D01*
X83504Y135804D01*
X83810Y135558D01*
X84111Y135305D01*
X84405Y135045D01*
X84693Y134778D01*
X84974Y134504D01*
X85248Y134223D01*
X85515Y133935D01*
X85775Y133641D01*
X86028Y133340D01*
X86274Y133034D01*
X86511Y132721D01*
X86741Y132403D01*
X86964Y132079D01*
X87178Y131750D01*
X87384Y131416D01*
X87581Y131076D01*
X87771Y130732D01*
X87952Y130384D01*
X88124Y130031D01*
X88287Y129674D01*
X88442Y129313D01*
X88588Y128948D01*
X88725Y128580D01*
X88852Y128209D01*
X88971Y127835D01*
X89080Y127457D01*
X89181Y127078D01*
X89271Y126696D01*
X89353Y126311D01*
X89424Y125925D01*
X89487Y125538D01*
X89540Y125149D01*
X89583Y124758D01*
X89617Y124367D01*
X89641Y123975D01*
X89655Y123583D01*
X89660Y123190D01*
X89655Y122797D01*
X89641Y122405D01*
X89617Y122013D01*
X89583Y121622D01*
X89540Y121231D01*
X89487Y120842D01*
X89424Y120455D01*
X89353Y120069D01*
X89271Y119684D01*
X89181Y119302D01*
X89080Y118923D01*
X88971Y118545D01*
X88852Y118171D01*
X88725Y117800D01*
X88588Y117432D01*
X88442Y117067D01*
X88287Y116706D01*
X88124Y116349D01*
X87952Y115996D01*
X87771Y115648D01*
X87581Y115304D01*
X87384Y114964D01*
X87178Y114630D01*
X86964Y114301D01*
X86741Y113977D01*
X86511Y113659D01*
X86274Y113346D01*
X86028Y113040D01*
X85775Y112739D01*
X85515Y112445D01*
X85248Y112157D01*
X84974Y111876D01*
X84693Y111602D01*
X84405Y111335D01*
X84111Y111075D01*
X83810Y110822D01*
X83504Y110576D01*
X83191Y110339D01*
X82873Y110109D01*
X82549Y109886D01*
X82220Y109672D01*
X81886Y109466D01*
X81546Y109269D01*
X81202Y109079D01*
X80854Y108898D01*
X80501Y108726D01*
X80144Y108563D01*
X79783Y108408D01*
X79418Y108262D01*
X79050Y108125D01*
X78679Y107998D01*
X78305Y107879D01*
X77927Y107770D01*
X77548Y107669D01*
X77166Y107579D01*
X76781Y107497D01*
X76395Y107426D01*
X76008Y107363D01*
X75619Y107310D01*
X75228Y107267D01*
X74837Y107233D01*
X74445Y107209D01*
X74053Y107195D01*
X73660Y107190D01*
X73267Y107195D01*
X72875Y107209D01*
X72483Y107233D01*
X72092Y107267D01*
X71701Y107310D01*
X71312Y107363D01*
X70925Y107426D01*
X70539Y107497D01*
X70154Y107579D01*
X69772Y107669D01*
X69393Y107770D01*
X69015Y107879D01*
X68641Y107998D01*
X68270Y108125D01*
X67902Y108262D01*
X67537Y108408D01*
X67176Y108563D01*
X66819Y108726D01*
X66466Y108898D01*
X66118Y109079D01*
X65774Y109269D01*
X65434Y109466D01*
X65100Y109672D01*
X64771Y109886D01*
X64447Y110109D01*
X64129Y110339D01*
X63816Y110576D01*
X63510Y110822D01*
X63209Y111075D01*
X62915Y111335D01*
X62627Y111602D01*
X62346Y111876D01*
X62072Y112157D01*
X61805Y112445D01*
X61545Y112739D01*
X61292Y113040D01*
X61046Y113346D01*
X60809Y113659D01*
X60579Y113977D01*
X60356Y114301D01*
X60142Y114630D01*
X59936Y114964D01*
X59739Y115304D01*
X59549Y115648D01*
X59368Y115996D01*
X59196Y116349D01*
X59033Y116706D01*
X58878Y117067D01*
X58732Y117432D01*
X58595Y117800D01*
X58468Y118171D01*
X58349Y118545D01*
X58240Y118923D01*
X58139Y119302D01*
X58049Y119684D01*
X57967Y120069D01*
X57896Y120455D01*
X57833Y120842D01*
X57780Y121231D01*
X57737Y121622D01*
X57703Y122013D01*
X57679Y122405D01*
X57665Y122797D01*
X57660Y123190D01*
D12*
X99822Y22352D02*
X99822Y10668D01*
X99822Y22352D02*
X96576Y22352D01*
X96463Y22350D01*
X96350Y22344D01*
X96237Y22334D01*
X96124Y22320D01*
X96012Y22303D01*
X95901Y22281D01*
X95791Y22256D01*
X95681Y22226D01*
X95573Y22193D01*
X95466Y22156D01*
X95360Y22116D01*
X95256Y22071D01*
X95153Y22023D01*
X95052Y21972D01*
X94953Y21917D01*
X94856Y21859D01*
X94761Y21797D01*
X94668Y21732D01*
X94578Y21664D01*
X94490Y21593D01*
X94404Y21518D01*
X94321Y21441D01*
X94241Y21361D01*
X94164Y21278D01*
X94089Y21192D01*
X94018Y21104D01*
X93950Y21014D01*
X93885Y20921D01*
X93823Y20826D01*
X93765Y20729D01*
X93710Y20630D01*
X93659Y20529D01*
X93611Y20426D01*
X93566Y20322D01*
X93526Y20216D01*
X93489Y20109D01*
X93456Y20001D01*
X93426Y19891D01*
X93401Y19781D01*
X93379Y19670D01*
X93362Y19558D01*
X93348Y19445D01*
X93338Y19332D01*
X93332Y19219D01*
X93330Y19106D01*
X93332Y18993D01*
X93338Y18880D01*
X93348Y18767D01*
X93362Y18654D01*
X93379Y18542D01*
X93401Y18431D01*
X93426Y18321D01*
X93456Y18211D01*
X93489Y18103D01*
X93526Y17996D01*
X93566Y17890D01*
X93611Y17786D01*
X93659Y17683D01*
X93710Y17582D01*
X93765Y17483D01*
X93823Y17386D01*
X93885Y17291D01*
X93950Y17198D01*
X94018Y17108D01*
X94089Y17020D01*
X94164Y16934D01*
X94241Y16851D01*
X94321Y16771D01*
X94404Y16694D01*
X94490Y16619D01*
X94578Y16548D01*
X94668Y16480D01*
X94761Y16415D01*
X94856Y16353D01*
X94953Y16295D01*
X95052Y16240D01*
X95153Y16189D01*
X95256Y16141D01*
X95360Y16096D01*
X95466Y16056D01*
X95573Y16019D01*
X95681Y15986D01*
X95791Y15956D01*
X95901Y15931D01*
X96012Y15909D01*
X96124Y15892D01*
X96237Y15878D01*
X96350Y15868D01*
X96463Y15862D01*
X96576Y15860D01*
X96576Y15861D02*
X99822Y15861D01*
X95927Y15861D02*
X93331Y10668D01*
X88466Y19756D02*
X85220Y22352D01*
X85220Y10668D01*
X81975Y10668D02*
X88466Y10668D01*
X99822Y37338D02*
X99822Y49022D01*
X96576Y49022D01*
X96463Y49020D01*
X96350Y49014D01*
X96237Y49004D01*
X96124Y48990D01*
X96012Y48973D01*
X95901Y48951D01*
X95791Y48926D01*
X95681Y48896D01*
X95573Y48863D01*
X95466Y48826D01*
X95360Y48786D01*
X95256Y48741D01*
X95153Y48693D01*
X95052Y48642D01*
X94953Y48587D01*
X94856Y48529D01*
X94761Y48467D01*
X94668Y48402D01*
X94578Y48334D01*
X94490Y48263D01*
X94404Y48188D01*
X94321Y48111D01*
X94241Y48031D01*
X94164Y47948D01*
X94089Y47862D01*
X94018Y47774D01*
X93950Y47684D01*
X93885Y47591D01*
X93823Y47496D01*
X93765Y47399D01*
X93710Y47300D01*
X93659Y47199D01*
X93611Y47096D01*
X93566Y46992D01*
X93526Y46886D01*
X93489Y46779D01*
X93456Y46671D01*
X93426Y46561D01*
X93401Y46451D01*
X93379Y46340D01*
X93362Y46228D01*
X93348Y46115D01*
X93338Y46002D01*
X93332Y45889D01*
X93330Y45776D01*
X93332Y45663D01*
X93338Y45550D01*
X93348Y45437D01*
X93362Y45324D01*
X93379Y45212D01*
X93401Y45101D01*
X93426Y44991D01*
X93456Y44881D01*
X93489Y44773D01*
X93526Y44666D01*
X93566Y44560D01*
X93611Y44456D01*
X93659Y44353D01*
X93710Y44252D01*
X93765Y44153D01*
X93823Y44056D01*
X93885Y43961D01*
X93950Y43868D01*
X94018Y43778D01*
X94089Y43690D01*
X94164Y43604D01*
X94241Y43521D01*
X94321Y43441D01*
X94404Y43364D01*
X94490Y43289D01*
X94578Y43218D01*
X94668Y43150D01*
X94761Y43085D01*
X94856Y43023D01*
X94953Y42965D01*
X95052Y42910D01*
X95153Y42859D01*
X95256Y42811D01*
X95360Y42766D01*
X95466Y42726D01*
X95573Y42689D01*
X95681Y42656D01*
X95791Y42626D01*
X95901Y42601D01*
X96012Y42579D01*
X96124Y42562D01*
X96237Y42548D01*
X96350Y42538D01*
X96463Y42532D01*
X96576Y42530D01*
X96576Y42531D02*
X99822Y42531D01*
X95927Y42531D02*
X93331Y37338D01*
X81975Y46101D02*
X81977Y46208D01*
X81983Y46314D01*
X81993Y46420D01*
X82006Y46526D01*
X82024Y46632D01*
X82045Y46736D01*
X82070Y46840D01*
X82099Y46943D01*
X82131Y47044D01*
X82168Y47144D01*
X82208Y47243D01*
X82251Y47341D01*
X82298Y47437D01*
X82349Y47531D01*
X82403Y47623D01*
X82460Y47713D01*
X82520Y47801D01*
X82584Y47886D01*
X82651Y47969D01*
X82721Y48050D01*
X82793Y48128D01*
X82869Y48204D01*
X82947Y48276D01*
X83028Y48346D01*
X83111Y48413D01*
X83196Y48477D01*
X83284Y48537D01*
X83374Y48594D01*
X83466Y48648D01*
X83560Y48699D01*
X83656Y48746D01*
X83754Y48789D01*
X83853Y48829D01*
X83953Y48866D01*
X84054Y48898D01*
X84157Y48927D01*
X84261Y48952D01*
X84365Y48973D01*
X84471Y48991D01*
X84577Y49004D01*
X84683Y49014D01*
X84789Y49020D01*
X84896Y49022D01*
X85017Y49020D01*
X85138Y49014D01*
X85258Y49004D01*
X85379Y48991D01*
X85498Y48973D01*
X85618Y48952D01*
X85736Y48927D01*
X85853Y48898D01*
X85970Y48865D01*
X86085Y48829D01*
X86199Y48788D01*
X86312Y48745D01*
X86424Y48697D01*
X86533Y48646D01*
X86641Y48591D01*
X86748Y48533D01*
X86852Y48472D01*
X86954Y48407D01*
X87054Y48339D01*
X87152Y48268D01*
X87248Y48194D01*
X87341Y48117D01*
X87431Y48036D01*
X87519Y47953D01*
X87604Y47867D01*
X87687Y47778D01*
X87766Y47687D01*
X87843Y47593D01*
X87916Y47497D01*
X87986Y47399D01*
X88053Y47298D01*
X88117Y47195D01*
X88178Y47090D01*
X88235Y46983D01*
X88288Y46875D01*
X88338Y46765D01*
X88384Y46653D01*
X88427Y46540D01*
X88466Y46425D01*
X82949Y43829D02*
X82870Y43907D01*
X82794Y43987D01*
X82721Y44070D01*
X82651Y44156D01*
X82584Y44243D01*
X82520Y44334D01*
X82460Y44426D01*
X82402Y44520D01*
X82348Y44617D01*
X82298Y44715D01*
X82251Y44815D01*
X82207Y44916D01*
X82167Y45019D01*
X82131Y45124D01*
X82099Y45229D01*
X82070Y45336D01*
X82045Y45443D01*
X82023Y45552D01*
X82006Y45661D01*
X81992Y45770D01*
X81983Y45880D01*
X81977Y45991D01*
X81975Y46101D01*
X82948Y43829D02*
X88466Y37338D01*
X81975Y37338D01*
X99822Y64008D02*
X99822Y75692D01*
X96576Y75692D01*
X96463Y75690D01*
X96350Y75684D01*
X96237Y75674D01*
X96124Y75660D01*
X96012Y75643D01*
X95901Y75621D01*
X95791Y75596D01*
X95681Y75566D01*
X95573Y75533D01*
X95466Y75496D01*
X95360Y75456D01*
X95256Y75411D01*
X95153Y75363D01*
X95052Y75312D01*
X94953Y75257D01*
X94856Y75199D01*
X94761Y75137D01*
X94668Y75072D01*
X94578Y75004D01*
X94490Y74933D01*
X94404Y74858D01*
X94321Y74781D01*
X94241Y74701D01*
X94164Y74618D01*
X94089Y74532D01*
X94018Y74444D01*
X93950Y74354D01*
X93885Y74261D01*
X93823Y74166D01*
X93765Y74069D01*
X93710Y73970D01*
X93659Y73869D01*
X93611Y73766D01*
X93566Y73662D01*
X93526Y73556D01*
X93489Y73449D01*
X93456Y73341D01*
X93426Y73231D01*
X93401Y73121D01*
X93379Y73010D01*
X93362Y72898D01*
X93348Y72785D01*
X93338Y72672D01*
X93332Y72559D01*
X93330Y72446D01*
X93332Y72333D01*
X93338Y72220D01*
X93348Y72107D01*
X93362Y71994D01*
X93379Y71882D01*
X93401Y71771D01*
X93426Y71661D01*
X93456Y71551D01*
X93489Y71443D01*
X93526Y71336D01*
X93566Y71230D01*
X93611Y71126D01*
X93659Y71023D01*
X93710Y70922D01*
X93765Y70823D01*
X93823Y70726D01*
X93885Y70631D01*
X93950Y70538D01*
X94018Y70448D01*
X94089Y70360D01*
X94164Y70274D01*
X94241Y70191D01*
X94321Y70111D01*
X94404Y70034D01*
X94490Y69959D01*
X94578Y69888D01*
X94668Y69820D01*
X94761Y69755D01*
X94856Y69693D01*
X94953Y69635D01*
X95052Y69580D01*
X95153Y69529D01*
X95256Y69481D01*
X95360Y69436D01*
X95466Y69396D01*
X95573Y69359D01*
X95681Y69326D01*
X95791Y69296D01*
X95901Y69271D01*
X96012Y69249D01*
X96124Y69232D01*
X96237Y69218D01*
X96350Y69208D01*
X96463Y69202D01*
X96576Y69200D01*
X96576Y69201D02*
X99822Y69201D01*
X95927Y69201D02*
X93331Y64008D01*
X88466Y64008D02*
X85220Y64008D01*
X85107Y64010D01*
X84994Y64016D01*
X84881Y64026D01*
X84768Y64040D01*
X84656Y64057D01*
X84545Y64079D01*
X84435Y64104D01*
X84325Y64134D01*
X84217Y64167D01*
X84110Y64204D01*
X84004Y64244D01*
X83900Y64289D01*
X83797Y64337D01*
X83696Y64388D01*
X83597Y64443D01*
X83500Y64501D01*
X83405Y64563D01*
X83312Y64628D01*
X83222Y64696D01*
X83134Y64767D01*
X83048Y64842D01*
X82965Y64919D01*
X82885Y64999D01*
X82808Y65082D01*
X82733Y65168D01*
X82662Y65256D01*
X82594Y65346D01*
X82529Y65439D01*
X82467Y65534D01*
X82409Y65631D01*
X82354Y65730D01*
X82303Y65831D01*
X82255Y65934D01*
X82210Y66038D01*
X82170Y66144D01*
X82133Y66251D01*
X82100Y66359D01*
X82070Y66469D01*
X82045Y66579D01*
X82023Y66690D01*
X82006Y66802D01*
X81992Y66915D01*
X81982Y67028D01*
X81976Y67141D01*
X81974Y67254D01*
X81976Y67367D01*
X81982Y67480D01*
X81992Y67593D01*
X82006Y67706D01*
X82023Y67818D01*
X82045Y67929D01*
X82070Y68039D01*
X82100Y68149D01*
X82133Y68257D01*
X82170Y68364D01*
X82210Y68470D01*
X82255Y68574D01*
X82303Y68677D01*
X82354Y68778D01*
X82409Y68877D01*
X82467Y68974D01*
X82529Y69069D01*
X82594Y69162D01*
X82662Y69252D01*
X82733Y69340D01*
X82808Y69426D01*
X82885Y69509D01*
X82965Y69589D01*
X83048Y69666D01*
X83134Y69741D01*
X83222Y69812D01*
X83312Y69880D01*
X83405Y69945D01*
X83500Y70007D01*
X83597Y70065D01*
X83696Y70120D01*
X83797Y70171D01*
X83900Y70219D01*
X84004Y70264D01*
X84110Y70304D01*
X84217Y70341D01*
X84325Y70374D01*
X84435Y70404D01*
X84545Y70429D01*
X84656Y70451D01*
X84768Y70468D01*
X84881Y70482D01*
X84994Y70492D01*
X85107Y70498D01*
X85220Y70500D01*
X84571Y75692D02*
X88466Y75692D01*
X84571Y75692D02*
X84470Y75690D01*
X84370Y75684D01*
X84270Y75674D01*
X84170Y75661D01*
X84071Y75643D01*
X83972Y75622D01*
X83875Y75597D01*
X83778Y75568D01*
X83683Y75535D01*
X83589Y75499D01*
X83497Y75459D01*
X83406Y75416D01*
X83317Y75369D01*
X83230Y75319D01*
X83144Y75265D01*
X83061Y75208D01*
X82981Y75148D01*
X82902Y75085D01*
X82826Y75018D01*
X82753Y74949D01*
X82683Y74877D01*
X82615Y74803D01*
X82550Y74726D01*
X82489Y74646D01*
X82430Y74564D01*
X82375Y74480D01*
X82323Y74394D01*
X82274Y74306D01*
X82229Y74216D01*
X82187Y74124D01*
X82149Y74031D01*
X82115Y73936D01*
X82084Y73841D01*
X82057Y73744D01*
X82034Y73646D01*
X82014Y73547D01*
X81999Y73447D01*
X81987Y73347D01*
X81979Y73247D01*
X81975Y73146D01*
X81975Y73046D01*
X81979Y72945D01*
X81987Y72845D01*
X81999Y72745D01*
X82014Y72645D01*
X82034Y72546D01*
X82057Y72448D01*
X82084Y72351D01*
X82115Y72256D01*
X82149Y72161D01*
X82187Y72068D01*
X82229Y71976D01*
X82274Y71886D01*
X82323Y71798D01*
X82375Y71712D01*
X82430Y71628D01*
X82489Y71546D01*
X82550Y71466D01*
X82615Y71389D01*
X82683Y71315D01*
X82753Y71243D01*
X82826Y71174D01*
X82902Y71107D01*
X82981Y71044D01*
X83061Y70984D01*
X83144Y70927D01*
X83230Y70873D01*
X83317Y70823D01*
X83406Y70776D01*
X83497Y70733D01*
X83589Y70693D01*
X83683Y70657D01*
X83778Y70624D01*
X83875Y70595D01*
X83972Y70570D01*
X84071Y70549D01*
X84170Y70531D01*
X84270Y70518D01*
X84370Y70508D01*
X84470Y70502D01*
X84571Y70500D01*
X84571Y70499D02*
X87167Y70499D01*
M02*
