G04 EAGLE Gerber RS-274X export*
G75*
%MOMM*%
%FSLAX34Y34*%
%LPD*%
%INSilkscreen Top*%
%IPPOS*%
%AMOC8*
5,1,8,0,0,1.08239X$1,22.5*%
G01*
%ADD10C,0.076200*%
%ADD11C,0.200000*%
%ADD12C,0.101600*%
%ADD13C,0.203200*%
%ADD14C,0.127000*%


D10*
X130429Y115416D02*
X121031Y115416D01*
X125208Y115416D02*
X125208Y120637D01*
X121031Y120637D02*
X130429Y120637D01*
X130429Y124471D02*
X129907Y124471D01*
X129907Y124994D01*
X130429Y124994D01*
X130429Y124471D01*
X130429Y128001D02*
X121031Y131133D01*
X130429Y134266D01*
X128080Y133483D02*
X128080Y128784D01*
X129907Y137273D02*
X130429Y137273D01*
X129907Y137273D02*
X129907Y137795D01*
X130429Y137795D01*
X130429Y137273D01*
X130429Y141647D02*
X121031Y141647D01*
X130429Y141647D02*
X130429Y145823D01*
X130429Y148855D02*
X129907Y148855D01*
X129907Y149377D01*
X130429Y149377D01*
X130429Y148855D01*
X127818Y152907D02*
X123642Y152907D01*
X123642Y152906D02*
X123541Y152908D01*
X123440Y152914D01*
X123339Y152924D01*
X123239Y152937D01*
X123139Y152955D01*
X123040Y152976D01*
X122942Y153002D01*
X122845Y153031D01*
X122749Y153063D01*
X122655Y153100D01*
X122562Y153140D01*
X122470Y153184D01*
X122381Y153231D01*
X122293Y153282D01*
X122207Y153336D01*
X122124Y153393D01*
X122042Y153453D01*
X121964Y153517D01*
X121887Y153583D01*
X121814Y153653D01*
X121743Y153725D01*
X121675Y153800D01*
X121610Y153878D01*
X121548Y153958D01*
X121489Y154040D01*
X121433Y154125D01*
X121381Y154212D01*
X121332Y154300D01*
X121286Y154391D01*
X121245Y154483D01*
X121206Y154577D01*
X121172Y154672D01*
X121141Y154768D01*
X121114Y154866D01*
X121090Y154964D01*
X121071Y155064D01*
X121055Y155164D01*
X121043Y155264D01*
X121035Y155365D01*
X121031Y155466D01*
X121031Y155568D01*
X121035Y155669D01*
X121043Y155770D01*
X121055Y155870D01*
X121071Y155970D01*
X121090Y156070D01*
X121114Y156168D01*
X121141Y156266D01*
X121172Y156362D01*
X121206Y156457D01*
X121245Y156551D01*
X121286Y156643D01*
X121332Y156734D01*
X121381Y156823D01*
X121433Y156909D01*
X121489Y156994D01*
X121548Y157076D01*
X121610Y157156D01*
X121675Y157234D01*
X121743Y157309D01*
X121814Y157381D01*
X121887Y157451D01*
X121964Y157517D01*
X122042Y157581D01*
X122124Y157641D01*
X122207Y157698D01*
X122293Y157752D01*
X122381Y157803D01*
X122470Y157850D01*
X122562Y157894D01*
X122655Y157934D01*
X122749Y157971D01*
X122845Y158003D01*
X122942Y158032D01*
X123040Y158058D01*
X123139Y158079D01*
X123239Y158097D01*
X123339Y158110D01*
X123440Y158120D01*
X123541Y158126D01*
X123642Y158128D01*
X127818Y158128D01*
X127919Y158126D01*
X128020Y158120D01*
X128121Y158110D01*
X128221Y158097D01*
X128321Y158079D01*
X128420Y158058D01*
X128518Y158032D01*
X128615Y158003D01*
X128711Y157971D01*
X128805Y157934D01*
X128898Y157894D01*
X128990Y157850D01*
X129079Y157803D01*
X129167Y157752D01*
X129253Y157698D01*
X129336Y157641D01*
X129418Y157581D01*
X129496Y157517D01*
X129573Y157451D01*
X129646Y157381D01*
X129717Y157309D01*
X129785Y157234D01*
X129850Y157156D01*
X129912Y157076D01*
X129971Y156994D01*
X130027Y156909D01*
X130079Y156822D01*
X130128Y156734D01*
X130174Y156643D01*
X130215Y156551D01*
X130254Y156457D01*
X130288Y156362D01*
X130319Y156266D01*
X130346Y156168D01*
X130370Y156070D01*
X130389Y155970D01*
X130405Y155870D01*
X130417Y155770D01*
X130425Y155669D01*
X130429Y155568D01*
X130429Y155466D01*
X130425Y155365D01*
X130417Y155264D01*
X130405Y155164D01*
X130389Y155064D01*
X130370Y154964D01*
X130346Y154866D01*
X130319Y154768D01*
X130288Y154672D01*
X130254Y154577D01*
X130215Y154483D01*
X130174Y154391D01*
X130128Y154300D01*
X130079Y154211D01*
X130027Y154125D01*
X129971Y154040D01*
X129912Y153958D01*
X129850Y153878D01*
X129785Y153800D01*
X129717Y153725D01*
X129646Y153653D01*
X129573Y153583D01*
X129496Y153517D01*
X129418Y153453D01*
X129336Y153393D01*
X129253Y153336D01*
X129167Y153282D01*
X129079Y153231D01*
X128990Y153184D01*
X128898Y153140D01*
X128805Y153100D01*
X128711Y153063D01*
X128615Y153031D01*
X128518Y153002D01*
X128420Y152976D01*
X128321Y152955D01*
X128221Y152937D01*
X128121Y152924D01*
X128020Y152914D01*
X127919Y152908D01*
X127818Y152906D01*
X129907Y161657D02*
X130429Y161657D01*
X129907Y161657D02*
X129907Y162179D01*
X130429Y162179D01*
X130429Y161657D01*
X136271Y63095D02*
X145669Y63095D01*
X136271Y63095D02*
X136271Y65706D01*
X136273Y65807D01*
X136279Y65908D01*
X136289Y66009D01*
X136302Y66109D01*
X136320Y66209D01*
X136341Y66308D01*
X136367Y66406D01*
X136396Y66503D01*
X136428Y66599D01*
X136465Y66693D01*
X136505Y66786D01*
X136549Y66878D01*
X136596Y66967D01*
X136647Y67055D01*
X136701Y67141D01*
X136758Y67224D01*
X136818Y67306D01*
X136882Y67384D01*
X136948Y67461D01*
X137018Y67534D01*
X137090Y67605D01*
X137165Y67673D01*
X137243Y67738D01*
X137323Y67800D01*
X137405Y67859D01*
X137490Y67915D01*
X137577Y67967D01*
X137665Y68016D01*
X137756Y68062D01*
X137848Y68103D01*
X137942Y68142D01*
X138037Y68176D01*
X138133Y68207D01*
X138231Y68234D01*
X138329Y68258D01*
X138429Y68277D01*
X138529Y68293D01*
X138629Y68305D01*
X138730Y68313D01*
X138831Y68317D01*
X138933Y68317D01*
X139034Y68313D01*
X139135Y68305D01*
X139235Y68293D01*
X139335Y68277D01*
X139435Y68258D01*
X139533Y68234D01*
X139631Y68207D01*
X139727Y68176D01*
X139822Y68142D01*
X139916Y68103D01*
X140008Y68062D01*
X140099Y68016D01*
X140188Y67967D01*
X140274Y67915D01*
X140359Y67859D01*
X140441Y67800D01*
X140521Y67738D01*
X140599Y67673D01*
X140674Y67605D01*
X140746Y67534D01*
X140816Y67461D01*
X140882Y67384D01*
X140946Y67306D01*
X141006Y67224D01*
X141063Y67141D01*
X141117Y67055D01*
X141168Y66967D01*
X141215Y66878D01*
X141259Y66786D01*
X141299Y66693D01*
X141336Y66599D01*
X141368Y66503D01*
X141397Y66406D01*
X141423Y66308D01*
X141444Y66209D01*
X141462Y66109D01*
X141475Y66009D01*
X141485Y65908D01*
X141491Y65807D01*
X141493Y65706D01*
X141492Y65706D02*
X141492Y63095D01*
X141492Y66228D02*
X145669Y68316D01*
X140448Y76142D02*
X140448Y77708D01*
X145669Y77708D01*
X145669Y74575D01*
X145667Y74486D01*
X145661Y74398D01*
X145652Y74310D01*
X145639Y74222D01*
X145622Y74135D01*
X145602Y74049D01*
X145577Y73964D01*
X145550Y73879D01*
X145518Y73796D01*
X145484Y73715D01*
X145445Y73635D01*
X145404Y73557D01*
X145359Y73480D01*
X145311Y73406D01*
X145260Y73333D01*
X145206Y73263D01*
X145148Y73196D01*
X145088Y73130D01*
X145026Y73068D01*
X144960Y73008D01*
X144893Y72950D01*
X144823Y72896D01*
X144750Y72845D01*
X144676Y72797D01*
X144599Y72752D01*
X144521Y72711D01*
X144441Y72672D01*
X144360Y72638D01*
X144277Y72606D01*
X144192Y72579D01*
X144107Y72554D01*
X144021Y72534D01*
X143934Y72517D01*
X143846Y72504D01*
X143758Y72495D01*
X143670Y72489D01*
X143581Y72487D01*
X138359Y72487D01*
X138359Y72486D02*
X138268Y72488D01*
X138177Y72494D01*
X138086Y72504D01*
X137996Y72518D01*
X137907Y72536D01*
X137818Y72557D01*
X137731Y72583D01*
X137645Y72612D01*
X137560Y72645D01*
X137476Y72682D01*
X137394Y72722D01*
X137315Y72766D01*
X137237Y72813D01*
X137161Y72864D01*
X137087Y72918D01*
X137016Y72975D01*
X136948Y73035D01*
X136882Y73098D01*
X136819Y73164D01*
X136759Y73232D01*
X136702Y73303D01*
X136648Y73377D01*
X136597Y73453D01*
X136550Y73530D01*
X136506Y73610D01*
X136466Y73692D01*
X136429Y73776D01*
X136396Y73860D01*
X136367Y73947D01*
X136341Y74034D01*
X136320Y74123D01*
X136302Y74212D01*
X136288Y74302D01*
X136278Y74393D01*
X136272Y74484D01*
X136270Y74575D01*
X136271Y74575D02*
X136271Y77708D01*
X140448Y82372D02*
X140448Y84982D01*
X140447Y84982D02*
X140449Y85083D01*
X140455Y85184D01*
X140465Y85285D01*
X140478Y85385D01*
X140496Y85485D01*
X140517Y85584D01*
X140543Y85682D01*
X140572Y85779D01*
X140604Y85875D01*
X140641Y85969D01*
X140681Y86062D01*
X140725Y86154D01*
X140772Y86243D01*
X140823Y86331D01*
X140877Y86417D01*
X140934Y86500D01*
X140994Y86582D01*
X141058Y86660D01*
X141124Y86737D01*
X141194Y86810D01*
X141266Y86881D01*
X141341Y86949D01*
X141419Y87014D01*
X141499Y87076D01*
X141581Y87135D01*
X141666Y87191D01*
X141753Y87243D01*
X141841Y87292D01*
X141932Y87338D01*
X142024Y87379D01*
X142118Y87418D01*
X142213Y87452D01*
X142309Y87483D01*
X142407Y87510D01*
X142505Y87534D01*
X142605Y87553D01*
X142705Y87569D01*
X142805Y87581D01*
X142906Y87589D01*
X143007Y87593D01*
X143109Y87593D01*
X143210Y87589D01*
X143311Y87581D01*
X143411Y87569D01*
X143511Y87553D01*
X143611Y87534D01*
X143709Y87510D01*
X143807Y87483D01*
X143903Y87452D01*
X143998Y87418D01*
X144092Y87379D01*
X144184Y87338D01*
X144275Y87292D01*
X144364Y87243D01*
X144450Y87191D01*
X144535Y87135D01*
X144617Y87076D01*
X144697Y87014D01*
X144775Y86949D01*
X144850Y86881D01*
X144922Y86810D01*
X144992Y86737D01*
X145058Y86660D01*
X145122Y86582D01*
X145182Y86500D01*
X145239Y86417D01*
X145293Y86331D01*
X145344Y86243D01*
X145391Y86154D01*
X145435Y86062D01*
X145475Y85969D01*
X145512Y85875D01*
X145544Y85779D01*
X145573Y85682D01*
X145599Y85584D01*
X145620Y85485D01*
X145638Y85385D01*
X145651Y85285D01*
X145661Y85184D01*
X145667Y85083D01*
X145669Y84982D01*
X145669Y82372D01*
X136271Y82372D01*
X136271Y84982D01*
X136273Y85072D01*
X136279Y85161D01*
X136288Y85251D01*
X136302Y85340D01*
X136319Y85428D01*
X136340Y85515D01*
X136365Y85602D01*
X136394Y85687D01*
X136426Y85771D01*
X136461Y85853D01*
X136501Y85934D01*
X136543Y86013D01*
X136589Y86090D01*
X136639Y86165D01*
X136691Y86238D01*
X136747Y86309D01*
X136805Y86377D01*
X136867Y86442D01*
X136931Y86505D01*
X136998Y86565D01*
X137067Y86622D01*
X137139Y86676D01*
X137213Y86727D01*
X137289Y86775D01*
X137367Y86819D01*
X137447Y86860D01*
X137529Y86898D01*
X137612Y86932D01*
X137697Y86962D01*
X137783Y86989D01*
X137869Y87012D01*
X137957Y87031D01*
X138046Y87046D01*
X138135Y87058D01*
X138224Y87066D01*
X138314Y87070D01*
X138404Y87070D01*
X138494Y87066D01*
X138583Y87058D01*
X138672Y87046D01*
X138761Y87031D01*
X138849Y87012D01*
X138935Y86989D01*
X139021Y86962D01*
X139106Y86932D01*
X139189Y86898D01*
X139271Y86860D01*
X139351Y86819D01*
X139429Y86775D01*
X139505Y86727D01*
X139579Y86676D01*
X139651Y86622D01*
X139720Y86565D01*
X139787Y86505D01*
X139851Y86442D01*
X139913Y86377D01*
X139971Y86309D01*
X140027Y86238D01*
X140079Y86165D01*
X140129Y86090D01*
X140175Y86013D01*
X140217Y85934D01*
X140257Y85853D01*
X140292Y85771D01*
X140324Y85687D01*
X140353Y85602D01*
X140378Y85515D01*
X140399Y85428D01*
X140416Y85340D01*
X140430Y85251D01*
X140439Y85161D01*
X140445Y85072D01*
X140447Y84982D01*
X136271Y96279D02*
X145669Y96279D01*
X145669Y100456D01*
X145669Y104203D02*
X145669Y108380D01*
X145669Y104203D02*
X136271Y104203D01*
X136271Y108380D01*
X140448Y107336D02*
X140448Y104203D01*
X136271Y112111D02*
X145669Y112111D01*
X136271Y112111D02*
X136271Y114721D01*
X136273Y114821D01*
X136279Y114921D01*
X136288Y115020D01*
X136302Y115120D01*
X136319Y115218D01*
X136340Y115316D01*
X136364Y115413D01*
X136393Y115509D01*
X136425Y115604D01*
X136460Y115697D01*
X136499Y115789D01*
X136542Y115880D01*
X136588Y115968D01*
X136638Y116055D01*
X136690Y116140D01*
X136746Y116223D01*
X136805Y116304D01*
X136868Y116382D01*
X136933Y116458D01*
X137001Y116532D01*
X137071Y116602D01*
X137145Y116670D01*
X137221Y116735D01*
X137299Y116798D01*
X137380Y116857D01*
X137463Y116913D01*
X137548Y116965D01*
X137635Y117015D01*
X137723Y117061D01*
X137814Y117104D01*
X137906Y117143D01*
X137999Y117178D01*
X138094Y117210D01*
X138190Y117239D01*
X138287Y117263D01*
X138385Y117284D01*
X138483Y117301D01*
X138583Y117315D01*
X138682Y117324D01*
X138782Y117330D01*
X138882Y117332D01*
X143058Y117332D01*
X143158Y117330D01*
X143258Y117324D01*
X143357Y117315D01*
X143457Y117301D01*
X143555Y117284D01*
X143653Y117263D01*
X143750Y117239D01*
X143846Y117210D01*
X143941Y117178D01*
X144034Y117143D01*
X144126Y117104D01*
X144217Y117061D01*
X144305Y117015D01*
X144392Y116965D01*
X144477Y116913D01*
X144560Y116857D01*
X144641Y116798D01*
X144719Y116735D01*
X144795Y116670D01*
X144869Y116602D01*
X144939Y116532D01*
X145007Y116458D01*
X145072Y116382D01*
X145135Y116304D01*
X145194Y116223D01*
X145250Y116140D01*
X145302Y116055D01*
X145352Y115968D01*
X145398Y115880D01*
X145441Y115789D01*
X145480Y115697D01*
X145515Y115604D01*
X145547Y115509D01*
X145576Y115413D01*
X145600Y115316D01*
X145621Y115218D01*
X145638Y115120D01*
X145652Y115020D01*
X145661Y114921D01*
X145667Y114821D01*
X145669Y114721D01*
X145669Y112111D01*
X140448Y126872D02*
X140448Y129483D01*
X140447Y129483D02*
X140449Y129584D01*
X140455Y129685D01*
X140465Y129786D01*
X140478Y129886D01*
X140496Y129986D01*
X140517Y130085D01*
X140543Y130183D01*
X140572Y130280D01*
X140604Y130376D01*
X140641Y130470D01*
X140681Y130563D01*
X140725Y130655D01*
X140772Y130744D01*
X140823Y130832D01*
X140877Y130918D01*
X140934Y131001D01*
X140994Y131083D01*
X141058Y131161D01*
X141124Y131238D01*
X141194Y131311D01*
X141266Y131382D01*
X141341Y131450D01*
X141419Y131515D01*
X141499Y131577D01*
X141581Y131636D01*
X141666Y131692D01*
X141753Y131744D01*
X141841Y131793D01*
X141932Y131839D01*
X142024Y131880D01*
X142118Y131919D01*
X142213Y131953D01*
X142309Y131984D01*
X142407Y132011D01*
X142505Y132035D01*
X142605Y132054D01*
X142705Y132070D01*
X142805Y132082D01*
X142906Y132090D01*
X143007Y132094D01*
X143109Y132094D01*
X143210Y132090D01*
X143311Y132082D01*
X143411Y132070D01*
X143511Y132054D01*
X143611Y132035D01*
X143709Y132011D01*
X143807Y131984D01*
X143903Y131953D01*
X143998Y131919D01*
X144092Y131880D01*
X144184Y131839D01*
X144275Y131793D01*
X144364Y131744D01*
X144450Y131692D01*
X144535Y131636D01*
X144617Y131577D01*
X144697Y131515D01*
X144775Y131450D01*
X144850Y131382D01*
X144922Y131311D01*
X144992Y131238D01*
X145058Y131161D01*
X145122Y131083D01*
X145182Y131001D01*
X145239Y130918D01*
X145293Y130832D01*
X145344Y130744D01*
X145391Y130655D01*
X145435Y130563D01*
X145475Y130470D01*
X145512Y130376D01*
X145544Y130280D01*
X145573Y130183D01*
X145599Y130085D01*
X145620Y129986D01*
X145638Y129886D01*
X145651Y129786D01*
X145661Y129685D01*
X145667Y129584D01*
X145669Y129483D01*
X145669Y126872D01*
X136271Y126872D01*
X136271Y129483D01*
X136273Y129573D01*
X136279Y129662D01*
X136288Y129752D01*
X136302Y129841D01*
X136319Y129929D01*
X136340Y130016D01*
X136365Y130103D01*
X136394Y130188D01*
X136426Y130272D01*
X136461Y130354D01*
X136501Y130435D01*
X136543Y130514D01*
X136589Y130591D01*
X136639Y130666D01*
X136691Y130739D01*
X136747Y130810D01*
X136805Y130878D01*
X136867Y130943D01*
X136931Y131006D01*
X136998Y131066D01*
X137067Y131123D01*
X137139Y131177D01*
X137213Y131228D01*
X137289Y131276D01*
X137367Y131320D01*
X137447Y131361D01*
X137529Y131399D01*
X137612Y131433D01*
X137697Y131463D01*
X137783Y131490D01*
X137869Y131513D01*
X137957Y131532D01*
X138046Y131547D01*
X138135Y131559D01*
X138224Y131567D01*
X138314Y131571D01*
X138404Y131571D01*
X138494Y131567D01*
X138583Y131559D01*
X138672Y131547D01*
X138761Y131532D01*
X138849Y131513D01*
X138935Y131490D01*
X139021Y131463D01*
X139106Y131433D01*
X139189Y131399D01*
X139271Y131361D01*
X139351Y131320D01*
X139429Y131276D01*
X139505Y131228D01*
X139579Y131177D01*
X139651Y131123D01*
X139720Y131066D01*
X139787Y131006D01*
X139851Y130943D01*
X139913Y130878D01*
X139971Y130810D01*
X140027Y130739D01*
X140079Y130666D01*
X140129Y130591D01*
X140175Y130514D01*
X140217Y130435D01*
X140257Y130354D01*
X140292Y130272D01*
X140324Y130188D01*
X140353Y130103D01*
X140378Y130016D01*
X140399Y129929D01*
X140416Y129841D01*
X140430Y129752D01*
X140439Y129662D01*
X140445Y129573D01*
X140447Y129483D01*
X141492Y135493D02*
X143581Y135493D01*
X141492Y135493D02*
X141402Y135495D01*
X141313Y135501D01*
X141223Y135510D01*
X141134Y135524D01*
X141046Y135541D01*
X140959Y135562D01*
X140872Y135587D01*
X140787Y135616D01*
X140703Y135648D01*
X140621Y135683D01*
X140540Y135723D01*
X140461Y135765D01*
X140384Y135811D01*
X140309Y135861D01*
X140236Y135913D01*
X140165Y135969D01*
X140097Y136027D01*
X140032Y136089D01*
X139969Y136153D01*
X139909Y136220D01*
X139852Y136289D01*
X139798Y136361D01*
X139747Y136435D01*
X139699Y136511D01*
X139655Y136589D01*
X139614Y136669D01*
X139576Y136751D01*
X139542Y136834D01*
X139512Y136919D01*
X139485Y137005D01*
X139462Y137091D01*
X139443Y137179D01*
X139428Y137268D01*
X139416Y137357D01*
X139408Y137446D01*
X139404Y137536D01*
X139404Y137626D01*
X139408Y137716D01*
X139416Y137805D01*
X139428Y137894D01*
X139443Y137983D01*
X139462Y138071D01*
X139485Y138157D01*
X139512Y138243D01*
X139542Y138328D01*
X139576Y138411D01*
X139614Y138493D01*
X139655Y138573D01*
X139699Y138651D01*
X139747Y138727D01*
X139798Y138801D01*
X139852Y138873D01*
X139909Y138942D01*
X139969Y139009D01*
X140032Y139073D01*
X140097Y139135D01*
X140165Y139193D01*
X140236Y139249D01*
X140309Y139301D01*
X140384Y139351D01*
X140461Y139397D01*
X140540Y139439D01*
X140621Y139479D01*
X140703Y139514D01*
X140787Y139546D01*
X140872Y139575D01*
X140959Y139600D01*
X141046Y139621D01*
X141134Y139638D01*
X141223Y139652D01*
X141313Y139661D01*
X141402Y139667D01*
X141492Y139669D01*
X141492Y139670D02*
X143581Y139670D01*
X143581Y139669D02*
X143671Y139667D01*
X143760Y139661D01*
X143850Y139652D01*
X143939Y139638D01*
X144027Y139621D01*
X144114Y139600D01*
X144201Y139575D01*
X144286Y139546D01*
X144370Y139514D01*
X144452Y139479D01*
X144533Y139439D01*
X144612Y139397D01*
X144689Y139351D01*
X144764Y139301D01*
X144837Y139249D01*
X144908Y139193D01*
X144976Y139135D01*
X145041Y139073D01*
X145104Y139009D01*
X145164Y138942D01*
X145221Y138873D01*
X145275Y138801D01*
X145326Y138727D01*
X145374Y138651D01*
X145418Y138573D01*
X145459Y138493D01*
X145497Y138411D01*
X145531Y138328D01*
X145561Y138243D01*
X145588Y138157D01*
X145611Y138071D01*
X145630Y137983D01*
X145645Y137894D01*
X145657Y137805D01*
X145665Y137716D01*
X145669Y137626D01*
X145669Y137536D01*
X145665Y137446D01*
X145657Y137357D01*
X145645Y137268D01*
X145630Y137179D01*
X145611Y137091D01*
X145588Y137005D01*
X145561Y136919D01*
X145531Y136834D01*
X145497Y136751D01*
X145459Y136669D01*
X145418Y136589D01*
X145374Y136511D01*
X145326Y136435D01*
X145275Y136361D01*
X145221Y136289D01*
X145164Y136220D01*
X145104Y136153D01*
X145041Y136089D01*
X144976Y136027D01*
X144908Y135969D01*
X144837Y135913D01*
X144764Y135861D01*
X144689Y135811D01*
X144612Y135765D01*
X144533Y135723D01*
X144452Y135683D01*
X144370Y135648D01*
X144286Y135616D01*
X144201Y135587D01*
X144114Y135562D01*
X144027Y135541D01*
X143939Y135524D01*
X143850Y135510D01*
X143760Y135501D01*
X143671Y135495D01*
X143581Y135493D01*
X142014Y145199D02*
X142014Y147549D01*
X142015Y145199D02*
X142017Y145115D01*
X142023Y145030D01*
X142033Y144947D01*
X142046Y144863D01*
X142064Y144781D01*
X142085Y144699D01*
X142110Y144618D01*
X142138Y144539D01*
X142171Y144461D01*
X142207Y144385D01*
X142246Y144310D01*
X142289Y144237D01*
X142335Y144166D01*
X142384Y144098D01*
X142436Y144032D01*
X142492Y143968D01*
X142550Y143907D01*
X142611Y143849D01*
X142675Y143793D01*
X142741Y143741D01*
X142809Y143692D01*
X142880Y143646D01*
X142953Y143603D01*
X143028Y143564D01*
X143104Y143528D01*
X143182Y143495D01*
X143261Y143467D01*
X143342Y143442D01*
X143424Y143421D01*
X143506Y143403D01*
X143590Y143390D01*
X143673Y143380D01*
X143758Y143374D01*
X143842Y143372D01*
X143926Y143374D01*
X144011Y143380D01*
X144094Y143390D01*
X144178Y143403D01*
X144260Y143421D01*
X144342Y143442D01*
X144423Y143467D01*
X144502Y143495D01*
X144580Y143528D01*
X144656Y143564D01*
X144731Y143603D01*
X144804Y143646D01*
X144875Y143692D01*
X144943Y143741D01*
X145009Y143793D01*
X145073Y143849D01*
X145134Y143907D01*
X145192Y143968D01*
X145248Y144032D01*
X145300Y144098D01*
X145349Y144166D01*
X145395Y144237D01*
X145438Y144310D01*
X145477Y144385D01*
X145513Y144461D01*
X145546Y144539D01*
X145574Y144618D01*
X145599Y144699D01*
X145620Y144781D01*
X145638Y144863D01*
X145651Y144947D01*
X145661Y145030D01*
X145667Y145115D01*
X145669Y145199D01*
X145669Y147549D01*
X140970Y147549D01*
X140970Y147548D02*
X140893Y147546D01*
X140817Y147540D01*
X140740Y147531D01*
X140664Y147518D01*
X140589Y147501D01*
X140515Y147481D01*
X140442Y147456D01*
X140371Y147429D01*
X140300Y147398D01*
X140232Y147363D01*
X140165Y147325D01*
X140100Y147284D01*
X140037Y147240D01*
X139977Y147193D01*
X139918Y147142D01*
X139863Y147089D01*
X139810Y147034D01*
X139759Y146975D01*
X139712Y146915D01*
X139668Y146852D01*
X139627Y146787D01*
X139589Y146720D01*
X139554Y146652D01*
X139523Y146581D01*
X139496Y146510D01*
X139471Y146437D01*
X139451Y146363D01*
X139434Y146288D01*
X139421Y146212D01*
X139412Y146135D01*
X139406Y146059D01*
X139404Y145982D01*
X139404Y143894D01*
X139404Y152003D02*
X145669Y152003D01*
X139404Y152003D02*
X139404Y155136D01*
X140448Y155136D01*
X136271Y162179D02*
X145669Y162179D01*
X145669Y159568D01*
X145667Y159491D01*
X145661Y159415D01*
X145652Y159338D01*
X145639Y159262D01*
X145622Y159187D01*
X145602Y159113D01*
X145577Y159040D01*
X145550Y158969D01*
X145519Y158898D01*
X145484Y158830D01*
X145446Y158763D01*
X145405Y158698D01*
X145361Y158635D01*
X145314Y158575D01*
X145263Y158516D01*
X145210Y158461D01*
X145155Y158408D01*
X145096Y158357D01*
X145036Y158310D01*
X144973Y158266D01*
X144908Y158225D01*
X144841Y158187D01*
X144773Y158152D01*
X144702Y158121D01*
X144631Y158094D01*
X144558Y158069D01*
X144484Y158049D01*
X144409Y158032D01*
X144333Y158019D01*
X144256Y158010D01*
X144180Y158004D01*
X144103Y158002D01*
X140970Y158002D01*
X140893Y158004D01*
X140817Y158010D01*
X140740Y158019D01*
X140664Y158032D01*
X140589Y158049D01*
X140515Y158069D01*
X140442Y158094D01*
X140371Y158121D01*
X140300Y158152D01*
X140232Y158187D01*
X140165Y158225D01*
X140100Y158266D01*
X140037Y158310D01*
X139977Y158357D01*
X139918Y158408D01*
X139863Y158461D01*
X139810Y158516D01*
X139759Y158575D01*
X139712Y158635D01*
X139668Y158698D01*
X139627Y158763D01*
X139589Y158830D01*
X139554Y158898D01*
X139523Y158969D01*
X139496Y159040D01*
X139471Y159113D01*
X139451Y159187D01*
X139434Y159262D01*
X139421Y159338D01*
X139412Y159415D01*
X139406Y159491D01*
X139404Y159568D01*
X139404Y162179D01*
D11*
X86070Y35560D02*
X86079Y36284D01*
X86106Y37007D01*
X86150Y37730D01*
X86212Y38452D01*
X86292Y39171D01*
X86389Y39889D01*
X86504Y40603D01*
X86637Y41315D01*
X86787Y42023D01*
X86954Y42728D01*
X87139Y43428D01*
X87340Y44123D01*
X87559Y44814D01*
X87794Y45498D01*
X88047Y46177D01*
X88316Y46849D01*
X88601Y47515D01*
X88902Y48173D01*
X89220Y48824D01*
X89553Y49466D01*
X89902Y50100D01*
X90267Y50726D01*
X90647Y51342D01*
X91042Y51949D01*
X91451Y52546D01*
X91875Y53133D01*
X92314Y53709D01*
X92766Y54275D01*
X93232Y54829D01*
X93712Y55371D01*
X94205Y55901D01*
X94710Y56420D01*
X95229Y56925D01*
X95759Y57418D01*
X96301Y57898D01*
X96855Y58364D01*
X97421Y58816D01*
X97997Y59255D01*
X98584Y59679D01*
X99181Y60088D01*
X99788Y60483D01*
X100404Y60863D01*
X101030Y61228D01*
X101664Y61577D01*
X102306Y61910D01*
X102957Y62228D01*
X103615Y62529D01*
X104281Y62814D01*
X104953Y63083D01*
X105632Y63336D01*
X106316Y63571D01*
X107007Y63790D01*
X107702Y63991D01*
X108402Y64176D01*
X109107Y64343D01*
X109815Y64493D01*
X110527Y64626D01*
X111241Y64741D01*
X111959Y64838D01*
X112678Y64918D01*
X113400Y64980D01*
X114123Y65024D01*
X114846Y65051D01*
X115570Y65060D01*
X116294Y65051D01*
X117017Y65024D01*
X117740Y64980D01*
X118462Y64918D01*
X119181Y64838D01*
X119899Y64741D01*
X120613Y64626D01*
X121325Y64493D01*
X122033Y64343D01*
X122738Y64176D01*
X123438Y63991D01*
X124133Y63790D01*
X124824Y63571D01*
X125508Y63336D01*
X126187Y63083D01*
X126859Y62814D01*
X127525Y62529D01*
X128183Y62228D01*
X128834Y61910D01*
X129476Y61577D01*
X130110Y61228D01*
X130736Y60863D01*
X131352Y60483D01*
X131959Y60088D01*
X132556Y59679D01*
X133143Y59255D01*
X133719Y58816D01*
X134285Y58364D01*
X134839Y57898D01*
X135381Y57418D01*
X135911Y56925D01*
X136430Y56420D01*
X136935Y55901D01*
X137428Y55371D01*
X137908Y54829D01*
X138374Y54275D01*
X138826Y53709D01*
X139265Y53133D01*
X139689Y52546D01*
X140098Y51949D01*
X140493Y51342D01*
X140873Y50726D01*
X141238Y50100D01*
X141587Y49466D01*
X141920Y48824D01*
X142238Y48173D01*
X142539Y47515D01*
X142824Y46849D01*
X143093Y46177D01*
X143346Y45498D01*
X143581Y44814D01*
X143800Y44123D01*
X144001Y43428D01*
X144186Y42728D01*
X144353Y42023D01*
X144503Y41315D01*
X144636Y40603D01*
X144751Y39889D01*
X144848Y39171D01*
X144928Y38452D01*
X144990Y37730D01*
X145034Y37007D01*
X145061Y36284D01*
X145070Y35560D01*
X145061Y34836D01*
X145034Y34113D01*
X144990Y33390D01*
X144928Y32668D01*
X144848Y31949D01*
X144751Y31231D01*
X144636Y30517D01*
X144503Y29805D01*
X144353Y29097D01*
X144186Y28392D01*
X144001Y27692D01*
X143800Y26997D01*
X143581Y26306D01*
X143346Y25622D01*
X143093Y24943D01*
X142824Y24271D01*
X142539Y23605D01*
X142238Y22947D01*
X141920Y22296D01*
X141587Y21654D01*
X141238Y21020D01*
X140873Y20394D01*
X140493Y19778D01*
X140098Y19171D01*
X139689Y18574D01*
X139265Y17987D01*
X138826Y17411D01*
X138374Y16845D01*
X137908Y16291D01*
X137428Y15749D01*
X136935Y15219D01*
X136430Y14700D01*
X135911Y14195D01*
X135381Y13702D01*
X134839Y13222D01*
X134285Y12756D01*
X133719Y12304D01*
X133143Y11865D01*
X132556Y11441D01*
X131959Y11032D01*
X131352Y10637D01*
X130736Y10257D01*
X130110Y9892D01*
X129476Y9543D01*
X128834Y9210D01*
X128183Y8892D01*
X127525Y8591D01*
X126859Y8306D01*
X126187Y8037D01*
X125508Y7784D01*
X124824Y7549D01*
X124133Y7330D01*
X123438Y7129D01*
X122738Y6944D01*
X122033Y6777D01*
X121325Y6627D01*
X120613Y6494D01*
X119899Y6379D01*
X119181Y6282D01*
X118462Y6202D01*
X117740Y6140D01*
X117017Y6096D01*
X116294Y6069D01*
X115570Y6060D01*
X114846Y6069D01*
X114123Y6096D01*
X113400Y6140D01*
X112678Y6202D01*
X111959Y6282D01*
X111241Y6379D01*
X110527Y6494D01*
X109815Y6627D01*
X109107Y6777D01*
X108402Y6944D01*
X107702Y7129D01*
X107007Y7330D01*
X106316Y7549D01*
X105632Y7784D01*
X104953Y8037D01*
X104281Y8306D01*
X103615Y8591D01*
X102957Y8892D01*
X102306Y9210D01*
X101664Y9543D01*
X101030Y9892D01*
X100404Y10257D01*
X99788Y10637D01*
X99181Y11032D01*
X98584Y11441D01*
X97997Y11865D01*
X97421Y12304D01*
X96855Y12756D01*
X96301Y13222D01*
X95759Y13702D01*
X95229Y14195D01*
X94710Y14700D01*
X94205Y15219D01*
X93712Y15749D01*
X93232Y16291D01*
X92766Y16845D01*
X92314Y17411D01*
X91875Y17987D01*
X91451Y18574D01*
X91042Y19171D01*
X90647Y19778D01*
X90267Y20394D01*
X89902Y21020D01*
X89553Y21654D01*
X89220Y22296D01*
X88902Y22947D01*
X88601Y23605D01*
X88316Y24271D01*
X88047Y24943D01*
X87794Y25622D01*
X87559Y26306D01*
X87340Y26997D01*
X87139Y27692D01*
X86954Y28392D01*
X86787Y29097D01*
X86637Y29805D01*
X86504Y30517D01*
X86389Y31231D01*
X86292Y31949D01*
X86212Y32668D01*
X86150Y33390D01*
X86106Y34113D01*
X86079Y34836D01*
X86070Y35560D01*
X123460Y2330D02*
X123462Y2370D01*
X123468Y2410D01*
X123478Y2449D01*
X123491Y2487D01*
X123508Y2523D01*
X123529Y2558D01*
X123553Y2590D01*
X123580Y2620D01*
X123610Y2647D01*
X123642Y2671D01*
X123677Y2692D01*
X123713Y2709D01*
X123751Y2722D01*
X123790Y2732D01*
X123830Y2738D01*
X123870Y2740D01*
X123910Y2738D01*
X123950Y2732D01*
X123989Y2722D01*
X124027Y2709D01*
X124063Y2692D01*
X124098Y2671D01*
X124130Y2647D01*
X124160Y2620D01*
X124187Y2590D01*
X124211Y2558D01*
X124232Y2523D01*
X124249Y2487D01*
X124262Y2449D01*
X124272Y2410D01*
X124278Y2370D01*
X124280Y2330D01*
X124278Y2290D01*
X124272Y2250D01*
X124262Y2211D01*
X124249Y2173D01*
X124232Y2137D01*
X124211Y2102D01*
X124187Y2070D01*
X124160Y2040D01*
X124130Y2013D01*
X124098Y1989D01*
X124063Y1968D01*
X124027Y1951D01*
X123989Y1938D01*
X123950Y1928D01*
X123910Y1922D01*
X123870Y1920D01*
X123830Y1922D01*
X123790Y1928D01*
X123751Y1938D01*
X123713Y1951D01*
X123677Y1968D01*
X123642Y1989D01*
X123610Y2013D01*
X123580Y2040D01*
X123553Y2070D01*
X123529Y2102D01*
X123508Y2137D01*
X123491Y2173D01*
X123478Y2211D01*
X123468Y2250D01*
X123462Y2290D01*
X123460Y2330D01*
D12*
X80762Y17734D02*
X69078Y17734D01*
X80762Y17734D02*
X80762Y22927D01*
X80762Y27640D02*
X80762Y32833D01*
X80762Y27640D02*
X69078Y27640D01*
X69078Y32833D01*
X74271Y31535D02*
X74271Y27640D01*
X69078Y37524D02*
X80762Y37524D01*
X69078Y37524D02*
X69078Y40769D01*
X69080Y40882D01*
X69086Y40995D01*
X69096Y41108D01*
X69110Y41221D01*
X69127Y41333D01*
X69149Y41444D01*
X69174Y41554D01*
X69204Y41664D01*
X69237Y41772D01*
X69274Y41879D01*
X69314Y41985D01*
X69359Y42089D01*
X69407Y42192D01*
X69458Y42293D01*
X69513Y42392D01*
X69571Y42489D01*
X69633Y42584D01*
X69698Y42677D01*
X69766Y42767D01*
X69837Y42855D01*
X69912Y42941D01*
X69989Y43024D01*
X70069Y43104D01*
X70152Y43181D01*
X70238Y43256D01*
X70326Y43327D01*
X70416Y43395D01*
X70509Y43460D01*
X70604Y43522D01*
X70701Y43580D01*
X70800Y43635D01*
X70901Y43686D01*
X71004Y43734D01*
X71108Y43779D01*
X71214Y43819D01*
X71321Y43856D01*
X71429Y43889D01*
X71539Y43919D01*
X71649Y43944D01*
X71760Y43966D01*
X71872Y43983D01*
X71985Y43997D01*
X72098Y44007D01*
X72211Y44013D01*
X72324Y44015D01*
X77516Y44015D01*
X77629Y44013D01*
X77742Y44007D01*
X77855Y43997D01*
X77968Y43983D01*
X78080Y43966D01*
X78191Y43944D01*
X78301Y43919D01*
X78411Y43889D01*
X78519Y43856D01*
X78626Y43819D01*
X78732Y43779D01*
X78836Y43734D01*
X78939Y43686D01*
X79040Y43635D01*
X79139Y43580D01*
X79236Y43522D01*
X79331Y43460D01*
X79424Y43395D01*
X79514Y43327D01*
X79602Y43256D01*
X79688Y43181D01*
X79771Y43104D01*
X79851Y43024D01*
X79928Y42941D01*
X80003Y42855D01*
X80074Y42767D01*
X80142Y42677D01*
X80207Y42584D01*
X80269Y42489D01*
X80327Y42392D01*
X80382Y42293D01*
X80433Y42192D01*
X80481Y42089D01*
X80526Y41985D01*
X80566Y41879D01*
X80603Y41772D01*
X80636Y41664D01*
X80666Y41554D01*
X80691Y41444D01*
X80713Y41333D01*
X80730Y41221D01*
X80744Y41108D01*
X80754Y40995D01*
X80760Y40882D01*
X80762Y40769D01*
X80762Y37524D01*
X71674Y49335D02*
X69078Y52580D01*
X80762Y52580D01*
X80762Y49335D02*
X80762Y55826D01*
D13*
X29210Y22860D02*
X29210Y10160D01*
X22860Y3810D01*
X10160Y3810D02*
X3810Y10160D01*
X29210Y48260D02*
X22860Y54610D01*
X29210Y48260D02*
X29210Y35560D01*
X22860Y29210D01*
X10160Y29210D02*
X3810Y35560D01*
X3810Y48260D01*
X10160Y54610D01*
X22860Y29210D02*
X29210Y22860D01*
X10160Y29210D02*
X3810Y22860D01*
X3810Y10160D01*
X29210Y86360D02*
X29210Y99060D01*
X29210Y86360D02*
X22860Y80010D01*
X10160Y80010D02*
X3810Y86360D01*
X22860Y80010D02*
X29210Y73660D01*
X29210Y60960D01*
X22860Y54610D01*
X10160Y54610D02*
X3810Y60960D01*
X3810Y73660D01*
X10160Y80010D01*
X10160Y105410D02*
X22860Y105410D01*
X29210Y99060D01*
X10160Y105410D02*
X3810Y99060D01*
X3810Y86360D01*
X10160Y3810D02*
X22860Y3810D01*
D14*
X31115Y99146D02*
X34869Y99146D01*
X34934Y99144D01*
X34998Y99138D01*
X35062Y99128D01*
X35126Y99115D01*
X35188Y99097D01*
X35249Y99076D01*
X35309Y99052D01*
X35367Y99023D01*
X35424Y98991D01*
X35478Y98956D01*
X35530Y98918D01*
X35580Y98876D01*
X35627Y98832D01*
X35671Y98785D01*
X35713Y98735D01*
X35751Y98683D01*
X35786Y98629D01*
X35818Y98572D01*
X35847Y98514D01*
X35871Y98454D01*
X35892Y98393D01*
X35910Y98331D01*
X35923Y98267D01*
X35933Y98203D01*
X35939Y98139D01*
X35941Y98074D01*
X35941Y97537D01*
X32187Y102094D02*
X31115Y103434D01*
X35941Y103434D01*
X35941Y102094D02*
X35941Y104775D01*
M02*
