G04 EAGLE Gerber RS-274X export*
G75*
%MOMM*%
%FSLAX34Y34*%
%LPD*%
%INSoldermask Bottom*%
%IPPOS*%
%AMOC8*
5,1,8,0,0,1.08239X$1,22.5*%
G01*
%ADD10R,1.627000X1.427000*%
%ADD11C,2.006600*%
%ADD12R,1.600200X0.482600*%
%ADD13R,1.427000X1.627000*%
%ADD14R,1.803400X0.482600*%
%ADD15R,2.502000X2.027000*%
%ADD16R,1.302000X2.027000*%
%ADD17R,1.602000X2.227000*%
%ADD18R,0.577000X1.507000*%
%ADD19R,5.969000X5.969000*%
%ADD20R,0.762000X1.397000*%
%ADD21C,0.584200*%


D10*
X298450Y379120D03*
X298450Y398120D03*
D11*
X599440Y361950D03*
X624840Y361950D03*
X650240Y361950D03*
X675640Y361950D03*
X701040Y361950D03*
X15240Y241300D03*
X15240Y266700D03*
X15240Y292100D03*
X15240Y317500D03*
X15240Y342900D03*
D10*
X317500Y329590D03*
X317500Y348590D03*
X336550Y396850D03*
X336550Y377850D03*
X180340Y314300D03*
X180340Y295300D03*
X180340Y254660D03*
X180340Y273660D03*
X203200Y314300D03*
X203200Y295300D03*
X203200Y254660D03*
X203200Y273660D03*
X226060Y314300D03*
X226060Y295300D03*
X226060Y254660D03*
X226060Y273660D03*
D12*
X176530Y162520D03*
X176530Y169020D03*
X176530Y175520D03*
X176530Y182020D03*
X176530Y188520D03*
X176530Y195020D03*
X176530Y201520D03*
X176530Y208020D03*
X176530Y214520D03*
X176530Y221020D03*
X234950Y221020D03*
X234950Y214520D03*
X234950Y208020D03*
X234950Y201520D03*
X234950Y195020D03*
X234950Y188520D03*
X234950Y182020D03*
X234950Y175520D03*
X234950Y169020D03*
X234950Y162520D03*
D11*
X678180Y412750D03*
X703580Y412750D03*
X728980Y412750D03*
X754380Y412750D03*
X779780Y412750D03*
X805180Y412750D03*
X88900Y241300D03*
X88900Y266700D03*
X88900Y292100D03*
X88900Y317500D03*
X88900Y342900D03*
X15240Y101600D03*
X15240Y127000D03*
X15240Y152400D03*
X15240Y177800D03*
X15240Y203200D03*
X88900Y101600D03*
X88900Y127000D03*
X88900Y152400D03*
X88900Y177800D03*
X88900Y203200D03*
X900430Y242570D03*
X900430Y267970D03*
X900430Y293370D03*
X900430Y318770D03*
X900430Y344170D03*
X824230Y242570D03*
X824230Y267970D03*
X824230Y293370D03*
X824230Y318770D03*
X824230Y344170D03*
X900430Y102870D03*
X900430Y128270D03*
X900430Y153670D03*
X900430Y179070D03*
X900430Y204470D03*
X824230Y102870D03*
X824230Y128270D03*
X824230Y153670D03*
X824230Y179070D03*
X824230Y204470D03*
X478790Y414020D03*
X453390Y414020D03*
X427990Y414020D03*
X402590Y414020D03*
X377190Y414020D03*
D13*
G36*
X454856Y274051D02*
X444766Y284141D01*
X456270Y295645D01*
X466360Y285555D01*
X454856Y274051D01*
G37*
G36*
X468291Y260615D02*
X458201Y270705D01*
X469705Y282209D01*
X479795Y272119D01*
X468291Y260615D01*
G37*
G36*
X432801Y310955D02*
X442891Y321045D01*
X454395Y309541D01*
X444305Y299451D01*
X432801Y310955D01*
G37*
G36*
X419366Y297519D02*
X429456Y307609D01*
X440960Y296105D01*
X430870Y286015D01*
X419366Y297519D01*
G37*
G36*
X394701Y272855D02*
X404791Y282945D01*
X416295Y271441D01*
X406205Y261351D01*
X394701Y272855D01*
G37*
G36*
X381266Y259419D02*
X391356Y269509D01*
X402860Y258005D01*
X392770Y247915D01*
X381266Y259419D01*
G37*
G36*
X416756Y235951D02*
X406666Y246041D01*
X418170Y257545D01*
X428260Y247455D01*
X416756Y235951D01*
G37*
G36*
X430191Y222515D02*
X420101Y232605D01*
X431605Y244109D01*
X441695Y234019D01*
X430191Y222515D01*
G37*
G36*
X442156Y248651D02*
X432066Y258741D01*
X443570Y270245D01*
X453660Y260155D01*
X442156Y248651D01*
G37*
G36*
X455591Y235215D02*
X445501Y245305D01*
X457005Y256809D01*
X467095Y246719D01*
X455591Y235215D01*
G37*
X633070Y185420D03*
X614070Y185420D03*
X633070Y161290D03*
X614070Y161290D03*
X633070Y137160D03*
X614070Y137160D03*
X633070Y113030D03*
X614070Y113030D03*
X633070Y88900D03*
X614070Y88900D03*
X633070Y64770D03*
X614070Y64770D03*
X633070Y40640D03*
X614070Y40640D03*
X633070Y16510D03*
X614070Y16510D03*
D14*
X168656Y366580D03*
X168656Y373080D03*
X168656Y379580D03*
X168656Y386080D03*
X168656Y392580D03*
X168656Y399080D03*
X168656Y405580D03*
X225044Y405580D03*
X225044Y399080D03*
X225044Y392580D03*
X225044Y386080D03*
X225044Y379580D03*
X225044Y373080D03*
X225044Y366580D03*
D13*
X60300Y317500D03*
X41300Y317500D03*
X60300Y342900D03*
X41300Y342900D03*
X135230Y316230D03*
X116230Y316230D03*
X136500Y342900D03*
X117500Y342900D03*
X60300Y177800D03*
X41300Y177800D03*
X60300Y203200D03*
X41300Y203200D03*
X136500Y177800D03*
X117500Y177800D03*
X136500Y203200D03*
X117500Y203200D03*
X852830Y318770D03*
X871830Y318770D03*
X852830Y344170D03*
X871830Y344170D03*
X776630Y318770D03*
X795630Y318770D03*
X776630Y344170D03*
X795630Y344170D03*
X852830Y179070D03*
X871830Y179070D03*
X852830Y204470D03*
X871830Y204470D03*
X776630Y179070D03*
X795630Y179070D03*
X776630Y204470D03*
X795630Y204470D03*
D11*
X744030Y238530D03*
X718630Y241070D03*
X693230Y238530D03*
D10*
X295910Y73050D03*
X295910Y92050D03*
X447040Y84430D03*
X447040Y65430D03*
X447040Y24790D03*
X447040Y43790D03*
D11*
X518160Y412750D03*
X543560Y412750D03*
X568960Y412750D03*
X594360Y412750D03*
X619760Y412750D03*
X645160Y412750D03*
X387350Y15240D03*
X387350Y40640D03*
X254000Y63500D03*
X254000Y88900D03*
D15*
X346625Y25400D03*
D16*
X325875Y25400D03*
D15*
X288375Y25400D03*
D16*
X309125Y25400D03*
D17*
X342125Y48400D03*
D18*
X317500Y52000D03*
X324000Y52000D03*
X311000Y52000D03*
X330500Y52000D03*
X304500Y52000D03*
D17*
X292875Y48400D03*
D10*
X379730Y73050D03*
X379730Y92050D03*
X331470Y73050D03*
X331470Y92050D03*
D19*
X40640Y398780D03*
X871220Y398780D03*
X40640Y40640D03*
X871220Y40640D03*
D10*
X179070Y24790D03*
X179070Y43790D03*
X179070Y84430D03*
X179070Y65430D03*
X201930Y24790D03*
X201930Y43790D03*
X201930Y84430D03*
X201930Y65430D03*
D13*
X60300Y292100D03*
X41300Y292100D03*
X136500Y292100D03*
X117500Y292100D03*
X60300Y152400D03*
X41300Y152400D03*
X136500Y152400D03*
X117500Y152400D03*
X852830Y293370D03*
X871830Y293370D03*
X776630Y293370D03*
X795630Y293370D03*
X852830Y153670D03*
X871830Y153670D03*
X776630Y153670D03*
X795630Y153670D03*
D11*
X127000Y15240D03*
X127000Y40640D03*
D13*
X488290Y85090D03*
X469290Y85090D03*
D11*
X556260Y148590D03*
X556260Y123190D03*
X556260Y97790D03*
X556260Y72390D03*
X588010Y92710D03*
X588010Y67310D03*
X588010Y41910D03*
X588010Y16510D03*
X603610Y276130D03*
X629010Y273590D03*
X654410Y276130D03*
X693610Y276130D03*
X719010Y273590D03*
X744410Y276130D03*
X603610Y310890D03*
X629010Y308350D03*
X654410Y310890D03*
X693610Y310890D03*
X719010Y308350D03*
X744410Y310890D03*
X603610Y241370D03*
X629010Y238830D03*
X654410Y241370D03*
D20*
X201676Y356870D03*
X209804Y356870D03*
X185166Y372110D03*
X193294Y372110D03*
X201676Y387350D03*
X209804Y387350D03*
X185166Y401320D03*
X193294Y401320D03*
X201676Y416560D03*
X209804Y416560D03*
D21*
X257500Y400000D03*
X130000Y225000D03*
X295000Y255000D03*
X420000Y307500D03*
X405000Y292500D03*
X415000Y232500D03*
X317500Y100000D03*
X500000Y67500D03*
X405000Y255000D03*
X287500Y370000D03*
X550000Y247500D03*
X307700Y267700D03*
X282300Y267700D03*
X295000Y267700D03*
X307700Y255000D03*
X320400Y255000D03*
X333100Y255000D03*
X320400Y267700D03*
X333100Y267700D03*
X269600Y267700D03*
X282300Y255000D03*
X269600Y255000D03*
X256900Y267700D03*
X256900Y255000D03*
X244200Y267700D03*
X244200Y255000D03*
X307700Y293100D03*
X320400Y293100D03*
X307700Y305800D03*
X295000Y305800D03*
X295000Y293100D03*
X282300Y293100D03*
X282300Y305800D03*
X282300Y318500D03*
X282300Y331200D03*
X269600Y293100D03*
X231500Y356600D03*
X231500Y343900D03*
X244200Y343900D03*
X244200Y331200D03*
X256900Y318500D03*
X256900Y331200D03*
X91800Y394700D03*
X91800Y382000D03*
X104500Y382000D03*
X104500Y369300D03*
X117200Y369300D03*
X117200Y382000D03*
X117200Y394700D03*
X104500Y394700D03*
X129900Y394700D03*
X129900Y382000D03*
X129900Y369300D03*
X142600Y369300D03*
X142600Y382000D03*
X142600Y394700D03*
X53700Y267700D03*
X66400Y267700D03*
X295000Y191500D03*
X295000Y178800D03*
X307700Y204200D03*
X307700Y191500D03*
X333100Y166100D03*
X383900Y140700D03*
X256900Y229600D03*
X256900Y216900D03*
X282300Y128000D03*
X295000Y128000D03*
X282300Y140700D03*
X422000Y64500D03*
X409300Y77200D03*
X422000Y89900D03*
X409300Y102600D03*
X422000Y140700D03*
X815700Y51800D03*
X803000Y64500D03*
X815700Y77200D03*
X803000Y77200D03*
X803000Y89900D03*
X866500Y115300D03*
X866500Y128000D03*
X853800Y115300D03*
X853800Y255000D03*
X866500Y267700D03*
X853800Y267700D03*
X841100Y267700D03*
X803000Y382000D03*
X815700Y382000D03*
X815700Y369300D03*
X803000Y369300D03*
X790300Y382000D03*
X472800Y369300D03*
X447400Y369300D03*
X422000Y369300D03*
X780000Y192500D03*
X837500Y220000D03*
X220000Y360000D03*
X470000Y40000D03*
X467500Y290000D03*
X397500Y290000D03*
X385000Y365000D03*
X782500Y360000D03*
X255000Y170000D03*
X392500Y277500D03*
X492500Y320000D03*
X247500Y170000D03*
X770000Y192500D03*
X687500Y200000D03*
X360000Y345000D03*
X487500Y330000D03*
X205000Y367500D03*
X377500Y432500D03*
X305000Y345000D03*
X350000Y432500D03*
X277500Y392500D03*
X460000Y340000D03*
X475000Y392500D03*
X330000Y345000D03*
X162500Y165000D03*
X192500Y265000D03*
X190000Y170000D03*
X215000Y262500D03*
X190000Y177500D03*
X210000Y285000D03*
X165000Y182500D03*
X165000Y190000D03*
X147500Y260000D03*
X142500Y220000D03*
X187500Y202500D03*
X165000Y210000D03*
X160000Y215000D03*
X102500Y235000D03*
X45000Y227500D03*
X197500Y192500D03*
X745000Y217500D03*
X842500Y225000D03*
X757500Y230000D03*
X820000Y357500D03*
X782500Y305000D03*
X497500Y210000D03*
X797500Y192500D03*
X505000Y90000D03*
X765000Y130000D03*
X807500Y172500D03*
X500000Y170000D03*
X805000Y130000D03*
X842500Y115000D03*
X800000Y135000D03*
X807500Y102500D03*
X755000Y145000D03*
X810000Y150000D03*
X645000Y175000D03*
X645000Y150000D03*
X642500Y127500D03*
X645000Y105000D03*
X507500Y220000D03*
X487500Y217500D03*
X437500Y150000D03*
X570000Y177500D03*
X452500Y142500D03*
X465000Y137500D03*
X470000Y160000D03*
X517500Y137500D03*
X462500Y227500D03*
X530000Y225000D03*
X645000Y85000D03*
X645000Y52500D03*
X645000Y35000D03*
X645000Y15000D03*
X395000Y322500D03*
X625000Y345000D03*
X390000Y360000D03*
X517500Y387500D03*
X435000Y392500D03*
X395000Y355000D03*
X587500Y382500D03*
X180000Y362500D03*
X202500Y375000D03*
X155000Y385000D03*
X155000Y397500D03*
X462500Y237500D03*
X462500Y72500D03*
X167500Y27500D03*
X212500Y52500D03*
X167500Y35000D03*
X167500Y87500D03*
X167500Y80000D03*
X477500Y62500D03*
X505000Y295000D03*
X527500Y310000D03*
X517500Y292500D03*
X342500Y150000D03*
X362500Y145000D03*
X580000Y325000D03*
X682500Y332500D03*
X525000Y282500D03*
X530000Y297500D03*
X480000Y262500D03*
X585000Y315000D03*
X485000Y257500D03*
X485000Y205000D03*
X700000Y205000D03*
X472500Y197500D03*
X630000Y200000D03*
X672500Y297500D03*
X467500Y192500D03*
X602500Y192500D03*
X455000Y270000D03*
X272500Y422500D03*
X440000Y425000D03*
M02*
