G04 EAGLE Gerber RS-274X export*
G75*
%MOMM*%
%FSLAX34Y34*%
%LPD*%
%INSoldermask Top*%
%IPPOS*%
%AMOC8*
5,1,8,0,0,1.08239X$1,22.5*%
G01*
%ADD10R,1.602000X0.427000*%
%ADD11C,2.006600*%
%ADD12R,1.627000X1.427000*%
%ADD13R,1.427000X1.677000*%
%ADD14R,1.600200X0.482600*%
%ADD15R,1.327000X1.327000*%
%ADD16R,1.427000X1.627000*%
%ADD17R,0.635000X1.447800*%
%ADD18C,0.157409*%
%ADD19R,0.939800X0.381000*%
%ADD20R,1.879600X2.616200*%
%ADD21R,4.027000X1.727000*%
%ADD22R,1.219200X1.294350*%
%ADD23R,5.969000X5.969000*%
%ADD24R,1.727000X1.527000*%
%ADD25R,1.227000X1.427000*%
%ADD26R,1.927000X1.527000*%
%ADD27R,1.527000X2.027000*%
%ADD28R,0.927000X1.627000*%
%ADD29C,0.584200*%


D10*
G36*
X496797Y275333D02*
X508124Y286660D01*
X511143Y283641D01*
X499816Y272314D01*
X496797Y275333D01*
G37*
G36*
X493262Y278869D02*
X504589Y290196D01*
X507608Y287177D01*
X496281Y275850D01*
X493262Y278869D01*
G37*
G36*
X489726Y282404D02*
X501053Y293731D01*
X504072Y290712D01*
X492745Y279385D01*
X489726Y282404D01*
G37*
G36*
X486191Y285940D02*
X497518Y297267D01*
X500537Y294248D01*
X489210Y282921D01*
X486191Y285940D01*
G37*
G36*
X482655Y289475D02*
X493982Y300802D01*
X497001Y297783D01*
X485674Y286456D01*
X482655Y289475D01*
G37*
G36*
X479120Y293011D02*
X490447Y304338D01*
X493466Y301319D01*
X482139Y289992D01*
X479120Y293011D01*
G37*
G36*
X475584Y296546D02*
X486911Y307873D01*
X489930Y304854D01*
X478603Y293527D01*
X475584Y296546D01*
G37*
G36*
X472049Y300082D02*
X483376Y311409D01*
X486395Y308390D01*
X475068Y297063D01*
X472049Y300082D01*
G37*
G36*
X468513Y303618D02*
X479840Y314945D01*
X482859Y311926D01*
X471532Y300599D01*
X468513Y303618D01*
G37*
G36*
X464977Y307153D02*
X476304Y318480D01*
X479323Y315461D01*
X467996Y304134D01*
X464977Y307153D01*
G37*
G36*
X461442Y310689D02*
X472769Y322016D01*
X475788Y318997D01*
X464461Y307670D01*
X461442Y310689D01*
G37*
G36*
X457906Y314224D02*
X469233Y325551D01*
X472252Y322532D01*
X460925Y311205D01*
X457906Y314224D01*
G37*
G36*
X454371Y317760D02*
X465698Y329087D01*
X468717Y326068D01*
X457390Y314741D01*
X454371Y317760D01*
G37*
G36*
X450835Y321295D02*
X462162Y332622D01*
X465181Y329603D01*
X453854Y318276D01*
X450835Y321295D01*
G37*
G36*
X447300Y324831D02*
X458627Y336158D01*
X461646Y333139D01*
X450319Y321812D01*
X447300Y324831D01*
G37*
G36*
X443764Y328366D02*
X455091Y339693D01*
X458110Y336674D01*
X446783Y325347D01*
X443764Y328366D01*
G37*
G36*
X426977Y325347D02*
X415650Y336674D01*
X418669Y339693D01*
X429996Y328366D01*
X426977Y325347D01*
G37*
G36*
X423441Y321812D02*
X412114Y333139D01*
X415133Y336158D01*
X426460Y324831D01*
X423441Y321812D01*
G37*
G36*
X419906Y318276D02*
X408579Y329603D01*
X411598Y332622D01*
X422925Y321295D01*
X419906Y318276D01*
G37*
G36*
X416370Y314741D02*
X405043Y326068D01*
X408062Y329087D01*
X419389Y317760D01*
X416370Y314741D01*
G37*
G36*
X412835Y311205D02*
X401508Y322532D01*
X404527Y325551D01*
X415854Y314224D01*
X412835Y311205D01*
G37*
G36*
X409299Y307670D02*
X397972Y318997D01*
X400991Y322016D01*
X412318Y310689D01*
X409299Y307670D01*
G37*
G36*
X405764Y304134D02*
X394437Y315461D01*
X397456Y318480D01*
X408783Y307153D01*
X405764Y304134D01*
G37*
G36*
X402228Y300599D02*
X390901Y311926D01*
X393920Y314945D01*
X405247Y303618D01*
X402228Y300599D01*
G37*
G36*
X398692Y297063D02*
X387365Y308390D01*
X390384Y311409D01*
X401711Y300082D01*
X398692Y297063D01*
G37*
G36*
X395157Y293527D02*
X383830Y304854D01*
X386849Y307873D01*
X398176Y296546D01*
X395157Y293527D01*
G37*
G36*
X391621Y289992D02*
X380294Y301319D01*
X383313Y304338D01*
X394640Y293011D01*
X391621Y289992D01*
G37*
G36*
X388086Y286456D02*
X376759Y297783D01*
X379778Y300802D01*
X391105Y289475D01*
X388086Y286456D01*
G37*
G36*
X384550Y282921D02*
X373223Y294248D01*
X376242Y297267D01*
X387569Y285940D01*
X384550Y282921D01*
G37*
G36*
X381015Y279385D02*
X369688Y290712D01*
X372707Y293731D01*
X384034Y282404D01*
X381015Y279385D01*
G37*
G36*
X377479Y275850D02*
X366152Y287177D01*
X369171Y290196D01*
X380498Y278869D01*
X377479Y275850D01*
G37*
G36*
X373944Y272314D02*
X362617Y283641D01*
X365636Y286660D01*
X376963Y275333D01*
X373944Y272314D01*
G37*
G36*
X362617Y247219D02*
X373944Y258546D01*
X376963Y255527D01*
X365636Y244200D01*
X362617Y247219D01*
G37*
G36*
X366152Y243683D02*
X377479Y255010D01*
X380498Y251991D01*
X369171Y240664D01*
X366152Y243683D01*
G37*
G36*
X369688Y240148D02*
X381015Y251475D01*
X384034Y248456D01*
X372707Y237129D01*
X369688Y240148D01*
G37*
G36*
X373223Y236612D02*
X384550Y247939D01*
X387569Y244920D01*
X376242Y233593D01*
X373223Y236612D01*
G37*
G36*
X376759Y233077D02*
X388086Y244404D01*
X391105Y241385D01*
X379778Y230058D01*
X376759Y233077D01*
G37*
G36*
X380294Y229541D02*
X391621Y240868D01*
X394640Y237849D01*
X383313Y226522D01*
X380294Y229541D01*
G37*
G36*
X383830Y226006D02*
X395157Y237333D01*
X398176Y234314D01*
X386849Y222987D01*
X383830Y226006D01*
G37*
G36*
X387365Y222470D02*
X398692Y233797D01*
X401711Y230778D01*
X390384Y219451D01*
X387365Y222470D01*
G37*
G36*
X390901Y218934D02*
X402228Y230261D01*
X405247Y227242D01*
X393920Y215915D01*
X390901Y218934D01*
G37*
G36*
X394437Y215399D02*
X405764Y226726D01*
X408783Y223707D01*
X397456Y212380D01*
X394437Y215399D01*
G37*
G36*
X397972Y211863D02*
X409299Y223190D01*
X412318Y220171D01*
X400991Y208844D01*
X397972Y211863D01*
G37*
G36*
X401508Y208328D02*
X412835Y219655D01*
X415854Y216636D01*
X404527Y205309D01*
X401508Y208328D01*
G37*
G36*
X405043Y204792D02*
X416370Y216119D01*
X419389Y213100D01*
X408062Y201773D01*
X405043Y204792D01*
G37*
G36*
X408579Y201257D02*
X419906Y212584D01*
X422925Y209565D01*
X411598Y198238D01*
X408579Y201257D01*
G37*
G36*
X412114Y197721D02*
X423441Y209048D01*
X426460Y206029D01*
X415133Y194702D01*
X412114Y197721D01*
G37*
G36*
X415650Y194186D02*
X426977Y205513D01*
X429996Y202494D01*
X418669Y191167D01*
X415650Y194186D01*
G37*
G36*
X455091Y191167D02*
X443764Y202494D01*
X446783Y205513D01*
X458110Y194186D01*
X455091Y191167D01*
G37*
G36*
X458627Y194702D02*
X447300Y206029D01*
X450319Y209048D01*
X461646Y197721D01*
X458627Y194702D01*
G37*
G36*
X462162Y198238D02*
X450835Y209565D01*
X453854Y212584D01*
X465181Y201257D01*
X462162Y198238D01*
G37*
G36*
X465698Y201773D02*
X454371Y213100D01*
X457390Y216119D01*
X468717Y204792D01*
X465698Y201773D01*
G37*
G36*
X469233Y205309D02*
X457906Y216636D01*
X460925Y219655D01*
X472252Y208328D01*
X469233Y205309D01*
G37*
G36*
X472769Y208844D02*
X461442Y220171D01*
X464461Y223190D01*
X475788Y211863D01*
X472769Y208844D01*
G37*
G36*
X476304Y212380D02*
X464977Y223707D01*
X467996Y226726D01*
X479323Y215399D01*
X476304Y212380D01*
G37*
G36*
X479840Y215915D02*
X468513Y227242D01*
X471532Y230261D01*
X482859Y218934D01*
X479840Y215915D01*
G37*
G36*
X483376Y219451D02*
X472049Y230778D01*
X475068Y233797D01*
X486395Y222470D01*
X483376Y219451D01*
G37*
G36*
X486911Y222987D02*
X475584Y234314D01*
X478603Y237333D01*
X489930Y226006D01*
X486911Y222987D01*
G37*
G36*
X490447Y226522D02*
X479120Y237849D01*
X482139Y240868D01*
X493466Y229541D01*
X490447Y226522D01*
G37*
G36*
X493982Y230058D02*
X482655Y241385D01*
X485674Y244404D01*
X497001Y233077D01*
X493982Y230058D01*
G37*
G36*
X497518Y233593D02*
X486191Y244920D01*
X489210Y247939D01*
X500537Y236612D01*
X497518Y233593D01*
G37*
G36*
X501053Y237129D02*
X489726Y248456D01*
X492745Y251475D01*
X504072Y240148D01*
X501053Y237129D01*
G37*
G36*
X504589Y240664D02*
X493262Y251991D01*
X496281Y255010D01*
X507608Y243683D01*
X504589Y240664D01*
G37*
G36*
X508124Y244200D02*
X496797Y255527D01*
X499816Y258546D01*
X511143Y247219D01*
X508124Y244200D01*
G37*
D11*
X599440Y361950D03*
X624840Y361950D03*
X650240Y361950D03*
X675640Y361950D03*
X701040Y361950D03*
X15240Y241300D03*
X15240Y266700D03*
X15240Y292100D03*
X15240Y317500D03*
X15240Y342900D03*
D12*
X727710Y92050D03*
X727710Y73050D03*
X753110Y31140D03*
X753110Y50140D03*
X753110Y92050D03*
X753110Y73050D03*
X778510Y31140D03*
X778510Y50140D03*
X778510Y92050D03*
X778510Y73050D03*
X727710Y31140D03*
X727710Y50140D03*
D13*
X295000Y404240D03*
X295000Y324740D03*
X340000Y404240D03*
X340000Y324740D03*
D14*
X723900Y185460D03*
X723900Y178960D03*
X723900Y172460D03*
X723900Y165960D03*
X723900Y159460D03*
X723900Y152960D03*
X723900Y146460D03*
X723900Y139960D03*
X723900Y133460D03*
X723900Y126960D03*
X782320Y126960D03*
X782320Y133460D03*
X782320Y139960D03*
X782320Y146460D03*
X782320Y152960D03*
X782320Y159460D03*
X782320Y165960D03*
X782320Y172460D03*
X782320Y178960D03*
X782320Y185460D03*
D11*
X678180Y412750D03*
X703580Y412750D03*
X728980Y412750D03*
X754380Y412750D03*
X779780Y412750D03*
X805180Y412750D03*
X88900Y241300D03*
X88900Y266700D03*
X88900Y292100D03*
X88900Y317500D03*
X88900Y342900D03*
X15240Y101600D03*
X15240Y127000D03*
X15240Y152400D03*
X15240Y177800D03*
X15240Y203200D03*
X88900Y101600D03*
X88900Y127000D03*
X88900Y152400D03*
X88900Y177800D03*
X88900Y203200D03*
X900430Y242570D03*
X900430Y267970D03*
X900430Y293370D03*
X900430Y318770D03*
X900430Y344170D03*
X824230Y242570D03*
X824230Y267970D03*
X824230Y293370D03*
X824230Y318770D03*
X824230Y344170D03*
X900430Y102870D03*
X900430Y128270D03*
X900430Y153670D03*
X900430Y179070D03*
X900430Y204470D03*
X824230Y102870D03*
X824230Y128270D03*
X824230Y153670D03*
X824230Y179070D03*
X824230Y204470D03*
X478790Y414020D03*
X453390Y414020D03*
X427990Y414020D03*
X402590Y414020D03*
X377190Y414020D03*
D15*
X679790Y147320D03*
X658790Y147320D03*
X679790Y128270D03*
X658790Y128270D03*
X679790Y109220D03*
X658790Y109220D03*
X679790Y90170D03*
X658790Y90170D03*
X679790Y71120D03*
X658790Y71120D03*
X679790Y52070D03*
X658790Y52070D03*
X679790Y33020D03*
X658790Y33020D03*
X679790Y13970D03*
X658790Y13970D03*
D12*
X772160Y370180D03*
X772160Y351180D03*
X746760Y370180D03*
X746760Y351180D03*
D11*
X744030Y238530D03*
X718630Y241070D03*
X693230Y238530D03*
D12*
X350520Y24790D03*
X350520Y43790D03*
D16*
X308000Y44450D03*
X327000Y44450D03*
D17*
X327000Y89154D03*
X317500Y89154D03*
X308000Y89154D03*
X308000Y63246D03*
X327000Y63246D03*
D15*
X328000Y22860D03*
X307000Y22860D03*
D12*
X359410Y88240D03*
X359410Y69240D03*
D18*
X489762Y48748D02*
X494758Y48748D01*
X494758Y45552D01*
X489762Y45552D01*
X489762Y48748D01*
X489762Y47047D02*
X494758Y47047D01*
X494758Y48542D02*
X489762Y48542D01*
X489762Y53748D02*
X494758Y53748D01*
X494758Y50552D01*
X489762Y50552D01*
X489762Y53748D01*
X489762Y52047D02*
X494758Y52047D01*
X494758Y53542D02*
X489762Y53542D01*
X489762Y58748D02*
X494758Y58748D01*
X494758Y55552D01*
X489762Y55552D01*
X489762Y58748D01*
X489762Y57047D02*
X494758Y57047D01*
X494758Y58542D02*
X489762Y58542D01*
X489762Y63748D02*
X494758Y63748D01*
X494758Y60552D01*
X489762Y60552D01*
X489762Y63748D01*
X489762Y62047D02*
X494758Y62047D01*
X494758Y63542D02*
X489762Y63542D01*
X489762Y68748D02*
X494758Y68748D01*
X494758Y65552D01*
X489762Y65552D01*
X489762Y68748D01*
X489762Y67047D02*
X494758Y67047D01*
X494758Y68542D02*
X489762Y68542D01*
X483462Y66852D02*
X483462Y71848D01*
X486658Y71848D01*
X486658Y66852D01*
X483462Y66852D01*
X483462Y68347D02*
X486658Y68347D01*
X486658Y69842D02*
X483462Y69842D01*
X483462Y71337D02*
X486658Y71337D01*
X478462Y71848D02*
X478462Y66852D01*
X478462Y71848D02*
X481658Y71848D01*
X481658Y66852D01*
X478462Y66852D01*
X478462Y68347D02*
X481658Y68347D01*
X481658Y69842D02*
X478462Y69842D01*
X478462Y71337D02*
X481658Y71337D01*
X473462Y71848D02*
X473462Y66852D01*
X473462Y71848D02*
X476658Y71848D01*
X476658Y66852D01*
X473462Y66852D01*
X473462Y68347D02*
X476658Y68347D01*
X476658Y69842D02*
X473462Y69842D01*
X473462Y71337D02*
X476658Y71337D01*
X470358Y65552D02*
X465362Y65552D01*
X465362Y68748D01*
X470358Y68748D01*
X470358Y65552D01*
X470358Y67047D02*
X465362Y67047D01*
X465362Y68542D02*
X470358Y68542D01*
X470358Y60552D02*
X465362Y60552D01*
X465362Y63748D01*
X470358Y63748D01*
X470358Y60552D01*
X470358Y62047D02*
X465362Y62047D01*
X465362Y63542D02*
X470358Y63542D01*
X470358Y55552D02*
X465362Y55552D01*
X465362Y58748D01*
X470358Y58748D01*
X470358Y55552D01*
X470358Y57047D02*
X465362Y57047D01*
X465362Y58542D02*
X470358Y58542D01*
X470358Y50552D02*
X465362Y50552D01*
X465362Y53748D01*
X470358Y53748D01*
X470358Y50552D01*
X470358Y52047D02*
X465362Y52047D01*
X465362Y53542D02*
X470358Y53542D01*
X470358Y45552D02*
X465362Y45552D01*
X465362Y48748D01*
X470358Y48748D01*
X470358Y45552D01*
X470358Y47047D02*
X465362Y47047D01*
X465362Y48542D02*
X470358Y48542D01*
X476658Y47448D02*
X476658Y42452D01*
X473462Y42452D01*
X473462Y47448D01*
X476658Y47448D01*
X476658Y43947D02*
X473462Y43947D01*
X473462Y45442D02*
X476658Y45442D01*
X476658Y46937D02*
X473462Y46937D01*
X481658Y47448D02*
X481658Y42452D01*
X478462Y42452D01*
X478462Y47448D01*
X481658Y47448D01*
X481658Y43947D02*
X478462Y43947D01*
X478462Y45442D02*
X481658Y45442D01*
X481658Y46937D02*
X478462Y46937D01*
X486658Y47448D02*
X486658Y42452D01*
X483462Y42452D01*
X483462Y47448D01*
X486658Y47448D01*
X486658Y43947D02*
X483462Y43947D01*
X483462Y45442D02*
X486658Y45442D01*
X486658Y46937D02*
X483462Y46937D01*
D11*
X518160Y412750D03*
X543560Y412750D03*
X568960Y412750D03*
X594360Y412750D03*
X619760Y412750D03*
X645160Y412750D03*
X387350Y15240D03*
X387350Y40640D03*
X254000Y63500D03*
X254000Y88900D03*
D19*
X205232Y66197D03*
X205232Y71199D03*
X205232Y76200D03*
X205232Y81201D03*
X205232Y86203D03*
X175768Y86203D03*
X175768Y81201D03*
X175768Y76200D03*
X175768Y71199D03*
X175768Y66197D03*
D20*
X190500Y76200D03*
D12*
X224790Y86970D03*
X224790Y67970D03*
D16*
X181000Y16510D03*
X200000Y16510D03*
D12*
X223520Y18440D03*
X223520Y37440D03*
D16*
X200000Y38100D03*
X181000Y38100D03*
D21*
X135890Y75670D03*
X135890Y104670D03*
D22*
G36*
X530172Y249233D02*
X538793Y240612D01*
X529642Y231461D01*
X521021Y240082D01*
X530172Y249233D01*
G37*
G36*
X539698Y258759D02*
X548319Y250138D01*
X539168Y240987D01*
X530547Y249608D01*
X539698Y258759D01*
G37*
D23*
X40640Y398780D03*
X871220Y398780D03*
X40640Y40640D03*
X871220Y40640D03*
D11*
X127000Y15240D03*
X127000Y40640D03*
D16*
X493370Y13970D03*
X474370Y13970D03*
D24*
X443230Y41940D03*
X443230Y13940D03*
D25*
X354220Y207080D03*
X354220Y184080D03*
X372220Y184080D03*
X372220Y207080D03*
D16*
X371720Y156210D03*
X354720Y156210D03*
D12*
X330200Y204080D03*
X330200Y187080D03*
D16*
G36*
X310075Y154671D02*
X299985Y164761D01*
X311489Y176265D01*
X321579Y166175D01*
X310075Y154671D01*
G37*
G36*
X323511Y141235D02*
X313421Y151325D01*
X324925Y162829D01*
X335015Y152739D01*
X323511Y141235D01*
G37*
D11*
X556260Y148590D03*
X556260Y123190D03*
X556260Y97790D03*
X556260Y72390D03*
X588010Y92710D03*
X588010Y67310D03*
X588010Y41910D03*
X588010Y16510D03*
X603610Y276130D03*
X629010Y273590D03*
X654410Y276130D03*
X693610Y276130D03*
X719010Y273590D03*
X744410Y276130D03*
X603610Y310890D03*
X629010Y308350D03*
X654410Y310890D03*
X693610Y310890D03*
X719010Y308350D03*
X744410Y310890D03*
X603610Y241370D03*
X629010Y238830D03*
X654410Y241370D03*
D26*
X185390Y285940D03*
X242390Y285940D03*
D27*
X258390Y417440D03*
X126890Y427440D03*
D28*
X173490Y388940D03*
X184490Y384940D03*
X195490Y388940D03*
X206490Y390940D03*
X217490Y388940D03*
X228490Y390940D03*
X239490Y388940D03*
X250490Y388940D03*
D29*
X257500Y400000D03*
X130000Y225000D03*
X295000Y255000D03*
X420000Y307500D03*
X405000Y292500D03*
X415000Y232500D03*
X317500Y100000D03*
X500000Y67500D03*
X405000Y255000D03*
X287500Y370000D03*
X550000Y247500D03*
X307700Y267700D03*
X282300Y267700D03*
X295000Y267700D03*
X307700Y255000D03*
X320400Y255000D03*
X333100Y255000D03*
X320400Y267700D03*
X333100Y267700D03*
X269600Y267700D03*
X282300Y255000D03*
X269600Y255000D03*
X256900Y267700D03*
X256900Y255000D03*
X244200Y267700D03*
X244200Y255000D03*
X307700Y293100D03*
X320400Y293100D03*
X307700Y305800D03*
X295000Y305800D03*
X295000Y293100D03*
X282300Y293100D03*
X282300Y305800D03*
X282300Y318500D03*
X282300Y331200D03*
X269600Y293100D03*
X231500Y356600D03*
X231500Y343900D03*
X244200Y343900D03*
X244200Y331200D03*
X256900Y318500D03*
X256900Y331200D03*
X91800Y394700D03*
X91800Y382000D03*
X104500Y382000D03*
X104500Y369300D03*
X117200Y369300D03*
X117200Y382000D03*
X117200Y394700D03*
X104500Y394700D03*
X129900Y394700D03*
X129900Y382000D03*
X129900Y369300D03*
X142600Y369300D03*
X142600Y382000D03*
X142600Y394700D03*
X53700Y267700D03*
X66400Y267700D03*
X295000Y191500D03*
X295000Y178800D03*
X307700Y204200D03*
X307700Y191500D03*
X333100Y166100D03*
X383900Y140700D03*
X256900Y229600D03*
X256900Y216900D03*
X282300Y128000D03*
X295000Y128000D03*
X282300Y140700D03*
X422000Y64500D03*
X409300Y77200D03*
X422000Y89900D03*
X409300Y102600D03*
X422000Y140700D03*
X815700Y51800D03*
X803000Y64500D03*
X815700Y77200D03*
X803000Y77200D03*
X803000Y89900D03*
X866500Y115300D03*
X866500Y128000D03*
X853800Y115300D03*
X853800Y255000D03*
X866500Y267700D03*
X853800Y267700D03*
X841100Y267700D03*
X803000Y382000D03*
X815700Y382000D03*
X815700Y369300D03*
X803000Y369300D03*
X790300Y382000D03*
X472800Y369300D03*
X447400Y369300D03*
X422000Y369300D03*
X780000Y192500D03*
X837500Y220000D03*
X220000Y360000D03*
X470000Y40000D03*
X467500Y290000D03*
X397500Y290000D03*
X385000Y365000D03*
X782500Y360000D03*
X255000Y170000D03*
X392500Y277500D03*
X492500Y320000D03*
X247500Y170000D03*
X770000Y192500D03*
X687500Y200000D03*
X360000Y345000D03*
X487500Y330000D03*
X205000Y367500D03*
X377500Y432500D03*
X305000Y345000D03*
X350000Y432500D03*
X277500Y392500D03*
X460000Y340000D03*
X475000Y392500D03*
X330000Y345000D03*
X162500Y165000D03*
X192500Y265000D03*
X190000Y170000D03*
X215000Y262500D03*
X190000Y177500D03*
X210000Y285000D03*
X165000Y182500D03*
X165000Y190000D03*
X147500Y260000D03*
X142500Y220000D03*
X187500Y202500D03*
X165000Y210000D03*
X160000Y215000D03*
X102500Y235000D03*
X45000Y227500D03*
X197500Y192500D03*
X745000Y217500D03*
X842500Y225000D03*
X757500Y230000D03*
X820000Y357500D03*
X782500Y305000D03*
X497500Y210000D03*
X797500Y192500D03*
X505000Y90000D03*
X765000Y130000D03*
X807500Y172500D03*
X500000Y170000D03*
X805000Y130000D03*
X842500Y115000D03*
X800000Y135000D03*
X807500Y102500D03*
X755000Y145000D03*
X810000Y150000D03*
X645000Y175000D03*
X645000Y150000D03*
X642500Y127500D03*
X645000Y105000D03*
X507500Y220000D03*
X487500Y217500D03*
X437500Y150000D03*
X570000Y177500D03*
X452500Y142500D03*
X465000Y137500D03*
X470000Y160000D03*
X517500Y137500D03*
X462500Y227500D03*
X530000Y225000D03*
X645000Y85000D03*
X645000Y52500D03*
X645000Y35000D03*
X645000Y15000D03*
X395000Y322500D03*
X625000Y345000D03*
X390000Y360000D03*
X517500Y387500D03*
X435000Y392500D03*
X395000Y355000D03*
X587500Y382500D03*
X180000Y362500D03*
X202500Y375000D03*
X155000Y385000D03*
X155000Y397500D03*
X462500Y237500D03*
X462500Y72500D03*
X167500Y27500D03*
X212500Y52500D03*
X167500Y35000D03*
X167500Y87500D03*
X167500Y80000D03*
X477500Y62500D03*
X505000Y295000D03*
X527500Y310000D03*
X517500Y292500D03*
X342500Y150000D03*
X362500Y145000D03*
X580000Y325000D03*
X682500Y332500D03*
X525000Y282500D03*
X530000Y297500D03*
X480000Y262500D03*
X585000Y315000D03*
X485000Y257500D03*
X485000Y205000D03*
X700000Y205000D03*
X472500Y197500D03*
X630000Y200000D03*
X672500Y297500D03*
X467500Y192500D03*
X602500Y192500D03*
X455000Y270000D03*
X272500Y422500D03*
X440000Y425000D03*
M02*
