G04 EAGLE Gerber RS-274X export*
G75*
%MOMM*%
%FSLAX34Y34*%
%LPD*%
%INSolderpaste Top*%
%IPPOS*%
%AMOC8*
5,1,8,0,0,1.08239X$1,22.5*%
G01*
%ADD10R,1.475000X0.300000*%
%ADD11R,1.500000X1.300000*%
%ADD12R,1.300000X1.550000*%
%ADD13R,1.473200X0.355600*%
%ADD14R,1.200000X1.200000*%
%ADD15R,1.300000X1.500000*%
%ADD16R,0.508000X1.320800*%
%ADD17C,0.031500*%
%ADD18R,0.812800X0.254000*%
%ADD19R,1.752600X2.489200*%
%ADD20R,3.900000X1.600000*%
%ADD21R,1.092200X1.167350*%
%ADD22R,1.600000X1.400000*%
%ADD23R,1.100000X1.300000*%
%ADD24R,1.800000X1.400000*%
%ADD25R,1.400000X1.900000*%
%ADD26R,0.800000X1.500000*%


D10*
G36*
X497695Y275333D02*
X508124Y285762D01*
X510245Y283641D01*
X499816Y273212D01*
X497695Y275333D01*
G37*
G36*
X494160Y278869D02*
X504589Y289298D01*
X506710Y287177D01*
X496281Y276748D01*
X494160Y278869D01*
G37*
G36*
X490624Y282404D02*
X501053Y292833D01*
X503174Y290712D01*
X492745Y280283D01*
X490624Y282404D01*
G37*
G36*
X487089Y285940D02*
X497518Y296369D01*
X499639Y294248D01*
X489210Y283819D01*
X487089Y285940D01*
G37*
G36*
X483553Y289475D02*
X493982Y299904D01*
X496103Y297783D01*
X485674Y287354D01*
X483553Y289475D01*
G37*
G36*
X480018Y293011D02*
X490447Y303440D01*
X492568Y301319D01*
X482139Y290890D01*
X480018Y293011D01*
G37*
G36*
X476482Y296546D02*
X486911Y306975D01*
X489032Y304854D01*
X478603Y294425D01*
X476482Y296546D01*
G37*
G36*
X472947Y300082D02*
X483376Y310511D01*
X485497Y308390D01*
X475068Y297961D01*
X472947Y300082D01*
G37*
G36*
X469411Y303618D02*
X479840Y314047D01*
X481961Y311926D01*
X471532Y301497D01*
X469411Y303618D01*
G37*
G36*
X465875Y307153D02*
X476304Y317582D01*
X478425Y315461D01*
X467996Y305032D01*
X465875Y307153D01*
G37*
G36*
X462340Y310689D02*
X472769Y321118D01*
X474890Y318997D01*
X464461Y308568D01*
X462340Y310689D01*
G37*
G36*
X458804Y314224D02*
X469233Y324653D01*
X471354Y322532D01*
X460925Y312103D01*
X458804Y314224D01*
G37*
G36*
X455269Y317760D02*
X465698Y328189D01*
X467819Y326068D01*
X457390Y315639D01*
X455269Y317760D01*
G37*
G36*
X451733Y321295D02*
X462162Y331724D01*
X464283Y329603D01*
X453854Y319174D01*
X451733Y321295D01*
G37*
G36*
X448198Y324831D02*
X458627Y335260D01*
X460748Y333139D01*
X450319Y322710D01*
X448198Y324831D01*
G37*
G36*
X444662Y328366D02*
X455091Y338795D01*
X457212Y336674D01*
X446783Y326245D01*
X444662Y328366D01*
G37*
G36*
X426977Y326245D02*
X416548Y336674D01*
X418669Y338795D01*
X429098Y328366D01*
X426977Y326245D01*
G37*
G36*
X423441Y322710D02*
X413012Y333139D01*
X415133Y335260D01*
X425562Y324831D01*
X423441Y322710D01*
G37*
G36*
X419906Y319174D02*
X409477Y329603D01*
X411598Y331724D01*
X422027Y321295D01*
X419906Y319174D01*
G37*
G36*
X416370Y315639D02*
X405941Y326068D01*
X408062Y328189D01*
X418491Y317760D01*
X416370Y315639D01*
G37*
G36*
X412835Y312103D02*
X402406Y322532D01*
X404527Y324653D01*
X414956Y314224D01*
X412835Y312103D01*
G37*
G36*
X409299Y308568D02*
X398870Y318997D01*
X400991Y321118D01*
X411420Y310689D01*
X409299Y308568D01*
G37*
G36*
X405764Y305032D02*
X395335Y315461D01*
X397456Y317582D01*
X407885Y307153D01*
X405764Y305032D01*
G37*
G36*
X402228Y301497D02*
X391799Y311926D01*
X393920Y314047D01*
X404349Y303618D01*
X402228Y301497D01*
G37*
G36*
X398692Y297961D02*
X388263Y308390D01*
X390384Y310511D01*
X400813Y300082D01*
X398692Y297961D01*
G37*
G36*
X395157Y294425D02*
X384728Y304854D01*
X386849Y306975D01*
X397278Y296546D01*
X395157Y294425D01*
G37*
G36*
X391621Y290890D02*
X381192Y301319D01*
X383313Y303440D01*
X393742Y293011D01*
X391621Y290890D01*
G37*
G36*
X388086Y287354D02*
X377657Y297783D01*
X379778Y299904D01*
X390207Y289475D01*
X388086Y287354D01*
G37*
G36*
X384550Y283819D02*
X374121Y294248D01*
X376242Y296369D01*
X386671Y285940D01*
X384550Y283819D01*
G37*
G36*
X381015Y280283D02*
X370586Y290712D01*
X372707Y292833D01*
X383136Y282404D01*
X381015Y280283D01*
G37*
G36*
X377479Y276748D02*
X367050Y287177D01*
X369171Y289298D01*
X379600Y278869D01*
X377479Y276748D01*
G37*
G36*
X373944Y273212D02*
X363515Y283641D01*
X365636Y285762D01*
X376065Y275333D01*
X373944Y273212D01*
G37*
G36*
X363515Y247219D02*
X373944Y257648D01*
X376065Y255527D01*
X365636Y245098D01*
X363515Y247219D01*
G37*
G36*
X367050Y243683D02*
X377479Y254112D01*
X379600Y251991D01*
X369171Y241562D01*
X367050Y243683D01*
G37*
G36*
X370586Y240148D02*
X381015Y250577D01*
X383136Y248456D01*
X372707Y238027D01*
X370586Y240148D01*
G37*
G36*
X374121Y236612D02*
X384550Y247041D01*
X386671Y244920D01*
X376242Y234491D01*
X374121Y236612D01*
G37*
G36*
X377657Y233077D02*
X388086Y243506D01*
X390207Y241385D01*
X379778Y230956D01*
X377657Y233077D01*
G37*
G36*
X381192Y229541D02*
X391621Y239970D01*
X393742Y237849D01*
X383313Y227420D01*
X381192Y229541D01*
G37*
G36*
X384728Y226006D02*
X395157Y236435D01*
X397278Y234314D01*
X386849Y223885D01*
X384728Y226006D01*
G37*
G36*
X388263Y222470D02*
X398692Y232899D01*
X400813Y230778D01*
X390384Y220349D01*
X388263Y222470D01*
G37*
G36*
X391799Y218934D02*
X402228Y229363D01*
X404349Y227242D01*
X393920Y216813D01*
X391799Y218934D01*
G37*
G36*
X395335Y215399D02*
X405764Y225828D01*
X407885Y223707D01*
X397456Y213278D01*
X395335Y215399D01*
G37*
G36*
X398870Y211863D02*
X409299Y222292D01*
X411420Y220171D01*
X400991Y209742D01*
X398870Y211863D01*
G37*
G36*
X402406Y208328D02*
X412835Y218757D01*
X414956Y216636D01*
X404527Y206207D01*
X402406Y208328D01*
G37*
G36*
X405941Y204792D02*
X416370Y215221D01*
X418491Y213100D01*
X408062Y202671D01*
X405941Y204792D01*
G37*
G36*
X409477Y201257D02*
X419906Y211686D01*
X422027Y209565D01*
X411598Y199136D01*
X409477Y201257D01*
G37*
G36*
X413012Y197721D02*
X423441Y208150D01*
X425562Y206029D01*
X415133Y195600D01*
X413012Y197721D01*
G37*
G36*
X416548Y194186D02*
X426977Y204615D01*
X429098Y202494D01*
X418669Y192065D01*
X416548Y194186D01*
G37*
G36*
X455091Y192065D02*
X444662Y202494D01*
X446783Y204615D01*
X457212Y194186D01*
X455091Y192065D01*
G37*
G36*
X458627Y195600D02*
X448198Y206029D01*
X450319Y208150D01*
X460748Y197721D01*
X458627Y195600D01*
G37*
G36*
X462162Y199136D02*
X451733Y209565D01*
X453854Y211686D01*
X464283Y201257D01*
X462162Y199136D01*
G37*
G36*
X465698Y202671D02*
X455269Y213100D01*
X457390Y215221D01*
X467819Y204792D01*
X465698Y202671D01*
G37*
G36*
X469233Y206207D02*
X458804Y216636D01*
X460925Y218757D01*
X471354Y208328D01*
X469233Y206207D01*
G37*
G36*
X472769Y209742D02*
X462340Y220171D01*
X464461Y222292D01*
X474890Y211863D01*
X472769Y209742D01*
G37*
G36*
X476304Y213278D02*
X465875Y223707D01*
X467996Y225828D01*
X478425Y215399D01*
X476304Y213278D01*
G37*
G36*
X479840Y216813D02*
X469411Y227242D01*
X471532Y229363D01*
X481961Y218934D01*
X479840Y216813D01*
G37*
G36*
X483376Y220349D02*
X472947Y230778D01*
X475068Y232899D01*
X485497Y222470D01*
X483376Y220349D01*
G37*
G36*
X486911Y223885D02*
X476482Y234314D01*
X478603Y236435D01*
X489032Y226006D01*
X486911Y223885D01*
G37*
G36*
X490447Y227420D02*
X480018Y237849D01*
X482139Y239970D01*
X492568Y229541D01*
X490447Y227420D01*
G37*
G36*
X493982Y230956D02*
X483553Y241385D01*
X485674Y243506D01*
X496103Y233077D01*
X493982Y230956D01*
G37*
G36*
X497518Y234491D02*
X487089Y244920D01*
X489210Y247041D01*
X499639Y236612D01*
X497518Y234491D01*
G37*
G36*
X501053Y238027D02*
X490624Y248456D01*
X492745Y250577D01*
X503174Y240148D01*
X501053Y238027D01*
G37*
G36*
X504589Y241562D02*
X494160Y251991D01*
X496281Y254112D01*
X506710Y243683D01*
X504589Y241562D01*
G37*
G36*
X508124Y245098D02*
X497695Y255527D01*
X499816Y257648D01*
X510245Y247219D01*
X508124Y245098D01*
G37*
D11*
X727710Y92050D03*
X727710Y73050D03*
X753110Y31140D03*
X753110Y50140D03*
X753110Y92050D03*
X753110Y73050D03*
X778510Y31140D03*
X778510Y50140D03*
X778510Y92050D03*
X778510Y73050D03*
X727710Y31140D03*
X727710Y50140D03*
D12*
X295000Y404240D03*
X295000Y324740D03*
X340000Y404240D03*
X340000Y324740D03*
D13*
X723900Y185460D03*
X723900Y178960D03*
X723900Y172460D03*
X723900Y165960D03*
X723900Y159460D03*
X723900Y152960D03*
X723900Y146460D03*
X723900Y139960D03*
X723900Y133460D03*
X723900Y126960D03*
X782320Y126960D03*
X782320Y133460D03*
X782320Y139960D03*
X782320Y146460D03*
X782320Y152960D03*
X782320Y159460D03*
X782320Y165960D03*
X782320Y172460D03*
X782320Y178960D03*
X782320Y185460D03*
D14*
X679790Y147320D03*
X658790Y147320D03*
X679790Y128270D03*
X658790Y128270D03*
X679790Y109220D03*
X658790Y109220D03*
X679790Y90170D03*
X658790Y90170D03*
X679790Y71120D03*
X658790Y71120D03*
X679790Y52070D03*
X658790Y52070D03*
X679790Y33020D03*
X658790Y33020D03*
X679790Y13970D03*
X658790Y13970D03*
D11*
X772160Y370180D03*
X772160Y351180D03*
X746760Y370180D03*
X746760Y351180D03*
X350520Y24790D03*
X350520Y43790D03*
D15*
X308000Y44450D03*
X327000Y44450D03*
D16*
X327000Y89154D03*
X317500Y89154D03*
X308000Y89154D03*
X308000Y63246D03*
X327000Y63246D03*
D14*
X328000Y22860D03*
X307000Y22860D03*
D11*
X359410Y88240D03*
X359410Y69240D03*
D17*
X489767Y48743D02*
X494753Y48743D01*
X494753Y45557D01*
X489767Y45557D01*
X489767Y48743D01*
X489767Y45856D02*
X494753Y45856D01*
X494753Y46155D02*
X489767Y46155D01*
X489767Y46454D02*
X494753Y46454D01*
X494753Y46753D02*
X489767Y46753D01*
X489767Y47052D02*
X494753Y47052D01*
X494753Y47351D02*
X489767Y47351D01*
X489767Y47650D02*
X494753Y47650D01*
X494753Y47949D02*
X489767Y47949D01*
X489767Y48248D02*
X494753Y48248D01*
X494753Y48547D02*
X489767Y48547D01*
X489767Y53743D02*
X494753Y53743D01*
X494753Y50557D01*
X489767Y50557D01*
X489767Y53743D01*
X489767Y50856D02*
X494753Y50856D01*
X494753Y51155D02*
X489767Y51155D01*
X489767Y51454D02*
X494753Y51454D01*
X494753Y51753D02*
X489767Y51753D01*
X489767Y52052D02*
X494753Y52052D01*
X494753Y52351D02*
X489767Y52351D01*
X489767Y52650D02*
X494753Y52650D01*
X494753Y52949D02*
X489767Y52949D01*
X489767Y53248D02*
X494753Y53248D01*
X494753Y53547D02*
X489767Y53547D01*
X489767Y58743D02*
X494753Y58743D01*
X494753Y55557D01*
X489767Y55557D01*
X489767Y58743D01*
X489767Y55856D02*
X494753Y55856D01*
X494753Y56155D02*
X489767Y56155D01*
X489767Y56454D02*
X494753Y56454D01*
X494753Y56753D02*
X489767Y56753D01*
X489767Y57052D02*
X494753Y57052D01*
X494753Y57351D02*
X489767Y57351D01*
X489767Y57650D02*
X494753Y57650D01*
X494753Y57949D02*
X489767Y57949D01*
X489767Y58248D02*
X494753Y58248D01*
X494753Y58547D02*
X489767Y58547D01*
X489767Y63743D02*
X494753Y63743D01*
X494753Y60557D01*
X489767Y60557D01*
X489767Y63743D01*
X489767Y60856D02*
X494753Y60856D01*
X494753Y61155D02*
X489767Y61155D01*
X489767Y61454D02*
X494753Y61454D01*
X494753Y61753D02*
X489767Y61753D01*
X489767Y62052D02*
X494753Y62052D01*
X494753Y62351D02*
X489767Y62351D01*
X489767Y62650D02*
X494753Y62650D01*
X494753Y62949D02*
X489767Y62949D01*
X489767Y63248D02*
X494753Y63248D01*
X494753Y63547D02*
X489767Y63547D01*
X489767Y68743D02*
X494753Y68743D01*
X494753Y65557D01*
X489767Y65557D01*
X489767Y68743D01*
X489767Y65856D02*
X494753Y65856D01*
X494753Y66155D02*
X489767Y66155D01*
X489767Y66454D02*
X494753Y66454D01*
X494753Y66753D02*
X489767Y66753D01*
X489767Y67052D02*
X494753Y67052D01*
X494753Y67351D02*
X489767Y67351D01*
X489767Y67650D02*
X494753Y67650D01*
X494753Y67949D02*
X489767Y67949D01*
X489767Y68248D02*
X494753Y68248D01*
X494753Y68547D02*
X489767Y68547D01*
X483467Y66857D02*
X483467Y71843D01*
X486653Y71843D01*
X486653Y66857D01*
X483467Y66857D01*
X483467Y67156D02*
X486653Y67156D01*
X486653Y67455D02*
X483467Y67455D01*
X483467Y67754D02*
X486653Y67754D01*
X486653Y68053D02*
X483467Y68053D01*
X483467Y68352D02*
X486653Y68352D01*
X486653Y68651D02*
X483467Y68651D01*
X483467Y68950D02*
X486653Y68950D01*
X486653Y69249D02*
X483467Y69249D01*
X483467Y69548D02*
X486653Y69548D01*
X486653Y69847D02*
X483467Y69847D01*
X483467Y70146D02*
X486653Y70146D01*
X486653Y70445D02*
X483467Y70445D01*
X483467Y70744D02*
X486653Y70744D01*
X486653Y71043D02*
X483467Y71043D01*
X483467Y71342D02*
X486653Y71342D01*
X486653Y71641D02*
X483467Y71641D01*
X478467Y71843D02*
X478467Y66857D01*
X478467Y71843D02*
X481653Y71843D01*
X481653Y66857D01*
X478467Y66857D01*
X478467Y67156D02*
X481653Y67156D01*
X481653Y67455D02*
X478467Y67455D01*
X478467Y67754D02*
X481653Y67754D01*
X481653Y68053D02*
X478467Y68053D01*
X478467Y68352D02*
X481653Y68352D01*
X481653Y68651D02*
X478467Y68651D01*
X478467Y68950D02*
X481653Y68950D01*
X481653Y69249D02*
X478467Y69249D01*
X478467Y69548D02*
X481653Y69548D01*
X481653Y69847D02*
X478467Y69847D01*
X478467Y70146D02*
X481653Y70146D01*
X481653Y70445D02*
X478467Y70445D01*
X478467Y70744D02*
X481653Y70744D01*
X481653Y71043D02*
X478467Y71043D01*
X478467Y71342D02*
X481653Y71342D01*
X481653Y71641D02*
X478467Y71641D01*
X473467Y71843D02*
X473467Y66857D01*
X473467Y71843D02*
X476653Y71843D01*
X476653Y66857D01*
X473467Y66857D01*
X473467Y67156D02*
X476653Y67156D01*
X476653Y67455D02*
X473467Y67455D01*
X473467Y67754D02*
X476653Y67754D01*
X476653Y68053D02*
X473467Y68053D01*
X473467Y68352D02*
X476653Y68352D01*
X476653Y68651D02*
X473467Y68651D01*
X473467Y68950D02*
X476653Y68950D01*
X476653Y69249D02*
X473467Y69249D01*
X473467Y69548D02*
X476653Y69548D01*
X476653Y69847D02*
X473467Y69847D01*
X473467Y70146D02*
X476653Y70146D01*
X476653Y70445D02*
X473467Y70445D01*
X473467Y70744D02*
X476653Y70744D01*
X476653Y71043D02*
X473467Y71043D01*
X473467Y71342D02*
X476653Y71342D01*
X476653Y71641D02*
X473467Y71641D01*
X470353Y65557D02*
X465367Y65557D01*
X465367Y68743D01*
X470353Y68743D01*
X470353Y65557D01*
X470353Y65856D02*
X465367Y65856D01*
X465367Y66155D02*
X470353Y66155D01*
X470353Y66454D02*
X465367Y66454D01*
X465367Y66753D02*
X470353Y66753D01*
X470353Y67052D02*
X465367Y67052D01*
X465367Y67351D02*
X470353Y67351D01*
X470353Y67650D02*
X465367Y67650D01*
X465367Y67949D02*
X470353Y67949D01*
X470353Y68248D02*
X465367Y68248D01*
X465367Y68547D02*
X470353Y68547D01*
X470353Y60557D02*
X465367Y60557D01*
X465367Y63743D01*
X470353Y63743D01*
X470353Y60557D01*
X470353Y60856D02*
X465367Y60856D01*
X465367Y61155D02*
X470353Y61155D01*
X470353Y61454D02*
X465367Y61454D01*
X465367Y61753D02*
X470353Y61753D01*
X470353Y62052D02*
X465367Y62052D01*
X465367Y62351D02*
X470353Y62351D01*
X470353Y62650D02*
X465367Y62650D01*
X465367Y62949D02*
X470353Y62949D01*
X470353Y63248D02*
X465367Y63248D01*
X465367Y63547D02*
X470353Y63547D01*
X470353Y55557D02*
X465367Y55557D01*
X465367Y58743D01*
X470353Y58743D01*
X470353Y55557D01*
X470353Y55856D02*
X465367Y55856D01*
X465367Y56155D02*
X470353Y56155D01*
X470353Y56454D02*
X465367Y56454D01*
X465367Y56753D02*
X470353Y56753D01*
X470353Y57052D02*
X465367Y57052D01*
X465367Y57351D02*
X470353Y57351D01*
X470353Y57650D02*
X465367Y57650D01*
X465367Y57949D02*
X470353Y57949D01*
X470353Y58248D02*
X465367Y58248D01*
X465367Y58547D02*
X470353Y58547D01*
X470353Y50557D02*
X465367Y50557D01*
X465367Y53743D01*
X470353Y53743D01*
X470353Y50557D01*
X470353Y50856D02*
X465367Y50856D01*
X465367Y51155D02*
X470353Y51155D01*
X470353Y51454D02*
X465367Y51454D01*
X465367Y51753D02*
X470353Y51753D01*
X470353Y52052D02*
X465367Y52052D01*
X465367Y52351D02*
X470353Y52351D01*
X470353Y52650D02*
X465367Y52650D01*
X465367Y52949D02*
X470353Y52949D01*
X470353Y53248D02*
X465367Y53248D01*
X465367Y53547D02*
X470353Y53547D01*
X470353Y45557D02*
X465367Y45557D01*
X465367Y48743D01*
X470353Y48743D01*
X470353Y45557D01*
X470353Y45856D02*
X465367Y45856D01*
X465367Y46155D02*
X470353Y46155D01*
X470353Y46454D02*
X465367Y46454D01*
X465367Y46753D02*
X470353Y46753D01*
X470353Y47052D02*
X465367Y47052D01*
X465367Y47351D02*
X470353Y47351D01*
X470353Y47650D02*
X465367Y47650D01*
X465367Y47949D02*
X470353Y47949D01*
X470353Y48248D02*
X465367Y48248D01*
X465367Y48547D02*
X470353Y48547D01*
X476653Y47443D02*
X476653Y42457D01*
X473467Y42457D01*
X473467Y47443D01*
X476653Y47443D01*
X476653Y42756D02*
X473467Y42756D01*
X473467Y43055D02*
X476653Y43055D01*
X476653Y43354D02*
X473467Y43354D01*
X473467Y43653D02*
X476653Y43653D01*
X476653Y43952D02*
X473467Y43952D01*
X473467Y44251D02*
X476653Y44251D01*
X476653Y44550D02*
X473467Y44550D01*
X473467Y44849D02*
X476653Y44849D01*
X476653Y45148D02*
X473467Y45148D01*
X473467Y45447D02*
X476653Y45447D01*
X476653Y45746D02*
X473467Y45746D01*
X473467Y46045D02*
X476653Y46045D01*
X476653Y46344D02*
X473467Y46344D01*
X473467Y46643D02*
X476653Y46643D01*
X476653Y46942D02*
X473467Y46942D01*
X473467Y47241D02*
X476653Y47241D01*
X481653Y47443D02*
X481653Y42457D01*
X478467Y42457D01*
X478467Y47443D01*
X481653Y47443D01*
X481653Y42756D02*
X478467Y42756D01*
X478467Y43055D02*
X481653Y43055D01*
X481653Y43354D02*
X478467Y43354D01*
X478467Y43653D02*
X481653Y43653D01*
X481653Y43952D02*
X478467Y43952D01*
X478467Y44251D02*
X481653Y44251D01*
X481653Y44550D02*
X478467Y44550D01*
X478467Y44849D02*
X481653Y44849D01*
X481653Y45148D02*
X478467Y45148D01*
X478467Y45447D02*
X481653Y45447D01*
X481653Y45746D02*
X478467Y45746D01*
X478467Y46045D02*
X481653Y46045D01*
X481653Y46344D02*
X478467Y46344D01*
X478467Y46643D02*
X481653Y46643D01*
X481653Y46942D02*
X478467Y46942D01*
X478467Y47241D02*
X481653Y47241D01*
X486653Y47443D02*
X486653Y42457D01*
X483467Y42457D01*
X483467Y47443D01*
X486653Y47443D01*
X486653Y42756D02*
X483467Y42756D01*
X483467Y43055D02*
X486653Y43055D01*
X486653Y43354D02*
X483467Y43354D01*
X483467Y43653D02*
X486653Y43653D01*
X486653Y43952D02*
X483467Y43952D01*
X483467Y44251D02*
X486653Y44251D01*
X486653Y44550D02*
X483467Y44550D01*
X483467Y44849D02*
X486653Y44849D01*
X486653Y45148D02*
X483467Y45148D01*
X483467Y45447D02*
X486653Y45447D01*
X486653Y45746D02*
X483467Y45746D01*
X483467Y46045D02*
X486653Y46045D01*
X486653Y46344D02*
X483467Y46344D01*
X483467Y46643D02*
X486653Y46643D01*
X486653Y46942D02*
X483467Y46942D01*
X483467Y47241D02*
X486653Y47241D01*
D18*
X205232Y66197D03*
X205232Y71199D03*
X205232Y76200D03*
X205232Y81201D03*
X205232Y86203D03*
X175768Y86203D03*
X175768Y81201D03*
X175768Y76200D03*
X175768Y71199D03*
X175768Y66197D03*
D19*
X190500Y76200D03*
D11*
X224790Y86970D03*
X224790Y67970D03*
D15*
X181000Y16510D03*
X200000Y16510D03*
D11*
X223520Y18440D03*
X223520Y37440D03*
D15*
X200000Y38100D03*
X181000Y38100D03*
D20*
X135890Y75670D03*
X135890Y104670D03*
D21*
G36*
X530172Y248335D02*
X537895Y240612D01*
X529642Y232359D01*
X521919Y240082D01*
X530172Y248335D01*
G37*
G36*
X539698Y257861D02*
X547421Y250138D01*
X539168Y241885D01*
X531445Y249608D01*
X539698Y257861D01*
G37*
D15*
X493370Y13970D03*
X474370Y13970D03*
D22*
X443230Y41940D03*
X443230Y13940D03*
D23*
X354220Y207080D03*
X354220Y184080D03*
X372220Y184080D03*
X372220Y207080D03*
D15*
X371720Y156210D03*
X354720Y156210D03*
D11*
X330200Y204080D03*
X330200Y187080D03*
D15*
G36*
X310075Y155569D02*
X300883Y164761D01*
X311489Y175367D01*
X320681Y166175D01*
X310075Y155569D01*
G37*
G36*
X323511Y142133D02*
X314319Y151325D01*
X324925Y161931D01*
X334117Y152739D01*
X323511Y142133D01*
G37*
D24*
X185390Y285940D03*
X242390Y285940D03*
D25*
X258390Y417440D03*
X126890Y427440D03*
D26*
X173490Y388940D03*
X184490Y384940D03*
X195490Y388940D03*
X206490Y390940D03*
X217490Y388940D03*
X228490Y390940D03*
X239490Y388940D03*
X250490Y388940D03*
M02*
